<?xml version="1.0" encoding="UTF-8" standalone="no"?>
<!-- Created with Inkscape (http://www.inkscape.org/) -->

<svg
   xmlns:dc="http://purl.org/dc/elements/1.1/"
   xmlns:cc="http://creativecommons.org/ns#"
   xmlns:rdf="http://www.w3.org/1999/02/22-rdf-syntax-ns#"
   xmlns:svg="http://www.w3.org/2000/svg"
   xmlns="http://www.w3.org/2000/svg"
   xmlns:sodipodi="http://sodipodi.sourceforge.net/DTD/sodipodi-0.dtd"
   xmlns:inkscape="http://www.inkscape.org/namespaces/inkscape"
   id="svg2"
   version="1.1"
   inkscape:version="0.91 r13725"
   width="675"
   height="191.25"
   xml:space="preserve"
   sodipodi:docname="detect_phases.svg"><metadata
     id="metadata8"><rdf:RDF><cc:Work
         rdf:about=""><dc:format>image/svg+xml</dc:format><dc:type
           rdf:resource="http://purl.org/dc/dcmitype/StillImage" /><dc:title></dc:title></cc:Work></rdf:RDF></metadata><defs
     id="defs6"><clipPath
       clipPathUnits="userSpaceOnUse"
       id="clipPath72"><path
         d="M 0,1530 0,0 l 5400,0 0,1530 -5400,0 z m 1166.24,-1114.961 -43.46,-29.605 21.42,-31.496 43.46,29.605 0,0 -41.57,-5.668 20.15,37.164 z"
         clip-rule="evenodd"
         id="path74" /></clipPath><clipPath
       clipPathUnits="userSpaceOnUse"
       id="clipPath110"><path
         d="M 0,1530 0,0 l 5400,0 0,1530 -5400,0 z m 2866.34,-1315.898 42.21,0 0,37.793 -42.21,0 0,0 28.35,-18.899 -28.35,-18.894 z"
         clip-rule="evenodd"
         id="path112" /></clipPath><clipPath
       clipPathUnits="userSpaceOnUse"
       id="clipPath148"><path
         d="M 0,1530 0,0 l 5400,0 0,1530 -5400,0 z m 4680.46,-1315.898 42.2,0 0,37.793 -42.2,0 0,0 28.34,-18.899 -28.34,-18.894 z"
         clip-rule="evenodd"
         id="path150" /></clipPath></defs><sodipodi:namedview
     pagecolor="#ffffff"
     bordercolor="#666666"
     borderopacity="1"
     objecttolerance="10"
     gridtolerance="10"
     guidetolerance="10"
     inkscape:pageopacity="0"
     inkscape:pageshadow="2"
     inkscape:window-width="1440"
     inkscape:window-height="851"
     id="namedview4"
     showgrid="false"
     inkscape:zoom="1.28"
     inkscape:cx="416.63859"
     inkscape:cy="90.836717"
     inkscape:window-x="0"
     inkscape:window-y="0"
     inkscape:window-maximized="1"
     inkscape:current-layer="g160"
     showguides="true"
     inkscape:guide-bbox="true" /><g
     id="g10"
     inkscape:groupmode="layer"
     inkscape:label="ink_ext_XXXXXX"
     transform="matrix(1.25,0,0,-1.25,0,191.25)"><g
       id="g12"
       transform="scale(0.1,0.1)"><path
         d="m 969.35493,1451.86 113.37997,0"
         style="fill:none;stroke:#ff0000;stroke-width:4.72424984;stroke-linecap:butt;stroke-linejoin:miter;stroke-miterlimit:10;stroke-opacity:1;stroke-dasharray:none"
         id="path14"
         inkscape:connector-curvature="0" /><path
         d="m 971.22473,1340.3398 113.37997,0"
         style="fill:none;stroke:#bf6100;stroke-width:4.72424984;stroke-linecap:butt;stroke-linejoin:miter;stroke-miterlimit:10;stroke-opacity:1;stroke-dasharray:none"
         id="path16"
         inkscape:connector-curvature="0" /><path
         d="m 206.273,1338.47 113.383,0"
         style="fill:none;stroke:#00b000;stroke-opacity:1;stroke-width:4.72425;stroke-linecap:butt;stroke-linejoin:miter;stroke-miterlimit:10;stroke-dasharray:none"
         id="path18" /><path
         d="m 969.90872,1227.7356 113.38298,0"
         style="fill:none;stroke:#0000b0;stroke-width:4.72424984;stroke-linecap:butt;stroke-linejoin:miter;stroke-miterlimit:10;stroke-opacity:1;stroke-dasharray:none"
         id="path20"
         inkscape:connector-curvature="0" /><path
         d="m 974.754,816.914 56.696,102.676 28.34,0 85.04,205.35 28.34,0 28.35,-257.002 28.34,0 28.35,51.652 28.34,0 28.35,-76.848 28.35,0 56.69,230.548 28.34,0 28.34,-230.548 0,-25.828"
         style="fill:none;stroke:#0000b0;stroke-opacity:1;stroke-width:4.72425;stroke-linecap:butt;stroke-linejoin:miter;stroke-miterlimit:10;stroke-dasharray:none"
         id="path22" /><path
         d="m 492.879,816.914 56.691,102.676 28.348,0 85.035,205.35 28.344,0 28.348,-257.002 28.343,0 28.348,51.652 28.344,0 28.347,-76.848 28.344,0 56.691,230.548 28.344,0 28.348,-230.548 0,-25.828"
         style="fill:none;stroke:#0000b0;stroke-opacity:1;stroke-width:4.72425;stroke-linecap:butt;stroke-linejoin:miter;stroke-miterlimit:10;stroke-dasharray:none"
         id="path24" /><path
         d="m 7.85547,817.543 56.69143,102.676 28.3476,0 85.0355,204.721 28.343,0 28.348,-256.374 28.344,0 28.347,51.653 28.344,0 28.348,-76.848 28.344,0 56.691,230.539 28.344,0 28.347,-230.539 0,-25.828"
         style="fill:none;stroke:#0000b0;stroke-opacity:1;stroke-width:4.72425;stroke-linecap:butt;stroke-linejoin:miter;stroke-miterlimit:10;stroke-dasharray:none"
         id="path26" /><path
         d="m 7.85547,355.828 513.49641,0 0,179.52 978.08242,0"
         style="fill:none;stroke:#008f00;stroke-width:4.3878231;stroke-linecap:butt;stroke-linejoin:miter;stroke-miterlimit:10;stroke-opacity:1;stroke-dasharray:none"
         id="path30"
         inkscape:connector-curvature="0" /><path
         d="m 7.6793282,176.12886 1639.6815718,0 0,972.77314 -1639.6815718,0 0,-972.77314 z"
         style="fill:none;stroke:#000000;stroke-width:4.37196636;stroke-linecap:butt;stroke-linejoin:miter;stroke-miterlimit:10;stroke-opacity:1;stroke-dasharray:none"
         id="path32"
         inkscape:connector-curvature="0" /><path
         d="m 279.99142,547.44131 c 0,-15.652 -12.691,-28.344 -28.344,-28.344 -15.652,0 -28.347,12.692 -28.347,28.344 0,15.652 12.695,28.348 28.347,28.348 15.653,0 28.344,-12.696 28.344,-28.348"
         style="fill:#808080;fill-opacity:1;fill-rule:evenodd;stroke:none"
         id="path34"
         inkscape:connector-curvature="0" /><path
         d="m 397.91968,441.25186 c 0,-15.653 -12.692,-28.348 -28.344,-28.348 -15.652,0 -28.344,12.695 -28.344,28.348 0,15.652 12.692,28.343 28.344,28.343 15.652,0 28.344,-12.691 28.344,-28.343"
         style="fill:#808080;fill-opacity:1;fill-rule:evenodd;stroke:none"
         id="path36"
         inkscape:connector-curvature="0" /><path
         d="m 1277.7182,457.59129 c 0,-15.652 -12.69,-28.344 -28.35,-28.344 -15.65,0 -28.34,12.692 -28.34,28.344 0,15.652 12.69,28.348 28.34,28.348 15.66,0 28.35,-12.696 28.35,-28.348"
         style="fill:#808080;fill-opacity:1;fill-rule:evenodd;stroke:none"
         id="path38"
         inkscape:connector-curvature="0" /><path
         d="m 7.85547,318.035 221.18089,0 24.57696,226.762 0,-226.762 98.30347,0 24.57435,113.379 0,-113.379 172.02913,0 0,283.453 24.57782,-28.343 24.57349,56.691 24.57782,-28.348 270.32653,0 172.03087,0 24.5796,-56.691 0,56.691 122.8804,0 24.5709,-141.726 0,141.726 98.3095,0 24.5709,28.348 24.5709,-28.348 122.8804,0 0,0"
         style="fill:none;stroke:#bf6100;stroke-width:4.3988924;stroke-linecap:butt;stroke-linejoin:miter;stroke-miterlimit:10;stroke-opacity:1;stroke-dasharray:none"
         id="path40"
         inkscape:connector-curvature="0" /><path
         d="m 7.85547,686.527 0.5458908,1.258 0.5425264,3.149 1.0850438,4.41 1.630918,5.668 2.173522,6.3 2.715954,6.93 3.804439,8.188 5.435271,10.078 6.520394,10.707 7.605428,10.711 5.977876,9.449 4.346957,7.559 2.715953,5.668 1.630918,4.41 2.173522,4.406 2.715954,4.41 4.892839,4.41 7.605429,3.782 9.239711,1.886 9.236778,-1.886 7.062479,-5.04 4.346867,-6.929 2.71906,-6.93 1.08521,-7.559 1.08866,-7.558 2.71561,-6.93 4.34773,-6.929 7.06248,-5.04 9.2398,-1.89 9.23635,1.89 7.06248,5.04 4.34773,6.929 2.71561,6.93 1.08866,7.558 1.0852,7.559 2.71906,6.93 4.34687,6.929 7.06248,5.04 9.23635,1.886 9.2398,-1.886 7.60594,-5.04 4.89293,-5.671 2.71561,-6.93 2.17387,-6.297 1.6304,-6.93 2.71647,-6.929 4.34687,-6.93 5.97727,-5.668 7.60595,-4.41 9.7824,-0.629 3.80426,5.039 0.54261,7.559 0.5426,7.558 2.71561,6.301 7.06593,2.519 7.06334,-2.519 3.80427,-5.668 1.63126,-6.301 1.08521,-5.668 3.80427,-5.672 7.06248,-2.519 7.06679,2.519 3.80082,5.672 1.63126,6.297 1.0878,5.672 3.80081,5.668 7.0668,2.519 7.06248,-2.519 3.80512,-4.41 1.63041,-5.039 1.0852,-5.039 3.80427,-5.668 7.06334,-5.672 4.34687,-2.52 3.80427,-1.257 1.63126,-0.629 0.54175,0 0,-0.633 0,0.633 0.5426,0 2.71647,0.629 4.35032,1.257 6.51988,2.52 7.60594,3.152 5.97728,3.778 4.88947,3.148 3.26253,3.152 2.7156,3.149 2.71648,3.148 3.26166,3.153 4.88947,2.519 5.97728,1.887 7.60594,1.261 9.7824,-2.519 3.26167,-4.41 -1.08866,-5.039 -0.54261,-5.039 3.25908,-5.668 9.78154,-5.672 9.23721,-2.52 6.51987,-1.257 4.34687,0.628 2.17387,0.629 2.71906,1.262 4.34687,0.629 8.14769,0.629 22.82301,0 8.152,0.633 4.34687,0.629 2.71561,1.257 2.17387,0.633 4.34687,0.629 6.51988,-1.262 9.23979,-2.519 9.77895,-5.668 3.80427,-5.668 0.54261,-5.039 0.54605,-5.039 2.71647,-4.41 7.06248,-2.52 7.06334,2.52 2.71906,4.41 0.54261,5.039 0.5426,5.039 3.80427,5.668 9.7824,5.668 9.23635,2.519 7.06247,0.633 4.89293,-1.262 3.25821,-1.89 3.26253,-1.887 4.88947,-1.262 7.06248,0.629 9.2398,2.52 9.77895,5.672 3.80427,5.668 0.5426,5.039 0.54261,5.039 2.71906,4.41 7.06334,2.519 7.06248,-2.519 2.71992,-4.41 0.5426,-5.039 0.54261,-5.039 3.80426,-5.668 9.77896,-5.672 9.23979,-2.52 7.06248,-1.257 4.88948,-0.629 3.26166,-0.633 3.25908,0.633 4.89206,0.629 7.06334,1.257 9.23635,2.52 9.7824,5.672 4.88947,5.668 1.6304,5.039 1.08521,5.039 2.71992,4.41 4.34687,2.519 2.17301,-2.519 -1.08866,-4.41 -3.25821,-5.039 -2.71906,-5.039 0,-5.668 4.89292,-5.672 7.06248,-2.52 5.97814,-1.257 4.34687,-0.629 3.25821,-0.633 3.26253,0.633 4.88861,0.629 8.69461,1.257 11.4128,2.52 9.23634,3.152 7.60854,3.778 4.88947,3.148 2.71647,3.152 2.17301,3.149 1.63126,3.148 2.71561,3.153 4.34687,2.519 5.97814,1.887 7.60853,1.261 9.23635,-2.519 2.71647,-4.41 -1.63127,-5.039 -1.62695,-5.039 3.25822,-5.668 12.49801,-5.672 10.32673,-2.52 8.69546,-0.629 7.05645,-0.628 4.89982,0.628 3.79564,0.629 3.80427,1.262 4.8912,0.629 7.60854,0.629 35.31671,0 7.06506,0.633 0.54347,0.629 -2.17387,1.257 -2.17386,0.633 2.17386,0.629 10.32587,-1.262 20.10827,-2.519 12.49111,-1.887 12.49977,-2.519 11.4128,-1.891 9.2389,-2.52 7.6085,-1.89 5.9782,-1.891 5.4346,-1.887 4.8826,-1.89 4.3477,-1.891 5.4347,-1.89 6.5216,-1.887 8.152,-1.891 10.3259,-1.261 12.4997,-1.891 14.665,-0.629 15.2171,-0.629 19.0213,0.629 14.665,1.891 9.7824,1.89 4.8912,2.52 2.1738,2.519 0.5435,2.52 0,2.519 2.1739,2.52 4.8912,2.519 8.6954,3.149 13.5867,3.148 17.3823,2.52 15.7606,1.89 13.578,1.262 11.4214,0.629 9.2303,0.629 29.8907,0 7.6085,-0.629 10.3259,-0.629 11.9476,-1.262 12.4998,-1.89 15.217,-3.149 9.2304,-3.777 4.8998,-3.152 0.5348,-3.149 -1.6304,-3.148 -1.0783,-3.149 0,-3.152 3.2522,-2.519 7.6085,-1.891 10.8694,-1.258 11.9562,1.258 10.3259,1.891 7.6085,2.519 4.8826,3.152 3.8043,3.149 3.8042,3.148 4.8912,3.149 7.0651,3.152 8.6955,3.777 10.3258,3.149 6.513,1.89 4.8998,1.262 3.7957,0.629 5.4347,0 1.0869,-0.629 1.0869,-0.633 0.5435,-0.629 0.5435,-0.628 0.5434,-0.629 0,-0.633"
         style="fill:none;stroke:#ff0000;stroke-width:4.38782263;stroke-linecap:butt;stroke-linejoin:bevel;stroke-miterlimit:10;stroke-opacity:1;stroke-dasharray:none"
         id="path42"
         inkscape:connector-curvature="0" /><path
         d="m 2700.68,743.215 170.074,0 0,170.074 -170.074,0 0,-170.074 z"
         style="fill:none;stroke:#000000;stroke-opacity:1;stroke-width:4.72425;stroke-linecap:butt;stroke-linejoin:miter;stroke-miterlimit:10;stroke-dasharray:none"
         id="path44" /><path
         d="m 3409.32,743.215 -198.42,0 0,170.074 198.42,0"
         style="fill:none;stroke:#000000;stroke-opacity:1;stroke-width:4.72425;stroke-linecap:butt;stroke-linejoin:miter;stroke-miterlimit:10;stroke-dasharray:none"
         id="path46" /><path
         d="m 2870.75,743.215 170.07,0 0,170.074 -170.07,0 0,-170.074 z"
         style="fill:none;stroke:#000000;stroke-opacity:1;stroke-width:4.72425;stroke-linecap:butt;stroke-linejoin:miter;stroke-miterlimit:10;stroke-dasharray:none"
         id="path48" /><path
         d="m 2332.19,913.289 198.42,0 0,-170.074 -198.42,0"
         style="fill:none;stroke:#000000;stroke-opacity:1;stroke-width:4.72425;stroke-linecap:butt;stroke-linejoin:miter;stroke-miterlimit:10;stroke-dasharray:none"
         id="path50" /><path
         d="m 3040.82,743.215 170.074,0 0,170.074 -170.074,0 0,-170.074 z"
         style="fill:none;stroke:#000000;stroke-opacity:1;stroke-width:4.72425;stroke-linecap:butt;stroke-linejoin:miter;stroke-miterlimit:10;stroke-dasharray:none"
         id="path52" /><path
         d="m 2530.61,743.215 170.074,0 0,170.074 -170.074,0 0,-170.074 z"
         style="fill:none;stroke:#000000;stroke-opacity:1;stroke-width:4.72425;stroke-linecap:butt;stroke-linejoin:miter;stroke-miterlimit:10;stroke-dasharray:none"
         id="path54" /><path
         d="m 4514.79,743.215 170.07,0 0,170.074 -170.07,0 0,-170.074 z"
         style="fill:none;stroke:#000000;stroke-opacity:1;stroke-width:4.72425;stroke-linecap:butt;stroke-linejoin:miter;stroke-miterlimit:10;stroke-dasharray:none"
         id="path56" /><path
         d="m 5223.43,743.215 -198.42,0 0,170.074 198.42,0"
         style="fill:none;stroke:#000000;stroke-opacity:1;stroke-width:4.72425;stroke-linecap:butt;stroke-linejoin:miter;stroke-miterlimit:10;stroke-dasharray:none"
         id="path58" /><path
         d="m 4684.86,743.215 170.074,0 0,170.074 -170.074,0 0,-170.074 z"
         style="fill:none;stroke:#000000;stroke-opacity:1;stroke-width:4.72425;stroke-linecap:butt;stroke-linejoin:miter;stroke-miterlimit:10;stroke-dasharray:none"
         id="path60" /><path
         d="m 4146.3,913.289 198.42,0 0,-170.074 -198.42,0"
         style="fill:none;stroke:#000000;stroke-opacity:1;stroke-width:4.72425;stroke-linecap:butt;stroke-linejoin:miter;stroke-miterlimit:10;stroke-dasharray:none"
         id="path62" /><path
         d="m 4854.94,743.215 170.074,0 0,170.074 -170.074,0 0,-170.074 z"
         style="fill:none;stroke:#000000;stroke-opacity:1;stroke-width:4.72425;stroke-linecap:butt;stroke-linejoin:miter;stroke-miterlimit:10;stroke-dasharray:none"
         id="path64" /><path
         d="m 4344.72,743.215 170.074,0 0,170.074 -170.074,0 0,-170.074 z"
         style="fill:none;stroke:#000000;stroke-opacity:1;stroke-width:4.72425;stroke-linecap:butt;stroke-linejoin:miter;stroke-miterlimit:10;stroke-dasharray:none"
         id="path66" /><g
         id="g68"
         transform="translate(-220.63712,14.958449)"><g
           id="g70"
           clip-path="url(#clipPath72)"><path
             d="m 1425.14,431.43 c -27.71,7.554 -56.32,11.386 -85.05,11.386 -71.86,0 -141.69,-23.957 -198.42,-68.082"
             style="fill:none;stroke:#000000;stroke-width:4.72424984;stroke-linecap:butt;stroke-linejoin:miter;stroke-miterlimit:10;stroke-opacity:1;stroke-dasharray:none"
             id="path76"
             inkscape:connector-curvature="0" /></g></g><path
         d="m 923.16521,407.55978 -20.15,-37.164 41.57,5.668 -21.42,31.496"
         style="fill:#000000;fill-opacity:1;fill-rule:evenodd;stroke:none"
         id="path78"
         inkscape:connector-curvature="0" /><path
         d="m 922.23031,409.42958 -20.15,-37.164 41.57,5.668 -21.42,31.496 z"
         style="fill:none;stroke:#000000;stroke-width:4.72424984;stroke-linecap:butt;stroke-linejoin:miter;stroke-miterlimit:10;stroke-opacity:1;stroke-dasharray:none"
         id="path80"
         inkscape:connector-curvature="0" /><path
         d="m 3040.82,1168.4 170.074,0 0,170.074 -170.074,0 0,-170.074 z"
         style="fill:none;stroke:#000000;stroke-opacity:1;stroke-width:4.72425;stroke-linecap:butt;stroke-linejoin:miter;stroke-miterlimit:10;stroke-dasharray:none"
         id="path82" /><path
         d="m 3409.32,1168.4 -198.42,0 0,170.07 198.42,0"
         style="fill:none;stroke:#000000;stroke-opacity:1;stroke-width:4.72425;stroke-linecap:butt;stroke-linejoin:miter;stroke-miterlimit:10;stroke-dasharray:none"
         id="path84" /><path
         d="m 2332.19,1338.47 198.42,0 0,-170.07 -198.42,0"
         style="fill:none;stroke:#000000;stroke-opacity:1;stroke-width:4.72425;stroke-linecap:butt;stroke-linejoin:miter;stroke-miterlimit:10;stroke-dasharray:none"
         id="path86" /><path
         d="m 2530.61,1168.4 170.074,0 0,170.074 -170.074,0 0,-170.074 z"
         style="fill:none;stroke:#000000;stroke-opacity:1;stroke-width:4.72425;stroke-linecap:butt;stroke-linejoin:miter;stroke-miterlimit:10;stroke-dasharray:none"
         id="path88" /><path
         d="m 2700.68,1168.4 170.074,0 0,170.074 -170.074,0 0,-170.074 z"
         style="fill:none;stroke:#000000;stroke-opacity:1;stroke-width:4.72425;stroke-linecap:butt;stroke-linejoin:miter;stroke-miterlimit:10;stroke-dasharray:none"
         id="path90" /><path
         d="m 2870.75,1168.4 170.07,0 0,170.074 -170.07,0 0,-170.074 z"
         style="fill:none;stroke:#000000;stroke-opacity:1;stroke-width:4.72425;stroke-linecap:butt;stroke-linejoin:miter;stroke-miterlimit:10;stroke-dasharray:none"
         id="path92" /><path
         d="m 3409.32,318.035 -198.42,0 0,170.07 198.42,0"
         style="fill:none;stroke:#000000;stroke-opacity:1;stroke-width:4.72425;stroke-linecap:butt;stroke-linejoin:miter;stroke-miterlimit:10;stroke-dasharray:none"
         id="path94" /><path
         d="m 2332.19,488.105 198.42,0 0,-170.07 -198.42,0"
         style="fill:none;stroke:#000000;stroke-opacity:1;stroke-width:4.72425;stroke-linecap:butt;stroke-linejoin:miter;stroke-miterlimit:10;stroke-dasharray:none"
         id="path96" /><path
         d="m 2530.61,318.035 170.074,0 0,170.07 -170.074,0 0,-170.07 z"
         style="fill:none;stroke:#000000;stroke-opacity:1;stroke-width:4.72425;stroke-linecap:butt;stroke-linejoin:miter;stroke-miterlimit:10;stroke-dasharray:none"
         id="path98" /><path
         d="m 2870.75,318.035 170.07,0 0,170.07 -170.07,0 0,-170.07 z"
         style="fill:none;stroke:#000000;stroke-opacity:1;stroke-width:4.72425;stroke-linecap:butt;stroke-linejoin:miter;stroke-miterlimit:10;stroke-dasharray:none"
         id="path100" /><path
         d="m 3040.82,318.035 170.074,0 0,170.07 -170.074,0 0,-170.07 z"
         style="fill:none;stroke:#000000;stroke-opacity:1;stroke-width:4.72425;stroke-linecap:butt;stroke-linejoin:miter;stroke-miterlimit:10;stroke-dasharray:none"
         id="path102" /><path
         d="m 2700.68,318.035 170.074,0 0,170.07 -170.074,0 0,-170.07 z"
         style="fill:none;stroke:#000000;stroke-opacity:1;stroke-width:9.4485;stroke-linecap:butt;stroke-linejoin:miter;stroke-miterlimit:10;stroke-dasharray:37.794;stroke-dashoffset:0"
         id="path104" /><g
         id="g106"><g
           id="g108"
           clip-path="url(#clipPath110)"><path
             d="m 2785.71,318.035 0,-85.039 113.39,0"
             style="fill:none;stroke:#000000;stroke-opacity:1;stroke-width:4.72425;stroke-linecap:butt;stroke-linejoin:miter;stroke-miterlimit:10;stroke-dasharray:none"
             id="path114" /></g></g><path
         d="m 2866.34,214.102 28.35,18.894 -28.35,18.899 0,-37.793"
         style="fill:#000000;fill-opacity:1;fill-rule:evenodd;stroke:none"
         id="path116" /><path
         d="m 2866.34,214.102 28.35,18.894 -28.35,18.899 0,-37.793 z"
         style="fill:none;stroke:#000000;stroke-opacity:1;stroke-width:4.72425;stroke-linecap:butt;stroke-linejoin:miter;stroke-miterlimit:10;stroke-dasharray:none"
         id="path118" /><path
         d="m 4854.94,1168.4 170.074,0 0,170.074 -170.074,0 0,-170.074 z"
         style="fill:none;stroke:#000000;stroke-opacity:1;stroke-width:4.72425;stroke-linecap:butt;stroke-linejoin:miter;stroke-miterlimit:10;stroke-dasharray:none"
         id="path120" /><path
         d="m 5223.43,1168.4 -198.42,0 0,170.07 198.42,0"
         style="fill:none;stroke:#000000;stroke-opacity:1;stroke-width:4.72425;stroke-linecap:butt;stroke-linejoin:miter;stroke-miterlimit:10;stroke-dasharray:none"
         id="path122" /><path
         d="m 4146.3,1338.47 198.42,0 0,-170.07 -198.42,0"
         style="fill:none;stroke:#000000;stroke-opacity:1;stroke-width:4.72425;stroke-linecap:butt;stroke-linejoin:miter;stroke-miterlimit:10;stroke-dasharray:none"
         id="path124" /><path
         d="m 4344.72,1168.4 170.074,0 0,170.074 -170.074,0 0,-170.074 z"
         style="fill:none;stroke:#000000;stroke-opacity:1;stroke-width:4.72425;stroke-linecap:butt;stroke-linejoin:miter;stroke-miterlimit:10;stroke-dasharray:none"
         id="path126" /><path
         d="m 4514.79,1168.4 170.07,0 0,170.074 -170.07,0 0,-170.074 z"
         style="fill:none;stroke:#000000;stroke-opacity:1;stroke-width:4.72425;stroke-linecap:butt;stroke-linejoin:miter;stroke-miterlimit:10;stroke-dasharray:none"
         id="path128" /><path
         d="m 4684.86,1168.4 170.074,0 0,170.074 -170.074,0 0,-170.074 z"
         style="fill:none;stroke:#000000;stroke-opacity:1;stroke-width:4.72425;stroke-linecap:butt;stroke-linejoin:miter;stroke-miterlimit:10;stroke-dasharray:none"
         id="path130" /><path
         d="m 5223.43,318.035 -198.42,0 0,170.07 198.42,0"
         style="fill:none;stroke:#000000;stroke-opacity:1;stroke-width:4.72425;stroke-linecap:butt;stroke-linejoin:miter;stroke-miterlimit:10;stroke-dasharray:none"
         id="path132" /><path
         d="m 4146.3,488.105 198.42,0 0,-170.07 -198.42,0"
         style="fill:none;stroke:#000000;stroke-opacity:1;stroke-width:4.72425;stroke-linecap:butt;stroke-linejoin:miter;stroke-miterlimit:10;stroke-dasharray:none"
         id="path134" /><path
         d="m 4344.72,318.035 170.074,0 0,170.07 -170.074,0 0,-170.07 z"
         style="fill:none;stroke:#000000;stroke-opacity:1;stroke-width:4.72425;stroke-linecap:butt;stroke-linejoin:miter;stroke-miterlimit:10;stroke-dasharray:none"
         id="path136" /><path
         d="m 4684.86,318.035 170.074,0 0,170.07 -170.074,0 0,-170.07 z"
         style="fill:none;stroke:#000000;stroke-opacity:1;stroke-width:4.72425;stroke-linecap:butt;stroke-linejoin:miter;stroke-miterlimit:10;stroke-dasharray:none"
         id="path138" /><path
         d="m 4854.94,318.035 170.074,0 0,170.07 -170.074,0 0,-170.07 z"
         style="fill:none;stroke:#000000;stroke-opacity:1;stroke-width:4.72425;stroke-linecap:butt;stroke-linejoin:miter;stroke-miterlimit:10;stroke-dasharray:none"
         id="path140" /><path
         d="m 4514.79,318.035 170.07,0 0,170.07 -170.07,0 0,-170.07 z"
         style="fill:none;stroke:#000000;stroke-opacity:1;stroke-width:9.4485;stroke-linecap:butt;stroke-linejoin:miter;stroke-miterlimit:10;stroke-dasharray:37.794;stroke-dashoffset:0"
         id="path142" /><g
         id="g144"><g
           id="g146"
           clip-path="url(#clipPath148)"><path
             d="m 4599.83,318.035 0,-85.039 113.38,0"
             style="fill:none;stroke:#000000;stroke-opacity:1;stroke-width:4.72425;stroke-linecap:butt;stroke-linejoin:miter;stroke-miterlimit:10;stroke-dasharray:none"
             id="path152" /></g></g><path
         d="m 4680.46,214.102 28.34,18.894 -28.34,18.899 0,-37.793"
         style="fill:#000000;fill-opacity:1;fill-rule:evenodd;stroke:none"
         id="path154" /><path
         d="m 4680.46,214.102 28.34,18.894 -28.34,18.899 0,-37.793 z"
         style="fill:none;stroke:#000000;stroke-opacity:1;stroke-width:4.72425;stroke-linecap:butt;stroke-linejoin:miter;stroke-miterlimit:10;stroke-dasharray:none"
         id="path156" /><g
         id="g160"
         transform="scale(10,10)"><text
           transform="matrix(1,0,0,-1,128.34,142.351)"
           id="text162"><tspan
             style="font-variant:normal;font-weight:normal;font-size:9.00000954px;font-family:Helvetica;-inkscape-font-specification:Helvetica;writing-mode:lr-tb;fill:#000000;fill-opacity:1;fill-rule:nonzero;stroke:none"
             x="0"
             sodipodi:role="line"
             id="tspan164"
             y="0" /><tspan
             style="font-variant:normal;font-weight:normal;font-size:9.00000954px;font-family:Helvetica;-inkscape-font-specification:Helvetica;writing-mode:lr-tb;fill:#000000;fill-opacity:1;fill-rule:nonzero;stroke:none"
             x="0 5.0040054 10.008011"
             y="11.3383"
             sodipodi:role="line"
             id="tspan3464" /><tspan
             style="font-variant:normal;font-weight:normal;font-size:9.00000954px;font-family:Helvetica;-inkscape-font-specification:Helvetica;writing-mode:lr-tb;fill:#000000;fill-opacity:1;fill-rule:nonzero;stroke:none"
             x="0"
             y="22.500023"
             sodipodi:role="line"
             id="tspan168" /><tspan
             style="font-variant:normal;font-weight:normal;font-size:9.00000954px;font-family:Helvetica;-inkscape-font-specification:Helvetica;writing-mode:lr-tb;fill:#000000;fill-opacity:1;fill-rule:nonzero;stroke:none"
             x="-93.539803 -87.041794 -81.038788 -78.536781 -76.034782 -73.532776 -69.032776 -64.02877 -62.030766"
             y="11.3383"
             sodipodi:role="line"
             id="tspan170">CPI: solo</tspan><tspan
             style="font-variant:normal;font-weight:normal;font-size:9.00000954px;font-family:Helvetica;-inkscape-font-specification:Helvetica;writing-mode:lr-tb;fill:#000000;fill-opacity:1;fill-rule:nonzero;stroke:none"
             x="0"
             y="0"
             sodipodi:role="line"
             id="tspan172" /></text>
<text
           transform="matrix(1,0,0,-1,227.54906,88.4944)"
           id="text174"><tspan
             style="fill:#000000;fill-opacity:1;fill-rule:nonzero;stroke:none;font-family:Helvetica;font-style:oblique;font-variant:normal;font-size:7.00008;writing-mode:lr;-inkscape-font-specification:Helvetica-Oblique"
             x="0 116.21672818"
             y="0"
             sodipodi:role="line"
             id="tspan176">TH</tspan></text>
<text
           transform="matrix(1,0,0,-1,210.54166,79.99049)"
           id="text178"><tspan
             style="font-size:7.00008011px;font-variant:normal;font-weight:normal;writing-mode:lr-tb;fill:#000000;fill-opacity:1;fill-rule:nonzero;stroke:none;font-family:Helvetica;-inkscape-font-specification:Helvetica"
             x="79.367607 83.259651 85.205673 62.360199 66.252243 68.198265 28.345699 32.237743 34.183765 45.353165 49.245209 51.191231 96.375069 100.26711 102.21313 113.38211 117.27415 119.22018"
             sodipodi:role="line"
             id="tspan180">2.12.12.02.02.02.0</tspan></text>
<text
           transform="matrix(1,0,0,-1,408.96036,88.4944)"
           id="text182"><tspan
             style="fill:#000000;fill-opacity:1;fill-rule:nonzero;stroke:none;font-family:Helvetica;font-style:oblique;font-variant:normal;font-size:7.00008;writing-mode:lr;-inkscape-font-specification:Helvetica-Oblique"
             x="0 116.21672818"
             y="0"
             sodipodi:role="line"
             id="tspan184">TH</tspan></text>
<text
           transform="matrix(1,0,0,-1,391.95296,79.99049)"
           id="text186"><tspan
             style="font-size:7.00008011px;font-variant:normal;font-weight:normal;writing-mode:lr-tb;fill:#000000;fill-opacity:1;fill-rule:nonzero;stroke:none;font-family:Helvetica;-inkscape-font-specification:Helvetica"
             x="79.367607 83.259651 85.205673 62.360199 66.252243 68.198265 28.345699 32.237743 34.183765 45.352745 49.244789 51.190811 96.37458 100.26662 102.21265 113.38197 117.27402 119.22004"
             sodipodi:role="line"
             id="tspan188">2.12.12.02.02.02.0</tspan><tspan
             style="font-size:7.00008011px;font-variant:normal;font-weight:normal;writing-mode:lr-tb;fill:#000000;fill-opacity:1;fill-rule:nonzero;stroke:none;font-family:Helvetica;-inkscape-font-specification:Helvetica"
             x="-297.62729 -297.62729"
             y="45.352699 45.352699"
             sodipodi:role="line"
             id="tspan190" /><tspan
             style="font-size:7.00008011px;font-variant:normal;font-weight:normal;writing-mode:lr-tb;fill:#000000;fill-opacity:1;fill-rule:nonzero;stroke:none;font-family:Helvetica;-inkscape-font-specification:Helvetica"
             x="-130.38831 -125.71925 -119.88818 -114.83412 -112.8881 -108.99606 -105.10401 -101.21197 -97.319923 -93.427879"
             y="-65.195297"
             sodipodi:role="line"
             id="tspan192">PMU queues</tspan></text>
<text
           transform="matrix(1,0,0,-1,227.54986,131.01279)"
           id="text194"><tspan
             style="fill:#000000;fill-opacity:1;fill-rule:nonzero;stroke:none;font-family:Helvetica;font-style:oblique;font-variant:normal;font-size:7.00008;writing-mode:lr;-inkscape-font-specification:Helvetica-Oblique"
             x="0 116.21672818"
             y="0"
             sodipodi:role="line"
             id="tspan196">TH</tspan></text>
<text
           transform="matrix(1,0,0,-1,210.54246,122.50927)"
           id="text198"><tspan
             style="font-size:7.00008011px;font-variant:normal;font-weight:normal;writing-mode:lr-tb;fill:#000000;fill-opacity:1;fill-rule:nonzero;stroke:none;font-family:Helvetica;-inkscape-font-specification:Helvetica"
             x="45.3531 49.245144 51.191166 28.345699 32.237743 34.183765 62.360138 66.252182 68.198204 79.367599 83.259651 85.205673 96.375069 100.26711 102.21313 113.38211 117.27415 119.22018"
             sodipodi:role="line"
             id="tspan200">1.05.03.52.56.03.5</tspan></text>
<text
           transform="matrix(1,0,0,-1,267.23346,105.50187)"
           id="text202"><tspan
             style="font-size:7.00008011px;font-style:oblique;font-variant:normal;writing-mode:lr-tb;fill:#000000;fill-opacity:1;fill-rule:nonzero;stroke:none;font-family:Helvetica;-inkscape-font-specification:Helvetica-Oblique"
             x="0"
             y="0"
             sodipodi:role="line"
             id="tspan3271" /><tspan
             style="font-size:7.00008011px;font-style:oblique;font-variant:normal;writing-mode:lr-tb;fill:#000000;fill-opacity:1;fill-rule:nonzero;stroke:none;font-family:Helvetica;-inkscape-font-specification:Helvetica-Oblique"
             x="-39.683601 76.533127"
             y="59.525398"
             sodipodi:role="line"
             id="tspan206">TH</tspan></text>
<text
           transform="matrix(1,0,0,-1,210.54246,37.47295)"
           id="text208"><tspan
             style="font-size:7.00008011px;font-variant:normal;font-weight:normal;writing-mode:lr-tb;fill:#000000;fill-opacity:1;fill-rule:nonzero;stroke:none;font-family:Helvetica;-inkscape-font-specification:Helvetica"
             x="45.353168 49.245213 51.191235 28.345699 32.237743 34.183765 96.375 100.26704 102.21307 79.367599 83.259644 85.205666 62.360199 66.252243 68.198265 113.3821 117.27415 119.22017"
             sodipodi:role="line"
             id="tspan210">1.01.21.01.15.01.0</tspan></text>
<text
           transform="scale(1,-1)"
           id="text212"
           x="238.96977"
           y="-62.235928"><tspan
             style="font-size:7.00008011px;font-style:oblique;font-variant:normal;writing-mode:lr-tb;fill:#000000;fill-opacity:1;fill-rule:nonzero;stroke:none;font-family:Helvetica;-inkscape-font-specification:Helvetica-Oblique"
             x="238.96977"
             y="-62.235928"
             sodipodi:role="line"
             id="tspan214">Neither spike nor phase change</tspan></text>
<text
           id="text216"
           transform="matrix(1,0,0,-1,230.38464,3.45805)"><tspan
             style="font-variant:normal;font-weight:normal;font-size:9.00000954px;font-family:Helvetica;-inkscape-font-specification:Helvetica;writing-mode:lr-tb;fill:#000000;fill-opacity:1;fill-rule:nonzero;stroke:none"
             x="0 2.9970033 8.001009 10.998013 13.500015 19.503021 22.005024 27.009029 32.013035 34.515038 39.519043 42.021046 42.021046"
             y="0"
             sodipodi:role="line"
             id="tspan218">(b) Step 2:  Spike eslimination</tspan></text>
<text
           transform="matrix(1,0,0,-1,295.57914,20.46545)"
           id="text220"><tspan
             style="font-size:7.00008011px;font-style:oblique;font-variant:normal;writing-mode:lr-tb;fill:#000000;fill-opacity:1;fill-rule:nonzero;stroke:none;font-family:Helvetica;-inkscape-font-specification:Helvetica-Oblique"
             x="0"
             y="0"
             sodipodi:role="line"
             id="tspan222">Spike</tspan></text>
<text
           transform="matrix(1,0,0,-1,442.97514,145.18545)"
           id="text224"><tspan
             style="fill:#000000;fill-opacity:1;fill-rule:nonzero;stroke:none;font-family:Helvetica;font-variant:normal;font-weight:normal;font-size:7.00008;writing-mode:lr;-inkscape-font-specification:Helvetica"
             x="0 4.66905336 10.50012 15.55417776 17.5002 21.39224448 25.28428896 29.17633344 33.06837792 36.9604224"
             y="0"
             sodipodi:role="line"
             id="tspan226">PMU queues</tspan></text>
<text
           transform="matrix(1,0,0,-1,408.96064,131.01245)"
           id="text228"><tspan
             style="fill:#000000;fill-opacity:1;fill-rule:nonzero;stroke:none;font-family:Helvetica;font-style:oblique;font-variant:normal;font-size:7.00008;writing-mode:lr;-inkscape-font-specification:Helvetica-Oblique"
             x="0 116.21672818"
             y="0"
             sodipodi:role="line"
             id="tspan230">TH</tspan></text>
<text
           transform="matrix(1,0,0,-1,391.95324,122.50893)"
           id="text232"><tspan
             style="font-size:7.00008011px;font-variant:normal;font-weight:normal;writing-mode:lr-tb;fill:#000000;fill-opacity:1;fill-rule:nonzero;stroke:none;font-family:Helvetica;-inkscape-font-specification:Helvetica"
             x="45.352749 49.244793 51.190815 28.345699 32.237743 34.183765 62.360138 66.252182 68.198204 79.367531 83.259575 85.205597 96.37458 100.26662 102.21265 113.38197 117.27402 119.22004"
             sodipodi:role="line"
             id="tspan234">1.05.03.52.56.03.5</tspan></text>
<text
           transform="matrix(1,0,0,-1,448.64424,105.50153)"
           id="text236"><tspan
             style="font-size:7.00008011px;font-style:oblique;font-variant:normal;writing-mode:lr-tb;fill:#000000;fill-opacity:1;fill-rule:nonzero;stroke:none;font-family:Helvetica;-inkscape-font-specification:Helvetica-Oblique"
             x="0"
             y="0"
             sodipodi:role="line"
             id="tspan238">No phase change</tspan><tspan
             style="font-size:7.00008011px;font-style:oblique;font-variant:normal;writing-mode:lr-tb;fill:#000000;fill-opacity:1;fill-rule:nonzero;stroke:none;font-family:Helvetica;-inkscape-font-specification:Helvetica-Oblique"
             x="-39.683601 76.533127"
             y="59.525398"
             sodipodi:role="line"
             id="tspan240">TH</tspan></text>
<text
           transform="matrix(1,0,0,-1,391.95324,37.47261)"
           id="text242"><tspan
             style="font-variant:normal;font-weight:normal;font-size:7.00008011px;font-family:Helvetica;-inkscape-font-specification:Helvetica;writing-mode:lr-tb;fill:#000000;fill-opacity:1;fill-rule:nonzero;stroke:none"
             x="45.352749 49.244793 51.190815 28.345699 32.237743 34.183765 62.360138 66.252182 68.198204 96.37458 100.26662 102.21265 79.367599 83.259644 85.205666"
             sodipodi:role="line"
             id="tspan244">8.08.08.01.01.2</tspan></text>
<text
           transform="matrix(1,0,0,-1,448.64424,62.98351)"
           id="text246"><tspan
             style="font-size:7.00008011px;font-style:oblique;font-variant:normal;writing-mode:lr-tb;fill:#000000;fill-opacity:1;fill-rule:nonzero;stroke:none;font-family:Helvetica;-inkscape-font-specification:Helvetica-Oblique"
             x="0"
             y="0"
             sodipodi:role="line"
             id="tspan248">No phase change</tspan></text>
<text
           transform="matrix(1,0,0,-1,476.98994,20.46511)"
           id="text254"><tspan
             style="font-size:7.00008011px;font-style:oblique;font-variant:normal;writing-mode:lr-tb;fill:#000000;fill-opacity:1;fill-rule:nonzero;stroke:none;font-family:Helvetica;-inkscape-font-specification:Helvetica-Oblique"
             x="0"
             sodipodi:role="line"
             id="tspan256"
             y="0">Phase change</tspan></text>
<text
           transform="scale(1,-1)"
           id="text3524"
           x="411.96967"
           y="-4.3065782"><tspan
             id="tspan3526"
             sodipodi:role="line"
             y="-4.3065782"
             x="411.96967"
             style="font-variant:normal;font-weight:normal;font-size:9.00000954px;font-family:Helvetica;-inkscape-font-specification:Helvetica;writing-mode:lr-tb;fill:#000000;fill-opacity:1;fill-rule:nonzero;stroke:none">(c) Step 3: Phase detection</tspan></text>
<text
           xml:space="preserve"
           style="font-style:normal;font-weight:normal;font-size:7.02759314px;line-height:125%;font-family:sans-serif;letter-spacing:0px;word-spacing:0px;fill:#000000;fill-opacity:1;stroke:none;stroke-width:1px;stroke-linecap:butt;stroke-linejoin:miter;stroke-opacity:1"
           x="523.77332"
           y="-36.196316"
           id="text3528"
           sodipodi:linespacing="125%"
           transform="scale(0.96499741,-1.0362722)"><tspan
             sodipodi:role="line"
             id="tspan3530"
             x="523.77332"
             y="-36.196316">1.1</tspan></text>
<text
           transform="scale(1,-1)"
           id="text3503"
           x="25.69714"
           y="-4.3955498"><tspan
             sodipodi:role="line"
             y="-4.3955498"
             x="25.69714"
             style="font-variant:normal;font-weight:normal;font-size:9.00000954px;font-family:Helvetica;-inkscape-font-specification:Helvetica;writing-mode:lr-tb;fill:#000000;fill-opacity:1;fill-rule:nonzero;stroke:none"
             id="tspan3507">(a) Step 1: Events measurement</tspan></text>
</g><text
         style="font-size:120px"
         y="-1072.3885"
         x="2442.0183"
         id="text202-8"
         transform="scale(1,-1)"><tspan
           style="font-size:70.00080109px;font-style:oblique;font-variant:normal;writing-mode:lr-tb;fill:#000000;fill-opacity:1;fill-rule:nonzero;stroke:none;font-family:Helvetica;-inkscape-font-specification:Helvetica-Oblique"
           x="2442.0183"
           y="-1072.3885"
           sodipodi:role="line"
           id="tspan3271-4">Erractic  PMU measurements </tspan><tspan
           style="font-size:70.00080109px;font-style:oblique;font-variant:normal;writing-mode:lr-tb;fill:#000000;fill-opacity:1;fill-rule:nonzero;stroke:none;font-family:Helvetica;-inkscape-font-specification:Helvetica-Oblique"
           x="2442.0183"
           y="-984.88757"
           sodipodi:role="line"
           id="tspan206-6" /><tspan
           style="font-size:70.00080109px;font-style:oblique;font-variant:normal;writing-mode:lr-tb;fill:#000000;fill-opacity:1;fill-rule:nonzero;stroke:none;font-family:Helvetica;-inkscape-font-specification:Helvetica-Oblique"
           x="2442.0183"
           y="-897.38654"
           sodipodi:role="line"
           id="tspan3315" /></text>
<text
         xml:space="preserve"
         style="font-size:70.09559631px;font-style:normal;font-variant:normal;font-weight:normal;font-stretch:normal;text-align:center;line-height:125%;letter-spacing:0px;word-spacing:0px;writing-mode:lr-tb;text-anchor:middle;fill:#000000;fill-opacity:1;stroke:none;font-family:Sans;-inkscape-font-specification:Sans"
         x="2279.6128"
         y="-1124.0896"
         id="text3336"
         sodipodi:linespacing="125%"
         transform="scale(0.92295599,-1.0834753)"><tspan
           sodipodi:role="line"
           id="tspan3338"
           x="2279.6128"
           y="-1124.0896">CPI: co-run</tspan></text>
<text
         xml:space="preserve"
         style="font-size:70.09559631px;font-style:normal;font-variant:normal;font-weight:normal;font-stretch:normal;text-align:center;line-height:125%;letter-spacing:0px;word-spacing:0px;writing-mode:lr-tb;text-anchor:middle;fill:#000000;fill-opacity:1;stroke:none;font-family:Sans;-inkscape-font-specification:Sans"
         x="4218.9443"
         y="-1134.1874"
         id="text3336-6"
         sodipodi:linespacing="125%"
         transform="scale(0.92295598,-1.0834753)"><tspan
           sodipodi:role="line"
           id="tspan3338-7"
           x="4218.9443"
           y="-1134.1874">CPI: co-run</tspan></text>
<text
         xml:space="preserve"
         style="font-size:70.09559631px;font-style:normal;font-variant:normal;font-weight:normal;font-stretch:normal;text-align:center;line-height:125%;letter-spacing:0px;word-spacing:0px;writing-mode:lr-tb;text-anchor:middle;fill:#000000;fill-opacity:1;stroke:none;font-family:Sans;-inkscape-font-specification:Sans"
         x="2282.1948"
         y="-730.36218"
         id="text3336-66"
         sodipodi:linespacing="125%"
         transform="scale(0.92295598,-1.0834753)"><tspan
           sodipodi:role="line"
           id="tspan3338-6"
           x="2282.1948"
           y="-730.36218">L1D: co-run</tspan></text>
<text
         xml:space="preserve"
         style="font-size:70.09559631px;font-style:normal;font-variant:normal;font-weight:normal;font-stretch:normal;text-align:center;line-height:125%;letter-spacing:0px;word-spacing:0px;writing-mode:lr-tb;text-anchor:middle;fill:#000000;fill-opacity:1;stroke:none;font-family:Sans;-inkscape-font-specification:Sans"
         x="2292.8782"
         y="-337.35352"
         id="text3336-66-4"
         sodipodi:linespacing="125%"
         transform="scale(0.92295598,-1.0834753)"><tspan
           sodipodi:role="line"
           id="tspan3338-6-9"
           x="2292.8782"
           y="-337.35352">LLC: co-run</tspan></text>
<text
         xml:space="preserve"
         style="font-size:70.09559631px;font-style:normal;font-variant:normal;font-weight:normal;font-stretch:normal;text-align:center;line-height:125%;letter-spacing:0px;word-spacing:0px;writing-mode:lr-tb;text-anchor:middle;fill:#000000;fill-opacity:1;stroke:none;font-family:Sans;-inkscape-font-specification:Sans"
         x="4237.7314"
         y="-340.34299"
         id="text3336-66-4-0"
         sodipodi:linespacing="125%"
         transform="scale(0.92295598,-1.0834753)"><tspan
           sodipodi:role="line"
           id="tspan3338-6-9-6"
           x="4237.7314"
           y="-340.34299">LLC: co-run</tspan></text>
<text
         xml:space="preserve"
         style="font-size:70.09559631px;font-style:normal;font-variant:normal;font-weight:normal;font-stretch:normal;text-align:center;line-height:125%;letter-spacing:0px;word-spacing:0px;writing-mode:lr-tb;text-anchor:middle;fill:#000000;fill-opacity:1;stroke:none;font-family:Sans;-inkscape-font-specification:Sans"
         x="4225.5762"
         y="-737.72723"
         id="text3336-66-2"
         sodipodi:linespacing="125%"
         transform="scale(0.92295598,-1.0834753)"><tspan
           sodipodi:role="line"
           id="tspan3338-6-1"
           x="4225.5762"
           y="-737.72723">L1D: co-run</tspan></text>
<text
         xml:space="preserve"
         style="font-size:82.40052795px;font-style:normal;font-variant:normal;font-weight:normal;font-stretch:normal;text-align:center;line-height:125%;letter-spacing:0px;word-spacing:0px;writing-mode:lr-tb;text-anchor:middle;fill:#000000;fill-opacity:1;stroke:none;font-family:Sans;-inkscape-font-specification:Sans"
         x="845.85468"
         y="-305.2847"
         id="text3466"
         sodipodi:linespacing="125%"
         transform="scale(0.98690445,-1.0132693)"><tspan
           sodipodi:role="line"
           id="tspan3468"
           x="845.85468"
           y="-305.2847">Spike</tspan></text>
<text
         xml:space="preserve"
         style="font-size:88.35353851px;font-style:normal;font-variant:normal;font-weight:normal;font-stretch:normal;text-align:center;line-height:125%;letter-spacing:0px;word-spacing:0px;writing-mode:lr-tb;text-anchor:middle;fill:#000000;fill-opacity:1;stroke:none;font-family:Sans;-inkscape-font-specification:Sans"
         x="1407.0031"
         y="-1170.7839"
         id="text3470"
         sodipodi:linespacing="125%"
         transform="scale(0.98086682,-1.0195064)"><tspan
           sodipodi:role="line"
           id="tspan3472"
           x="1407.0031"
           y="-1170.7839">CPI: co-run</tspan></text>
<text
         xml:space="preserve"
         style="font-size:88.35353851px;font-style:normal;font-variant:normal;font-weight:normal;font-stretch:normal;text-align:center;line-height:125%;letter-spacing:0px;word-spacing:0px;writing-mode:lr-tb;text-anchor:middle;fill:#000000;fill-opacity:1;stroke:none;font-family:Sans;-inkscape-font-specification:Sans"
         x="1413.8688"
         y="-1389.212"
         id="text3470-3"
         sodipodi:linespacing="125%"
         transform="scale(0.98086681,-1.0195064)"><tspan
           sodipodi:role="line"
           id="tspan3472-7"
           x="1413.8688"
           y="-1389.212">L1D: co-run</tspan></text>
<text
         xml:space="preserve"
         style="font-size:88.35353851px;font-style:normal;font-variant:normal;font-weight:normal;font-stretch:normal;text-align:center;line-height:125%;letter-spacing:0px;word-spacing:0px;writing-mode:lr-tb;text-anchor:middle;fill:#000000;fill-opacity:1;stroke:none;font-family:Sans;-inkscape-font-specification:Sans"
         x="1410.0562"
         y="-1286.5062"
         id="text3470-3-6"
         sodipodi:linespacing="125%"
         transform="scale(0.98086681,-1.0195064)"><tspan
           sodipodi:role="line"
           id="tspan3472-7-0"
           x="1410.0562"
           y="-1286.5062">LLC: co-run</tspan></text>
</g></g></svg>