<?xml version="1.0" encoding="UTF-8" standalone="no"?>
<!-- Created with Inkscape (http://www.inkscape.org/) -->

<svg
   xmlns:dc="http://purl.org/dc/elements/1.1/"
   xmlns:cc="http://creativecommons.org/ns#"
   xmlns:rdf="http://www.w3.org/1999/02/22-rdf-syntax-ns#"
   xmlns:svg="http://www.w3.org/2000/svg"
   xmlns="http://www.w3.org/2000/svg"
   xmlns:sodipodi="http://sodipodi.sourceforge.net/DTD/sodipodi-0.dtd"
   xmlns:inkscape="http://www.inkscape.org/namespaces/inkscape"
   id="svg3004"
   version="1.1"
   inkscape:version="0.48.3.1 r9886"
   width="390"
   height="131.25"
   xml:space="preserve"
   sodipodi:docname="noise_elimination.pdf"><metadata
     id="metadata3010"><rdf:RDF><cc:Work
         rdf:about=""><dc:format>image/svg+xml</dc:format><dc:type
           rdf:resource="http://purl.org/dc/dcmitype/StillImage" /><dc:title></dc:title></cc:Work></rdf:RDF></metadata><defs
     id="defs3008"><marker
       inkscape:stockid="Arrow2Lstart"
       orient="auto"
       refY="0.0"
       refX="0.0"
       id="Arrow2Lstart"
       style="overflow:visible"><path
         id="path3997"
         style="fill-rule:evenodd;stroke-width:0.62500000;stroke-linejoin:round"
         d="M 8.7185878,4.0337352 L -2.2072895,0.016013256 L 8.7185884,-4.0017078 C 6.9730900,-1.6296469 6.9831476,1.6157441 8.7185878,4.0337352 z "
         transform="scale(1.1) translate(1,0)" /></marker><marker
       inkscape:stockid="Arrow1Sstart"
       orient="auto"
       refY="0.0"
       refX="0.0"
       id="Arrow1Sstart"
       style="overflow:visible"><path
         id="path3991"
         d="M 0.0,0.0 L 5.0,-5.0 L -12.5,0.0 L 5.0,5.0 L 0.0,0.0 z "
         style="fill-rule:evenodd;stroke:#000000;stroke-width:1.0pt"
         transform="scale(0.2) translate(6,0)" /></marker><marker
       inkscape:stockid="Arrow2Mend"
       orient="auto"
       refY="0.0"
       refX="0.0"
       id="Arrow2Mend"
       style="overflow:visible;"><path
         id="path4006"
         style="fill-rule:evenodd;stroke-width:0.62500000;stroke-linejoin:round;"
         d="M 8.7185878,4.0337352 L -2.2072895,0.016013256 L 8.7185884,-4.0017078 C 6.9730900,-1.6296469 6.9831476,1.6157441 8.7185878,4.0337352 z "
         transform="scale(0.6) rotate(180) translate(0,0)" /></marker><marker
       inkscape:stockid="Arrow1Mstart"
       orient="auto"
       refY="0.0"
       refX="0.0"
       id="Arrow1Mstart"
       style="overflow:visible"><path
         id="path3985"
         d="M 0.0,0.0 L 5.0,-5.0 L -12.5,0.0 L 5.0,5.0 L 0.0,0.0 z "
         style="fill-rule:evenodd;stroke:#000000;stroke-width:1.0pt"
         transform="scale(0.4) translate(10,0)" /></marker><marker
       inkscape:stockid="Arrow1Lstart"
       orient="auto"
       refY="0.0"
       refX="0.0"
       id="Arrow1Lstart"
       style="overflow:visible"><path
         id="path3979"
         d="M 0.0,0.0 L 5.0,-5.0 L -12.5,0.0 L 5.0,5.0 L 0.0,0.0 z "
         style="fill-rule:evenodd;stroke:#000000;stroke-width:1.0pt"
         transform="scale(0.8) translate(12.5,0)" /></marker><clipPath
       clipPathUnits="userSpaceOnUse"
       id="clipPath3018"><path
         d="M 0,105 0,0 312,0 312,105 0,105 z m 146.152,-94.629 6.364,0 0,3.781 -6.364,0 4.727,-1.89 -4.727,-1.891 z"
         id="path3020" /></clipPath><clipPath
       clipPathUnits="userSpaceOnUse"
       id="clipPath3026"><path
         d="M 0,0 312,0 312,105 0,105 0,0 z"
         id="path3028" /></clipPath><clipPath
       clipPathUnits="userSpaceOnUse"
       id="clipPath3030"><path
         d="M 0,0 312,0 312,105 0,105 0,0 z"
         id="path3032" /></clipPath><clipPath
       clipPathUnits="userSpaceOnUse"
       id="clipPath3034"><path
         d="m 9,13 143,0 0,-1 -143,0 0,1 z"
         id="path3036" /></clipPath><clipPath
       clipPathUnits="userSpaceOnUse"
       id="clipPath3038"><path
         d="M 0,0 312,0 312,105 0,105 0,0 z"
         id="path3040" /></clipPath><clipPath
       clipPathUnits="userSpaceOnUse"
       id="clipPath3086"><path
         d="M 0,105 0,0 312,0 312,105 0,105 z m 17.402,-15.953 0,6.359 -3.781,0 0,-6.359 1.891,4.723 1.89,-4.723 z"
         id="path3088" /></clipPath><clipPath
       clipPathUnits="userSpaceOnUse"
       id="clipPath3094"><path
         d="M 0,0 312,0 312,105 0,105 0,0 z"
         id="path3096" /></clipPath><clipPath
       clipPathUnits="userSpaceOnUse"
       id="clipPath3098"><path
         d="M 0,0 312,0 312,105 0,105 0,0 z"
         id="path3100" /></clipPath><clipPath
       clipPathUnits="userSpaceOnUse"
       id="clipPath3102"><path
         d="m 15,95 1,0 0,-89 -1,0 0,89 z"
         id="path3104" /></clipPath><clipPath
       clipPathUnits="userSpaceOnUse"
       id="clipPath3106"><path
         d="M 0,0 312,0 312,105 0,105 0,0 z"
         id="path3108" /></clipPath><clipPath
       clipPathUnits="userSpaceOnUse"
       id="clipPath3168"><path
         d="m -381.02,114.914 0,-129.812 760.278,0 0,129.812 -760.278,0 z m 637.649,-53.91 10.285,0 0,4.672 -10.285,0 6.91,-2.336 -6.91,-2.336 z"
         id="path3170" /></clipPath><clipPath
       clipPathUnits="userSpaceOnUse"
       id="clipPath3176"><path
         d="M 0,0 312,0 312,105 0,105 0,0 z"
         id="path3178" /></clipPath><clipPath
       clipPathUnits="userSpaceOnUse"
       id="clipPath3180"><path
         d="M 0,0 312,0 312,105 0,105 0,0 z"
         id="path3182" /></clipPath><clipPath
       clipPathUnits="userSpaceOnUse"
       id="clipPath3184"><path
         d="m 236,74 29,0 0,-11 -29,0 0,11 z"
         id="path3186" /></clipPath><clipPath
       clipPathUnits="userSpaceOnUse"
       id="clipPath3188"><path
         d="M 0,0 312,0 312,105 0,105 0,0 z"
         id="path3190" /></clipPath><clipPath
       clipPathUnits="userSpaceOnUse"
       id="clipPath3302"><path
         d="M 0,57 312,57 312,0 0,0 0,57 z"
         id="path3304" /></clipPath><clipPath
       clipPathUnits="userSpaceOnUse"
       id="clipPath3310"><path
         d="M 0,0 312,0 312,105 0,105 0,0 z"
         id="path3312" /></clipPath><clipPath
       clipPathUnits="userSpaceOnUse"
       id="clipPath3314"><path
         d="m -124.777,56.488 0,-114.082 440.711,0 0,114.082 -440.711,0 z m 369.625,-47.379 5.961,0 0,4.106 -5.961,0 4.004,-2.051 -4.004,-2.055 z"
         id="path3316" /></clipPath><clipPath
       clipPathUnits="userSpaceOnUse"
       id="clipPath3318"><path
         d="M 0,0 312,0 312,105 0,105 0,0 z"
         id="path3320" /></clipPath><clipPath
       clipPathUnits="userSpaceOnUse"
       id="clipPath3322"><path
         d="M 0,0 312,0 312,105 0,105 0,0 z"
         id="path3324" /></clipPath><clipPath
       clipPathUnits="userSpaceOnUse"
       id="clipPath3326"><path
         d="m 233,21 17,0 0,-11 -17,0 0,11 z"
         id="path3328" /></clipPath><clipPath
       clipPathUnits="userSpaceOnUse"
       id="clipPath3330"><path
         d="M 0,0 312,0 312,105 0,105 0,0 z"
         id="path3332" /></clipPath><marker
       inkscape:stockid="Arrow1Sstart"
       orient="auto"
       refY="0"
       refX="0"
       id="Arrow1Sstart-3"
       style="overflow:visible"><path
         inkscape:connector-curvature="0"
         id="path3991-8"
         d="M 0,0 5,-5 -12.5,0 5,5 0,0 z"
         style="fill-rule:evenodd;stroke:#000000;stroke-width:1pt"
         transform="matrix(0.2,0,0,0.2,1.2,0)" /></marker><marker
       inkscape:stockid="Arrow2Mend"
       orient="auto"
       refY="0"
       refX="0"
       id="Arrow2Mend-7"
       style="overflow:visible"><path
         inkscape:connector-curvature="0"
         id="path4006-0"
         style="fill-rule:evenodd;stroke-width:0.625;stroke-linejoin:round"
         d="M 8.7185878,4.0337352 -2.2072895,0.01601326 8.7185884,-4.0017078 c -1.7454984,2.3720609 -1.7354408,5.6174519 -6e-7,8.035443 z"
         transform="scale(-0.6,-0.6)" /></marker><marker
       inkscape:stockid="Arrow1Sstart"
       orient="auto"
       refY="0"
       refX="0"
       id="Arrow1Sstart-2"
       style="overflow:visible"><path
         inkscape:connector-curvature="0"
         id="path3991-9"
         d="M 0,0 5,-5 -12.5,0 5,5 0,0 z"
         style="fill-rule:evenodd;stroke:#000000;stroke-width:1pt"
         transform="matrix(0.2,0,0,0.2,1.2,0)" /></marker><marker
       inkscape:stockid="Arrow2Mend"
       orient="auto"
       refY="0"
       refX="0"
       id="Arrow2Mend-9"
       style="overflow:visible"><path
         inkscape:connector-curvature="0"
         id="path4006-1"
         style="fill-rule:evenodd;stroke-width:0.625;stroke-linejoin:round"
         d="M 8.7185878,4.0337352 -2.2072895,0.01601326 8.7185884,-4.0017078 c -1.7454984,2.3720609 -1.7354408,5.6174519 -6e-7,8.035443 z"
         transform="scale(-0.6,-0.6)" /></marker><marker
       inkscape:stockid="Arrow1Sstart"
       orient="auto"
       refY="0"
       refX="0"
       id="Arrow1Sstart-6"
       style="overflow:visible"><path
         inkscape:connector-curvature="0"
         id="path3991-5"
         d="M 0,0 5,-5 -12.5,0 5,5 0,0 z"
         style="fill-rule:evenodd;stroke:#000000;stroke-width:1pt"
         transform="matrix(0.2,0,0,0.2,1.2,0)" /></marker><marker
       inkscape:stockid="Arrow2Mend"
       orient="auto"
       refY="0"
       refX="0"
       id="Arrow2Mend-2"
       style="overflow:visible"><path
         inkscape:connector-curvature="0"
         id="path4006-3"
         style="fill-rule:evenodd;stroke-width:0.625;stroke-linejoin:round"
         d="M 8.7185878,4.0337352 -2.2072895,0.01601326 8.7185884,-4.0017078 c -1.7454984,2.3720609 -1.7354408,5.6174519 -6e-7,8.035443 z"
         transform="scale(-0.6,-0.6)" /></marker></defs><sodipodi:namedview
     pagecolor="#ffffff"
     bordercolor="#666666"
     borderopacity="1"
     objecttolerance="10"
     gridtolerance="10"
     guidetolerance="10"
     inkscape:pageopacity="0"
     inkscape:pageshadow="2"
     inkscape:window-width="1920"
     inkscape:window-height="1056"
     id="namedview3006"
     showgrid="false"
     inkscape:zoom="3.1487179"
     inkscape:cx="137.82813"
     inkscape:cy="37.788622"
     inkscape:window-x="0"
     inkscape:window-y="24"
     inkscape:window-maximized="1"
     inkscape:current-layer="g3226"
     inkscape:snap-bbox="false"
     inkscape:snap-global="true" /><g
     id="g3012"
     inkscape:groupmode="layer"
     inkscape:label="noise_elimination"
     transform="matrix(1.25,0,0,-1.25,0,131.25)"><g
       id="g3076"><path
         d="m 146.152,10.371 4.727,1.891 -4.727,1.89 0,-3.781"
         style="fill:#000000;fill-opacity:1;fill-rule:evenodd;stroke:none"
         id="path3078" /><path
         d="m 146.152,10.371 4.727,1.891 -4.727,1.89 0,-3.781 z"
         style="fill:none;stroke:#000000;stroke-opacity:1;stroke-width:0.472425;stroke-linecap:butt;stroke-linejoin:miter;stroke-miterlimit:10;stroke-dasharray:none"
         id="path3080" /></g><g
       id="g3142"><path
         d="m 17.402,89.047 -1.89,4.723 -1.891,-4.723 3.781,0"
         style="fill:#000000;fill-opacity:1;fill-rule:evenodd;stroke:none"
         id="path3144" /><path
         d="m 17.402,89.047 -1.89,4.723 -1.891,-4.723 3.781,0 z"
         style="fill:none;stroke:#000000;stroke-opacity:1;stroke-width:0.472425;stroke-linecap:butt;stroke-linejoin:miter;stroke-miterlimit:10;stroke-dasharray:none"
         id="path3146" /><path
         d="m 244.895,91.652 17.004,0 0,-17.008 -17.004,0 0,17.008 z"
         style="fill:none;stroke:#000000;stroke-opacity:1;stroke-width:0.472425;stroke-linecap:butt;stroke-linejoin:miter;stroke-miterlimit:10;stroke-dasharray:none"
         id="path3148" /><path
         d="m 262.117,91.629 17.008,0 0,-17.008 -17.008,0 0,17.008 z"
         style="fill:none;stroke:#000000;stroke-opacity:1;stroke-width:0.472425;stroke-linecap:butt;stroke-linejoin:miter;stroke-miterlimit:10;stroke-dasharray:none"
         id="path3150" /><path
         d="m 279.125,91.629 19.84,0 0,-17.008 -19.84,0 0,17.008 z"
         style="fill:none;stroke:#000000;stroke-opacity:1;stroke-width:0.472425;stroke-linecap:butt;stroke-linejoin:miter;stroke-miterlimit:10;stroke-dasharray:none"
         id="path3152" /><path
         d="m 172.688,91.934 19.84,0 0,-17.008 -19.84,0 0,17.008 z"
         style="fill:none;stroke:#000000;stroke-opacity:1;stroke-width:0.472425;stroke-linecap:butt;stroke-linejoin:miter;stroke-miterlimit:10;stroke-dasharray:none"
         id="path3154" /><path
         d="m 227.168,91.945 17.008,0 0,-17.008 -17.008,0 0,17.008 z"
         style="fill:none;stroke:#000000;stroke-opacity:1;stroke-width:0.94485;stroke-linecap:butt;stroke-linejoin:miter;stroke-miterlimit:10;stroke-dasharray:3.7794,3.7794;stroke-dashoffset:0"
         id="path3156" /><path
         d="m 245.109,37.773 17.008,0 0,-17.008 -17.008,0 0,17.008 z"
         style="fill:none;stroke:#000000;stroke-opacity:1;stroke-width:0.472425;stroke-linecap:butt;stroke-linejoin:miter;stroke-miterlimit:10;stroke-dasharray:none"
         id="path3158" /><path
         d="m 279.125,37.773 19.84,0 0,-17.008 -19.84,0 0,17.008 z"
         style="fill:none;stroke:#000000;stroke-opacity:1;stroke-width:0.472425;stroke-linecap:butt;stroke-linejoin:miter;stroke-miterlimit:10;stroke-dasharray:none"
         id="path3160" /><path
         d="m 192.582,91.898 17.008,0 0,-17.008 -17.008,0 0,17.008 z"
         style="fill:none;stroke:#000000;stroke-opacity:1;stroke-width:0.472425;stroke-linecap:butt;stroke-linejoin:miter;stroke-miterlimit:10;stroke-dasharray:none"
         id="path3162" /></g><g
       id="g3164"><g
         id="g3166"
         clip-path="url(#clipPath3168)"><g
           id="g3172"><g
             id="g3174" /><g
             id="g3192"><g
               clip-path="url(#clipPath3176)"
               id="g3194"><g
                 id="g3196"><g
                   id="g3198"><g
                     id="g3200" /><g
                     id="g3202"><g
                       clip-path="url(#clipPath3180)"
                       id="g3204"><g
                         id="g3206" /><g
                         id="g3208"><g
                           clip-path="url(#clipPath3184)"
                           id="g3210"><g
                             id="g3212"><g
                               id="g3214" /><g
                               id="g3216"><g
                                 clip-path="url(#clipPath3188)"
                                 id="g3218"><g
                                   id="g3220"><g
                                   transform="matrix(1,0,0,0.507361,0,105)"
                                   id="g3222"><path
                                   d="m 236.98,-61.393 0,-20.718 27.633,0"
                                   style="fill:none;stroke:#000000;stroke-opacity:1;stroke-width:1.151202;stroke-linecap:butt;stroke-linejoin:miter;stroke-miterlimit:10;stroke-dasharray:none"
                                   id="path3224" /></g></g></g></g></g></g></g></g></g></g></g></g></g></g></g></g><g
       id="g3226"><path
   d="m 261.781,61.219 2.836,1.886 -2.836,1.891 0,-3.777"
   style="fill:#000000;fill-opacity:1;fill-rule:evenodd;stroke:none"
   id="path3228" /><path
   d="m 261.676,61.395 2.836,1.89 -2.836,1.887 0,-3.777 z"
   style="fill:none;stroke:#000000;stroke-opacity:1;stroke-width:0.472425;stroke-linecap:butt;stroke-linejoin:miter;stroke-miterlimit:10;stroke-dasharray:none"
   id="path3230" /><path
   d="m 262.117,37.773 17.008,0 0,-17.008 -17.008,0 0,17.008 z"
   style="fill:none;stroke:#000000;stroke-opacity:1;stroke-width:0.472425;stroke-linecap:butt;stroke-linejoin:miter;stroke-miterlimit:10;stroke-dasharray:none"
   id="path3232" /><path
   d="m 193.391,37.633 17.008,0 0,-17.008 -17.008,0 0,17.008 z"
   style="fill:none;stroke:#000000;stroke-opacity:1;stroke-width:0.472425;stroke-linecap:butt;stroke-linejoin:miter;stroke-miterlimit:10;stroke-dasharray:none"
   id="path3234" /><path
   d="m 173.551,37.633 19.84,0 0,-17.008 -19.84,0 0,17.008 z"
   style="fill:none;stroke:#000000;stroke-opacity:1;stroke-width:0.472425;stroke-linecap:butt;stroke-linejoin:miter;stroke-miterlimit:10;stroke-dasharray:none"
   id="path3236" /><path
   d="m 228.102,37.773 17.008,0 0,-17.008 -17.008,0 0,17.008 z"
   style="fill:none;stroke:#000000;stroke-opacity:1;stroke-width:0.94485;stroke-linecap:butt;stroke-linejoin:miter;stroke-miterlimit:10;stroke-dasharray:3.7794,3.7794;stroke-dashoffset:0"
   id="path3238" /><text
   transform="matrix(0,1,1,0,0,0)"
   id="text3240"
   x="43.306606"
   y="10.942923"><tspan
     style="font-size:7.00008011px;font-variant:normal;font-weight:normal;writing-mode:lr-tb;fill:#000000;fill-opacity:1;fill-rule:nonzero;stroke:none;font-family:Nimbus Sans L;-inkscape-font-specification:NimbusSansL"
     x="43.306606"
     y="10.942923"
     sodipodi:role="line"
     id="tspan3242">CPI</tspan></text>



<text
   transform="matrix(1,0,0,-0.98060679,77.377349,2.399592)"
   id="text3244"><tspan
     style="fill:#000000;fill-opacity:1;fill-rule:nonzero;stroke:none;font-family:Nimbus Sans L;font-variant:normal;font-weight:normal;font-size:7.00008;writing-mode:lr;-inkscape-font-specification:NimbusSansL"
     x="0 4.27704888 5.83106664 11.66213328"
     y="0"
     sodipodi:role="line"
     id="tspan3246">Time</tspan><tspan
     style="fill:#000000;fill-opacity:1;fill-rule:nonzero;stroke:none;font-family:Nimbus Sans L;font-variant:normal;font-weight:normal;font-size:7.00008;writing-mode:lr;-inkscape-font-specification:NimbusSansL"
     x="138.89300433 143.55505761 149.38612425 156.38620425 160.27824873 164.17029321 168.06233769 171.95438217 177.78544881 179.72447097 183.61651545 187.89356433 192.95462217 197.61667545"
     y="-96.374602"
     sodipodi:role="line"
     id="tspan3248">PMUqueueforCPI</tspan></text>



<text
   transform="matrix(1,0,0,-0.88338493,167.70093,90.394544)"
   id="text3250"><tspan
     style="fill:#000000;fill-opacity:1;fill-rule:nonzero;stroke:none;font-family:Nimbus Sans L;font-variant:normal;font-weight:normal;font-size:7.924156;writing-mode:lr;-inkscape-font-specification:NimbusSansL"
     x="0 131.55839105"
     y="0"
     sodipodi:role="line"
     id="tspan3252">TH</tspan></text>



<text
   transform="matrix(1,0,0,-1,264.9516,60.448837)"
   id="text3254"><tspan
     style="fill:#000000;fill-opacity:1;fill-rule:nonzero;stroke:none;font-family:Nimbus Sans L;font-variant:normal;font-weight:normal;font-size:7.00008;writing-mode:lr;-inkscape-font-specification:NimbusSansL"
     x="0 4.66205328 8.55409776 12.44614224 15.94618224 21.78424896 25.28428896 29.17633344 33.06837792 36.9604224 40.85246688"
     y="0"
     sodipodi:role="line"
     id="tspan3256">Phasechange</tspan><tspan
     style="fill:#000000;fill-opacity:1;fill-rule:nonzero;stroke:none;font-family:Nimbus Sans L;font-variant:normal;font-weight:normal;font-size:7.00008;writing-mode:lr;-inkscape-font-specification:NimbusSansL"
     x="17.00699536 20.89903984 22.838062 -0.00319904 3.88884544 5.8278676 -51.02230211 -47.13025763 -45.19123547 -68.03249651 -64.14045203 -62.20142987 -34.02610787 -30.13406339 -28.19504123 -17.02291355 -13.13086907 -11.19184691"
     y="34.014502"
     sodipodi:role="line"
     id="tspan3258">3.03.03.03.06.53.1</tspan><tspan
     style="fill:#000000;fill-opacity:1;fill-rule:nonzero;stroke:none;font-family:Nimbus Sans L;font-variant:normal;font-weight:normal;font-size:7.00008;writing-mode:lr;-inkscape-font-specification:NimbusSansL"
     x="-12.19985843 -7.53780515 -3.64576067 -2.07074267 1.42929733"
     y="51.514702"
     sodipodi:role="line"
     id="tspan3260">Spike</tspan></text>



<text
   transform="matrix(1,0,0,-0.86926686,168.41482,38.460662)"
   id="text3262"><tspan
     style="fill:#000000;fill-opacity:1;fill-rule:nonzero;stroke:none;font-family:Nimbus Sans L;font-variant:normal;font-weight:normal;font-size:8.052855;writing-mode:lr;-inkscape-font-specification:NimbusSansL"
     x="0 133.69509318"
     y="0"
     sodipodi:role="line"
     id="tspan3264">TH</tspan></text>



<path
   d="M 57.898,53.316 57.953,42.375"
   style="fill:none;stroke:#000000;stroke-opacity:1;stroke-width:0.4704;stroke-linecap:butt;stroke-linejoin:miter;stroke-miterlimit:10;stroke-dasharray:0.9408,0.4704;stroke-dashoffset:0"
   id="path3266" /><path
   d="m 209.648,91.906 17.008,0 0,-17.008 -17.008,0 0,17.008 z"
   style="fill:none;stroke:#000000;stroke-opacity:1;stroke-width:0.472425;stroke-linecap:butt;stroke-linejoin:miter;stroke-miterlimit:10;stroke-dasharray:none"
   id="path3268" /><text
   transform="matrix(0.87547144,0,0,-1,178.21034,80.545942)"
   id="text3270"><tspan
     style="fill:#000000;fill-opacity:1;fill-rule:nonzero;stroke:none;font-family:DejaVu Sans;font-variant:normal;font-weight:normal;font-size:7.314009;writing-mode:lr;-inkscape-font-specification:DejaVuSans"
     x="0 4.64439571 6.94830855"
     y="0"
     sodipodi:role="line"
     id="tspan3272">3.0</tspan><tspan
     style="fill:#000000;fill-opacity:1;fill-rule:nonzero;stroke:none;font-family:DejaVu Sans;font-variant:normal;font-weight:normal;font-size:7.314009;writing-mode:lr;-inkscape-font-specification:DejaVuSans"
     x="20.07158622 24.71598194 27.01989477"
     y="-0.057887017"
     sodipodi:role="line"
     id="tspan3274">3.0</tspan><tspan
     style="fill:#000000;fill-opacity:1;fill-rule:nonzero;stroke:none;font-family:DejaVu Sans;font-variant:normal;font-weight:normal;font-size:7.314009;writing-mode:lr;-inkscape-font-specification:DejaVuSans"
     x="39.09359753 43.73799324 46.04190608"
     y="-0.21067301"
     sodipodi:role="line"
     id="tspan3276">3.0</tspan><tspan
     style="fill:#000000;fill-opacity:1;fill-rule:nonzero;stroke:none;font-family:DejaVu Sans;font-variant:normal;font-weight:normal;font-size:7.314009;writing-mode:lr;-inkscape-font-specification:DejaVuSans"
     x="120.60642127 125.25081699 127.55472982"
     y="0.052583044"
     sodipodi:role="line"
     id="tspan3278">1.0</tspan><tspan
     style="fill:#000000;fill-opacity:1;fill-rule:nonzero;stroke:none;font-family:DejaVu Sans;font-variant:normal;font-weight:normal;font-size:7.314009;writing-mode:lr;-inkscape-font-specification:DejaVuSans"
     x="100.29103719 104.9354329 107.23934574"
     y="0.33542821"
     sodipodi:role="line"
     id="tspan3280">1.0</tspan><tspan
     style="fill:#000000;fill-opacity:1;fill-rule:nonzero;stroke:none;font-family:DejaVu Sans;font-variant:normal;font-weight:normal;font-size:7.314009;writing-mode:lr;-inkscape-font-specification:DejaVuSans"
     x="79.29121545 83.93561117 86.239524"
     y="0.052583044"
     sodipodi:role="line"
     id="tspan3282">1.0</tspan><tspan
     style="fill:#000000;fill-opacity:1;fill-rule:nonzero;stroke:none;font-family:DejaVu Sans;font-variant:normal;font-weight:normal;font-size:7.314009;writing-mode:lr;-inkscape-font-specification:DejaVuSans"
     x="59.42211757 64.06651328 66.37042612"
     y="-0.23026212"
     sodipodi:role="line"
     id="tspan3284">1.0</tspan></text>



<path
   d="m 210.418,37.637 17.008,0 0,-17.008 -17.008,0 0,17.008 z"
   style="fill:none;stroke:#000000;stroke-opacity:1;stroke-width:0.472425;stroke-linecap:butt;stroke-linejoin:miter;stroke-miterlimit:10;stroke-dasharray:none"
   id="path3286" /><text
   transform="matrix(0.87547144,0,0,-1,178.47399,25.937601)"
   id="text3288"><tspan
     style="fill:#000000;fill-opacity:1;fill-rule:nonzero;stroke:none;font-family:DejaVu Sans;font-variant:normal;font-weight:normal;font-size:7.314009;writing-mode:lr;-inkscape-font-specification:DejaVuSans"
     x="0 4.64439571 6.94830855"
     y="0"
     sodipodi:role="line"
     id="tspan3290">3.0</tspan></text>




<path
   style="fill:none;stroke:#000000;stroke-width:0.37396213;stroke-linecap:butt;stroke-linejoin:miter;stroke-miterlimit:4;stroke-opacity:1;stroke-dasharray:0.74792427, 1.49584855;stroke-dashoffset:0"
   d="M 69.156408,84.798724 69.03457,12.527431"
   id="path3185"
   inkscape:connector-curvature="0" /><path
   style="fill:none;stroke:#000000;stroke-width:0.37566525;stroke-linecap:butt;stroke-linejoin:miter;stroke-miterlimit:4;stroke-opacity:1;stroke-dasharray:0.7513305, 1.502661;stroke-dashoffset:0"
   d="M 129.7645,84.893716 129.64266,11.962641"
   id="path3185-0"
   inkscape:connector-curvature="0" /></g><g
       id="g3298"><g
         id="g3300"
         clip-path="url(#clipPath3302)"><g
           id="g3306"><g
             id="g3308" /><g
             id="g3334"><g
               clip-path="url(#clipPath3310)"
               id="g3336"><g
                 id="g3338" /><g
                 id="g3340"><g
                   clip-path="url(#clipPath3314)"
                   id="g3342"><g
                     id="g3344"><g
                       id="g3346" /><g
                       id="g3348"><g
                         clip-path="url(#clipPath3318)"
                         id="g3350"><g
                           id="g3352" /><g
                           id="g3354"><g
                             id="g3356"><g
                               id="g3358" /><g
                               id="g3360"><g
                                 clip-path="url(#clipPath3322)"
                                 id="g3362"><g
                                   id="g3364" /><g
                                   id="g3366"><g
                                   clip-path="url(#clipPath3326)"
                                   id="g3368"><g
                                   id="g3370"><g
                                   id="g3372" /><g
                                   id="g3374"><g
                                   clip-path="url(#clipPath3330)"
                                   id="g3376"><g
                                   id="g3378" /><g
                                   id="g3380"><g
                                   transform="matrix(1,0,0,0.769161,0,105)"
                                   id="g3382"><path
                                   d="m 233.457,-109.987 0,-12.011 16.02,0"
                                   style="fill:none;stroke:#000000;stroke-opacity:1;stroke-width:0.667318;stroke-linecap:butt;stroke-linejoin:miter;stroke-miterlimit:10;stroke-dasharray:none"
                                   id="path3384" /></g></g></g></g></g></g></g></g></g></g></g></g></g></g></g></g></g></g></g></g></g><g
       id="g3386"><path
   d="m 249.469,9.121 3.636,1.891 -3.636,1.886 0,-3.777"
   style="fill:#000000;fill-opacity:1;fill-rule:evenodd;stroke:none"
   id="path3388" /><path
   d="m 87.115355,67.296026 11.336,0"
   style="fill:none;stroke:#000000;stroke-width:0.47242501;stroke-linecap:butt;stroke-linejoin:miter;stroke-miterlimit:10;stroke-opacity:1;stroke-dasharray:0.94485, 0.472425;stroke-dashoffset:0"
   id="path3390"
   inkscape:connector-curvature="0" /><path
   d="m 98.295355,65.565026 3.637005,1.891 -3.637005,1.891 0,-3.782"
   style="fill:#000000;fill-opacity:1;fill-rule:evenodd;stroke:none"
   id="path3392"
   inkscape:connector-curvature="0" /><text
   transform="scale(0.93792815,-1.0661797)"
   id="text3394"
   x="108.39139"
   y="-61.468575"
   style="font-size:11.25513744px"><tspan
     style="font-size:7.25356293px;font-variant:normal;font-weight:normal;writing-mode:lr-tb;fill:#000000;fill-opacity:1;fill-rule:nonzero;stroke:none;font-family:DejaVu Sans;-inkscape-font-specification:DejaVuSans"
     x="108.39139 112.97564 117.56715 119.57639 123.51507"
     y="-61.468575"
     sodipodi:role="line"
     id="tspan3396">Spike</tspan></text>



<path
   d="m 15.332,24.449 42.727,0"
   style="fill:none;stroke:#000000;stroke-opacity:1;stroke-width:0.486247;stroke-linecap:butt;stroke-linejoin:miter;stroke-miterlimit:10;stroke-dasharray:none"
   id="path3398" /><path
   d="M 57.922,24.438 57.902,41.93"
   style="fill:none;stroke:#000000;stroke-opacity:1;stroke-width:0.496576;stroke-linecap:butt;stroke-linejoin:miter;stroke-miterlimit:10;stroke-dasharray:none"
   id="path3400" /><path
   d="m 57.859,42 26.582,0"
   style="fill:none;stroke:#000000;stroke-opacity:1;stroke-width:0.383525;stroke-linecap:butt;stroke-linejoin:miter;stroke-miterlimit:10;stroke-dasharray:none"
   id="path3402" /><path
   d="M 84.531,41.746 85.57,67.354757"
   style="fill:none;stroke:#000000;stroke-width:0.40064916;stroke-linecap:butt;stroke-linejoin:miter;stroke-miterlimit:10;stroke-opacity:1;stroke-dasharray:none"
   id="path3404"
   inkscape:connector-curvature="0" /><path
   d="M 86.094,41.742 85.605,67.155059"
   style="fill:none;stroke:#000000;stroke-width:0.39907041;stroke-linecap:butt;stroke-linejoin:miter;stroke-miterlimit:10;stroke-opacity:1;stroke-dasharray:none"
   id="path3406"
   inkscape:connector-curvature="0" /><path
   d="m 86.238,42 51.422,0"
   style="fill:none;stroke:#000000;stroke-opacity:1;stroke-width:0.369011;stroke-linecap:butt;stroke-linejoin:miter;stroke-miterlimit:10;stroke-dasharray:none"
   id="path3408" />
<path
   d="m 59.719,53.414 -1.949,3.602 -1.829,-3.664 3.778,0.062"
   style="fill:#000000;fill-opacity:1;fill-rule:evenodd;stroke:none"
   id="path3414" /><path
   d="m 87.609624,67.472392 c 0,1.137098 -0.906416,2.055701 -2.02312,2.055701 -1.121055,0 -2.027471,-0.918603 -2.027471,-2.055701 0,-1.129404 0.906416,-2.049545 2.027471,-2.049545 1.116704,0 2.02312,0.920141 2.02312,2.049545 z"
   style="fill:#808080;fill-opacity:1;fill-rule:nonzero;stroke:none"
   id="path3416"
   inkscape:connector-curvature="0" /><path
   inkscape:connector-curvature="0"
   id="path3535"
   style="fill:#808080;fill-opacity:1;fill-rule:nonzero;stroke:none"
   d="m 59.964428,41.852931 c 0,1.137098 -0.906416,2.055701 -2.02312,2.055701 -1.121055,0 -2.027471,-0.918603 -2.027471,-2.055701 0,-1.129404 0.906416,-2.049545 2.027471,-2.049545 1.116704,0 2.02312,0.920141 2.02312,2.049545 z" /><text
   xml:space="preserve"
   style="font-size:7.41380215px;font-style:normal;font-variant:normal;font-weight:normal;font-stretch:normal;text-align:center;line-height:80.00000119%;letter-spacing:0px;word-spacing:0px;writing-mode:lr-tb;text-anchor:middle;fill:#000000;fill-opacity:1;stroke:none;font-family:Sans;-inkscape-font-specification:Sans"
   x="58.409351"
   y="-61.773235"
   id="text3967"
   sodipodi:linespacing="80.000001%"
   transform="scale(0.94826691,-1.0545554)"><tspan
     sodipodi:role="line"
     id="tspan3969"
     x="58.409351"
     y="-61.773235">Phase</tspan><tspan
     sodipodi:role="line"
     x="58.409351"
     y="-55.842194"
     id="tspan3971">change</tspan></text>


<path
   style="fill:none;stroke:#000000;stroke-width:0.68264467;stroke-linecap:butt;stroke-linejoin:miter;stroke-miterlimit:4;stroke-opacity:1;stroke-dasharray:none;marker-start:url(#Arrow1Sstart);marker-mid:url(#Arrow2Mend)"
   d="m 16.527845,77.507404 20.118905,0.02758"
   id="path3973"
   inkscape:connector-curvature="0" /><path
   style="fill:none;stroke:#000000;stroke-width:0.66773641;stroke-linecap:butt;stroke-linejoin:miter;stroke-miterlimit:4;stroke-opacity:1;stroke-dasharray:none;marker-start:url(#Arrow1Sstart);marker-mid:url(#Arrow2Mend)"
   d="M 68.045285,77.565472 48.795665,77.6372"
   id="path3973-1"
   inkscape:connector-curvature="0" /><text
   xml:space="preserve"
   style="font-size:7.4857893px;font-style:normal;font-variant:normal;font-weight:normal;font-stretch:normal;text-align:center;line-height:125%;letter-spacing:0px;word-spacing:0px;writing-mode:lr-tb;text-anchor:middle;fill:#000000;fill-opacity:1;stroke:none;font-family:Sans;-inkscape-font-specification:Sans"
   x="44.683395"
   y="-72.85025"
   id="text5775"
   sodipodi:linespacing="125%"
   transform="scale(0.96662459,-1.0345278)"><tspan
     sodipodi:role="line"
     id="tspan5777"
     x="44.683395"
     y="-72.85025"
     style="font-style:italic">T<tspan
   style="font-size:51.99999973%;baseline-shift:sub"
   id="tspan4079">1</tspan></tspan></text>


<path
   style="fill:none;stroke:#000000;stroke-width:0.7385785;stroke-linecap:butt;stroke-linejoin:miter;stroke-miterlimit:4;stroke-opacity:1;stroke-dasharray:none;marker-start:url(#Arrow1Sstart);marker-mid:url(#Arrow2Mend)"
   d="m 128.24812,77.605832 -23.55078,0.0717"
   id="path3973-1-8"
   inkscape:connector-curvature="0" /><path
   style="fill:none;stroke:#000000;stroke-width:0.74573219;stroke-linecap:butt;stroke-linejoin:miter;stroke-miterlimit:4;stroke-opacity:1;stroke-dasharray:none;marker-start:url(#Arrow1Sstart);marker-mid:url(#Arrow2Mend)"
   d="m 70.299311,77.504004 24.009368,0.0276"
   id="path3973-7"
   inkscape:connector-curvature="0" /><text
   xml:space="preserve"
   style="font-size:7.48578882px;font-style:normal;font-variant:normal;font-weight:normal;font-stretch:normal;text-align:center;line-height:125%;letter-spacing:0px;word-spacing:0px;writing-mode:lr-tb;text-anchor:middle;fill:#000000;fill-opacity:1;stroke:none;font-family:Sans;-inkscape-font-specification:Sans"
   x="102.60459"
   y="-72.545341"
   id="text5775-9"
   sodipodi:linespacing="0%"
   transform="scale(0.96662458,-1.0345278)"><tspan
     sodipodi:role="line"
     id="tspan5777-8"
     x="102.60459"
     y="-72.545341"
     style="font-style:italic">T<tspan
   style="line-height:0%;font-size:52%;baseline-shift:sub"
   id="tspan4055">2</tspan></tspan></text>


<text
   xml:space="preserve"
   style="font-size:7.48578882px;font-style:normal;font-variant:normal;font-weight:normal;font-stretch:normal;text-align:center;line-height:125%;letter-spacing:0px;word-spacing:0px;writing-mode:lr-tb;text-anchor:middle;fill:#000000;fill-opacity:1;stroke:none;font-family:Sans;-inkscape-font-specification:Sans"
   x="165.82199"
   y="-77.502197"
   id="text5775-8"
   sodipodi:linespacing="125%"
   transform="scale(0.96662458,-1.0345278)"><tspan
     sodipodi:role="line"
     id="tspan5777-3"
     x="165.82199"
     y="-77.502197"
     style="font-style:italic"><tspan
   style="font-style:normal"
   id="tspan5954">(a) </tspan>T<tspan
   style="font-size:52%;baseline-shift:sub"
   id="tspan4081">1</tspan></tspan></text>


<text
   xml:space="preserve"
   style="font-size:7.48578882px;font-style:normal;font-variant:normal;font-weight:normal;font-stretch:normal;text-align:center;line-height:125%;letter-spacing:0px;word-spacing:0px;writing-mode:lr-tb;text-anchor:middle;fill:#000000;fill-opacity:1;stroke:none;font-family:Sans;-inkscape-font-specification:Sans"
   x="165.85925"
   y="-27.091537"
   id="text5775-9-0"
   sodipodi:linespacing="125%"
   transform="scale(0.96662458,-1.0345278)"><tspan
     sodipodi:role="line"
     id="tspan5777-8-2"
     x="165.85925"
     y="-27.091537"
     style="font-style:italic"><tspan
   style="font-style:normal"
   id="tspan5956">(b) </tspan>T<tspan
   style="font-size:52%;baseline-shift:sub"
   id="tspan4083">2</tspan></tspan></text>


</g><path
       style="fill:none;stroke:#000000;stroke-width:1px;stroke-linecap:butt;stroke-linejoin:miter;stroke-opacity:1"
       d="M 10.330208,116.65297 183.02434,116.4284"
       id="path4057"
       inkscape:connector-curvature="0"
       transform="matrix(0.8,0,0,-0.8,0,105)" /><path
       style="fill:none;stroke:#000000;stroke-width:1px;stroke-linecap:butt;stroke-linejoin:miter;stroke-opacity:1"
       d="M 19.537568,18.965128 18.863859,126.98317"
       id="path4077"
       inkscape:connector-curvature="0"
       transform="matrix(0.8,0,0,-0.8,0,105)" /></g></svg>