<?xml version="1.0" encoding="UTF-8" standalone="no"?>
<!-- Created with Inkscape (http://www.inkscape.org/) -->

<svg
   xmlns:dc="http://purl.org/dc/elements/1.1/"
   xmlns:cc="http://creativecommons.org/ns#"
   xmlns:rdf="http://www.w3.org/1999/02/22-rdf-syntax-ns#"
   xmlns:svg="http://www.w3.org/2000/svg"
   xmlns="http://www.w3.org/2000/svg"
   xmlns:sodipodi="http://sodipodi.sourceforge.net/DTD/sodipodi-0.dtd"
   xmlns:inkscape="http://www.inkscape.org/namespaces/inkscape"
   id="svg2"
   version="1.1"
   inkscape:version="0.48.4 r9939"
   width="400"
   height="115"
   xml:space="preserve"
   sodipodi:docname="fluctuations.pdf"><metadata
     id="metadata8"><rdf:RDF><cc:Work
         rdf:about=""><dc:format>image/svg+xml</dc:format><dc:type
           rdf:resource="http://purl.org/dc/dcmitype/StillImage" /><dc:title></dc:title></cc:Work></rdf:RDF></metadata><defs
     id="defs6"><marker
       inkscape:stockid="DotM"
       orient="auto"
       refY="0"
       refX="0"
       id="DotM"
       style="overflow:visible"><path
         id="path4147"
         d="m -2.5,-1 c 0,2.76 -2.24,5 -5,5 -2.76,0 -5,-2.24 -5,-5 0,-2.76 2.24,-5 5,-5 2.76,0 5,2.24 5,5 z"
         style="fill-rule:evenodd;stroke:#000000;stroke-width:1pt"
         transform="matrix(0.4,0,0,0.4,2.96,0.4)"
         inkscape:connector-curvature="0" /></marker><marker
       inkscape:stockid="StopL"
       orient="auto"
       refY="0"
       refX="0"
       id="StopL"
       style="overflow:visible"><path
         id="path4252"
         d="M 0,5.65 0,-5.65"
         style="fill:none;stroke:#000000;stroke-width:1pt"
         transform="scale(0.8,0.8)"
         inkscape:connector-curvature="0" /></marker><marker
       inkscape:stockid="SquareS"
       orient="auto"
       refY="0"
       refX="0"
       id="SquareS"
       style="overflow:visible"><path
         id="path4159"
         d="M -5,-5 -5,5 5,5 5,-5 -5,-5 z"
         style="fill-rule:evenodd;stroke:#000000;stroke-width:1pt"
         transform="scale(0.2,0.2)"
         inkscape:connector-curvature="0" /></marker><marker
       inkscape:stockid="SemiCircleOut"
       orient="auto"
       refY="0"
       refX="0"
       id="SemiCircleOut"
       style="overflow:visible"><path
         id="path4264"
         d="m -2.5,-0.80913858 c 0,2.75999998 -2.24,4.99999998 -5,4.99999998 l 0,-10 c 2.76,0 5,2.24 5,5.00000002 z"
         style="fill-rule:evenodd;stroke:#000000;stroke-width:1pt"
         transform="matrix(0.6,0,0,0.6,4.2752958,0.4580676)"
         inkscape:connector-curvature="0" /></marker><marker
       inkscape:stockid="EmptyTriangleInM"
       orient="auto"
       refY="0"
       refX="0"
       id="EmptyTriangleInM"
       style="overflow:visible"><path
         id="path4237"
         d="m 5.77,0 -8.65,5 0,-10 8.65,5 z"
         style="fill:#ffffff;fill-rule:evenodd;stroke:#000000;stroke-width:1pt"
         transform="matrix(-0.4,0,0,-0.4,1.8,0)"
         inkscape:connector-curvature="0" /></marker><marker
       inkscape:stockid="CurvyCross"
       orient="auto"
       refY="0"
       refX="0"
       id="CurvyCross"
       style="overflow:visible"><g
         id="g4273"
         transform="scale(0.6,0.6)"><path
           id="path4275"
           d="m 4.625493,-5.0456926 c -2.76,0 -5.00000002,2.24 -5.00000002,5.00000002 0,2.75999998 2.24000002,4.99999998 5.00000002,4.99999998"
           style="fill:none;stroke:#000000;stroke-width:1pt"
           inkscape:connector-curvature="0" /><path
           id="path4277"
           d="m -5.4129913,-5.0456926 c 2.76,0 4.99999999,2.24 4.99999999,5.00000002 0,2.75999998 -2.23999999,4.99999998 -4.99999999,4.99999998"
           style="fill:none;stroke:#000000;stroke-width:1pt"
           inkscape:connector-curvature="0" /></g></marker><marker
       inkscape:stockid="StopM"
       orient="auto"
       refY="0"
       refX="0"
       id="StopM"
       style="overflow:visible"><path
         id="path4255"
         d="M 0,5.65 0,-5.65"
         style="fill:none;stroke:#000000;stroke-width:1pt"
         transform="scale(0.4,0.4)"
         inkscape:connector-curvature="0" /></marker><marker
       inkscape:stockid="EmptyDiamondMstart"
       orient="auto"
       refY="0"
       refX="0"
       id="EmptyDiamondMstart"
       style="overflow:visible"><path
         id="path4201"
         d="M 0,-7.0710768 -7.0710894,0 0,7.0710589 7.0710462,0 0,-7.0710768 z"
         style="fill:#ffffff;fill-rule:evenodd;stroke:#000000;stroke-width:1pt"
         transform="matrix(0.4,0,0,0.4,2.6,0)"
         inkscape:connector-curvature="0" /></marker><marker
       inkscape:stockid="EmptyDiamondM"
       orient="auto"
       refY="0"
       refX="0"
       id="EmptyDiamondM"
       style="overflow:visible"><path
         id="path4192"
         d="M 0,-7.0710768 -7.0710894,0 0,7.0710589 7.0710462,0 0,-7.0710768 z"
         style="fill:#ffffff;fill-rule:evenodd;stroke:#000000;stroke-width:1pt"
         transform="scale(0.4,0.4)"
         inkscape:connector-curvature="0" /></marker><marker
       inkscape:stockid="DiamondMend"
       orient="auto"
       refY="0"
       refX="0"
       id="DiamondMend"
       style="overflow:visible"><path
         id="path4183"
         d="M 0,-7.0710768 -7.0710894,0 0,7.0710589 7.0710462,0 0,-7.0710768 z"
         style="fill-rule:evenodd;stroke:#000000;stroke-width:1pt"
         transform="matrix(0.4,0,0,0.4,-2.6,0)"
         inkscape:connector-curvature="0" /></marker><marker
       inkscape:stockid="DotS"
       orient="auto"
       refY="0"
       refX="0"
       id="DotS"
       style="overflow:visible"><path
         id="path4150"
         d="m -2.5,-1 c 0,2.76 -2.24,5 -5,5 -2.76,0 -5,-2.24 -5,-5 0,-2.76 2.24,-5 5,-5 2.76,0 5,2.24 5,5 z"
         style="fill-rule:evenodd;stroke:#000000;stroke-width:1pt"
         transform="matrix(0.2,0,0,0.2,1.48,0.2)"
         inkscape:connector-curvature="0" /></marker><clipPath
       clipPathUnits="userSpaceOnUse"
       id="clipPath72"><path
         d="M 0,1530 0,0 l 5400,0 0,1530 -5400,0 z m 1166.24,-1114.961 -43.46,-29.605 21.42,-31.496 43.46,29.605 0,0 -41.57,-5.668 20.15,37.164 z"
         clip-rule="evenodd"
         id="path74"
         inkscape:connector-curvature="0" /></clipPath><clipPath
       clipPathUnits="userSpaceOnUse"
       id="clipPath110"><path
         d="M 0,1530 0,0 l 5400,0 0,1530 -5400,0 z m 2866.34,-1315.898 42.21,0 0,37.793 -42.21,0 0,0 28.35,-18.899 -28.35,-18.894 z"
         clip-rule="evenodd"
         id="path112"
         inkscape:connector-curvature="0" /></clipPath><clipPath
       clipPathUnits="userSpaceOnUse"
       id="clipPath148"><path
         d="M 0,1530 0,0 l 5400,0 0,1530 -5400,0 z m 4680.46,-1315.898 42.2,0 0,37.793 -42.2,0 0,0 28.34,-18.899 -28.34,-18.894 z"
         clip-rule="evenodd"
         id="path150"
         inkscape:connector-curvature="0" /></clipPath><marker
       inkscape:stockid="EmptyDiamondMstart"
       orient="auto"
       refY="0"
       refX="0"
       id="EmptyDiamondMstart-4"
       style="overflow:visible"><path
         inkscape:connector-curvature="0"
         id="path4201-3"
         d="M 0,-7.0710768 -7.0710894,0 0,7.0710589 7.0710462,0 0,-7.0710768 z"
         style="fill:#ffffff;fill-rule:evenodd;stroke:#000000;stroke-width:1pt"
         transform="matrix(0.4,0,0,0.4,2.6,0)" /></marker><marker
       inkscape:stockid="EmptyDiamondMstart"
       orient="auto"
       refY="0"
       refX="0"
       id="EmptyDiamondMstart-6"
       style="overflow:visible"><path
         inkscape:connector-curvature="0"
         id="path4201-4"
         d="M 0,-7.0710768 -7.0710894,0 0,7.0710589 7.0710462,0 0,-7.0710768 z"
         style="fill:#ffffff;fill-rule:evenodd;stroke:#000000;stroke-width:1pt"
         transform="matrix(0.4,0,0,0.4,2.6,0)" /></marker><marker
       inkscape:stockid="EmptyDiamondMstart"
       orient="auto"
       refY="0"
       refX="0"
       id="EmptyDiamondMstart-5"
       style="overflow:visible"><path
         inkscape:connector-curvature="0"
         id="path4201-40"
         d="M 0,-7.0710768 -7.0710894,0 0,7.0710589 7.0710462,0 0,-7.0710768 z"
         style="fill:#ffffff;fill-rule:evenodd;stroke:#000000;stroke-width:1pt"
         transform="matrix(0.4,0,0,0.4,2.6,0)" /></marker><marker
       inkscape:stockid="EmptyDiamondMstart"
       orient="auto"
       refY="0"
       refX="0"
       id="EmptyDiamondMstart-8"
       style="overflow:visible"><path
         inkscape:connector-curvature="0"
         id="path4201-33"
         d="M 0,-7.0710768 -7.0710894,0 0,7.0710589 7.0710462,0 0,-7.0710768 z"
         style="fill:#ffffff;fill-rule:evenodd;stroke:#000000;stroke-width:1pt"
         transform="matrix(0.4,0,0,0.4,2.6,0)" /></marker><marker
       inkscape:stockid="EmptyDiamondMstart"
       orient="auto"
       refY="0"
       refX="0"
       id="EmptyDiamondMstart-58"
       style="overflow:visible"><path
         inkscape:connector-curvature="0"
         id="path4201-9"
         d="M 0,-7.0710768 -7.0710894,0 0,7.0710589 7.0710462,0 0,-7.0710768 z"
         style="fill:#ffffff;fill-rule:evenodd;stroke:#000000;stroke-width:1pt"
         transform="matrix(0.4,0,0,0.4,2.6,0)" /></marker><marker
       inkscape:stockid="EmptyDiamondMstart"
       orient="auto"
       refY="0"
       refX="0"
       id="EmptyDiamondMstart-63"
       style="overflow:visible"><path
         inkscape:connector-curvature="0"
         id="path4201-0"
         d="M 0,-7.0710768 -7.0710894,0 0,7.0710589 7.0710462,0 0,-7.0710768 z"
         style="fill:#ffffff;fill-rule:evenodd;stroke:#000000;stroke-width:1pt"
         transform="matrix(0.4,0,0,0.4,2.6,0)" /></marker><marker
       inkscape:stockid="DotS"
       orient="auto"
       refY="0"
       refX="0"
       id="DotS-3"
       style="overflow:visible"><path
         inkscape:connector-curvature="0"
         id="path4150-3"
         d="m -2.5,-1 c 0,2.76 -2.24,5 -5,5 -2.76,0 -5,-2.24 -5,-5 0,-2.76 2.24,-5 5,-5 2.76,0 5,2.24 5,5 z"
         style="fill-rule:evenodd;stroke:#000000;stroke-width:1pt"
         transform="matrix(0.2,0,0,0.2,1.48,0.2)" /></marker><marker
       inkscape:stockid="DotS"
       orient="auto"
       refY="0"
       refX="0"
       id="DotS-1"
       style="overflow:visible"><path
         inkscape:connector-curvature="0"
         id="path4150-4"
         d="m -2.5,-1 c 0,2.76 -2.24,5 -5,5 -2.76,0 -5,-2.24 -5,-5 0,-2.76 2.24,-5 5,-5 2.76,0 5,2.24 5,5 z"
         style="fill-rule:evenodd;stroke:#000000;stroke-width:1pt"
         transform="matrix(0.2,0,0,0.2,1.48,0.2)" /></marker><marker
       inkscape:stockid="DotS"
       orient="auto"
       refY="0"
       refX="0"
       id="marker6453"
       style="overflow:visible"><path
         inkscape:connector-curvature="0"
         id="path6455"
         d="m -2.5,-1 c 0,2.76 -2.24,5 -5,5 -2.76,0 -5,-2.24 -5,-5 0,-2.76 2.24,-5 5,-5 2.76,0 5,2.24 5,5 z"
         style="fill-rule:evenodd;stroke:#000000;stroke-width:1pt"
         transform="matrix(0.2,0,0,0.2,1.48,0.2)" /></marker><marker
       inkscape:stockid="DotS"
       orient="auto"
       refY="0"
       refX="0"
       id="marker6457"
       style="overflow:visible"><path
         inkscape:connector-curvature="0"
         id="path6459"
         d="m -2.5,-1 c 0,2.76 -2.24,5 -5,5 -2.76,0 -5,-2.24 -5,-5 0,-2.76 2.24,-5 5,-5 2.76,0 5,2.24 5,5 z"
         style="fill-rule:evenodd;stroke:#000000;stroke-width:1pt"
         transform="matrix(0.2,0,0,0.2,1.48,0.2)" /></marker><marker
       inkscape:stockid="DotS"
       orient="auto"
       refY="0"
       refX="0"
       id="marker6461"
       style="overflow:visible"><path
         inkscape:connector-curvature="0"
         id="path6463"
         d="m -2.5,-1 c 0,2.76 -2.24,5 -5,5 -2.76,0 -5,-2.24 -5,-5 0,-2.76 2.24,-5 5,-5 2.76,0 5,2.24 5,5 z"
         style="fill-rule:evenodd;stroke:#000000;stroke-width:1pt"
         transform="matrix(0.2,0,0,0.2,1.48,0.2)" /></marker><marker
       inkscape:stockid="DotS"
       orient="auto"
       refY="0"
       refX="0"
       id="marker6465"
       style="overflow:visible"><path
         inkscape:connector-curvature="0"
         id="path6467"
         d="m -2.5,-1 c 0,2.76 -2.24,5 -5,5 -2.76,0 -5,-2.24 -5,-5 0,-2.76 2.24,-5 5,-5 2.76,0 5,2.24 5,5 z"
         style="fill-rule:evenodd;stroke:#000000;stroke-width:1pt"
         transform="matrix(0.2,0,0,0.2,1.48,0.2)" /></marker><marker
       inkscape:stockid="DotS"
       orient="auto"
       refY="0"
       refX="0"
       id="marker6469"
       style="overflow:visible"><path
         inkscape:connector-curvature="0"
         id="path6471"
         d="m -2.5,-1 c 0,2.76 -2.24,5 -5,5 -2.76,0 -5,-2.24 -5,-5 0,-2.76 2.24,-5 5,-5 2.76,0 5,2.24 5,5 z"
         style="fill-rule:evenodd;stroke:#000000;stroke-width:1pt"
         transform="matrix(0.2,0,0,0.2,1.48,0.2)" /></marker><clipPath
       clipPathUnits="userSpaceOnUse"
       id="clipPath72-9"><path
         inkscape:connector-curvature="0"
         d="M 0,1530 0,0 l 5400,0 0,1530 -5400,0 z m 1166.24,-1114.961 -43.46,-29.605 21.42,-31.496 43.46,29.605 0,0 -41.57,-5.668 20.15,37.164 z"
         clip-rule="evenodd"
         id="path74-7" /></clipPath><marker
       inkscape:stockid="DotS"
       orient="auto"
       refY="0"
       refX="0"
       id="marker6475"
       style="overflow:visible"><path
         inkscape:connector-curvature="0"
         id="path6477"
         d="m -2.5,-1 c 0,2.76 -2.24,5 -5,5 -2.76,0 -5,-2.24 -5,-5 0,-2.76 2.24,-5 5,-5 2.76,0 5,2.24 5,5 z"
         style="fill-rule:evenodd;stroke:#000000;stroke-width:1pt"
         transform="matrix(0.2,0,0,0.2,1.48,0.2)" /></marker><marker
       inkscape:stockid="DotS"
       orient="auto"
       refY="0"
       refX="0"
       id="DotS-6"
       style="overflow:visible"><path
         inkscape:connector-curvature="0"
         id="path4150-6"
         d="m -2.5,-1 c 0,2.76 -2.24,5 -5,5 -2.76,0 -5,-2.24 -5,-5 0,-2.76 2.24,-5 5,-5 2.76,0 5,2.24 5,5 z"
         style="fill-rule:evenodd;stroke:#000000;stroke-width:1pt"
         transform="matrix(0.2,0,0,0.2,1.48,0.2)" /></marker><marker
       inkscape:stockid="DotS"
       orient="auto"
       refY="0"
       refX="0"
       id="DotS-4"
       style="overflow:visible"><path
         inkscape:connector-curvature="0"
         id="path4150-2"
         d="m -2.5,-1 c 0,2.76 -2.24,5 -5,5 -2.76,0 -5,-2.24 -5,-5 0,-2.76 2.24,-5 5,-5 2.76,0 5,2.24 5,5 z"
         style="fill-rule:evenodd;stroke:#000000;stroke-width:1pt"
         transform="matrix(0.2,0,0,0.2,1.48,0.2)" /></marker><marker
       inkscape:stockid="DotS"
       orient="auto"
       refY="0"
       refX="0"
       id="DotS-9"
       style="overflow:visible"><path
         inkscape:connector-curvature="0"
         id="path4150-7"
         d="m -2.5,-1 c 0,2.76 -2.24,5 -5,5 -2.76,0 -5,-2.24 -5,-5 0,-2.76 2.24,-5 5,-5 2.76,0 5,2.24 5,5 z"
         style="fill-rule:evenodd;stroke:#000000;stroke-width:1pt"
         transform="matrix(0.2,0,0,0.2,1.48,0.2)" /></marker></defs><sodipodi:namedview
     pagecolor="#ffffff"
     bordercolor="#666666"
     borderopacity="1"
     objecttolerance="10"
     gridtolerance="10"
     guidetolerance="10"
     inkscape:pageopacity="0"
     inkscape:pageshadow="2"
     inkscape:window-width="1855"
     inkscape:window-height="1056"
     id="namedview4"
     showgrid="false"
     inkscape:zoom="2.56"
     inkscape:cx="193.61745"
     inkscape:cy="7.4764876"
     inkscape:window-x="1985"
     inkscape:window-y="24"
     inkscape:window-maximized="1"
     inkscape:current-layer="g12"
     showguides="true"
     inkscape:guide-bbox="true"
     inkscape:snap-bbox="true"
     inkscape:snap-global="true" /><g
     id="g10"
     inkscape:groupmode="layer"
     inkscape:label="ink_ext_XXXXXX"
     transform="matrix(1.25,0,0,-1.25,0,115)"><g
       id="g12"
       transform="matrix(0.06648606,0,0,0.07402375,2.6417325,8.7883199)"><path
         d="m 1693.4394,222.97092 14.862,40.66349 12.3674,-37.43555 17.3566,42.71209 11.4234,-41.83974 21.7673,40.14055 15.1841,-36.33451 17.0667,38.2624 11.4244,-35.23347 18.0073,41.22881 12.8343,-50.64812 19.0913,50.82437 16.1241,-47.34497 24.1164,47.16872 13.6293,-49.96198"
         style="fill:none;stroke:#53b000;stroke-width:6.44702864;stroke-linecap:butt;stroke-linejoin:miter;stroke-miterlimit:10.10000038;stroke-opacity:1;stroke-dasharray:none;marker-start:none;marker-mid:url(#DotS)"
         id="path26"
         inkscape:connector-curvature="0"
         sodipodi:nodetypes="ccccccccccccccc" /><path
         d="m 221.36068,245.51717 381.98842,0 0,180.96854 727.5926,0"
         style="fill:none;stroke:#0c008f;stroke-width:9.87508106;stroke-linecap:butt;stroke-linejoin:miter;stroke-miterlimit:5;stroke-opacity:1;stroke-dasharray:39.50032349, 19.75016175;stroke-dashoffset:24.68768707"
         id="path30"
         inkscape:connector-curvature="0" /><text
         xml:space="preserve"
         style="font-size:88.35353851px;font-style:normal;font-variant:normal;font-weight:normal;font-stretch:normal;text-align:center;line-height:125%;letter-spacing:0px;word-spacing:0px;writing-mode:lr-tb;text-anchor:middle;fill:#000000;fill-opacity:1;stroke:none;font-family:Sans;-inkscape-font-specification:Sans"
         x="808.49323"
         y="-862.92834"
         id="text3470"
         sodipodi:linespacing="125%"
         transform="scale(0.98086682,-1.0195064)"><tspan
           sodipodi:role="line"
           x="808.49323"
           y="-862.92834"
           id="tspan6672">Solo Execution</tspan><tspan
           sodipodi:role="line"
           x="808.49323"
           y="-752.48645"
           id="tspan6339" /></text>
<path
         d="m 1912.6042,228.96779 12.9174,40.93761 10.7492,-37.68792 15.0856,43.00003 9.9288,-42.12177 18.9192,40.41109 13.1974,-36.57941 14.8336,38.52033 9.9296,-35.47099 15.6512,41.50667 11.155,-50.98947 16.5934,51.16694 14.0144,-47.66403"
         style="fill:none;stroke:#53b000;stroke-width:6.03069687;stroke-linecap:butt;stroke-linejoin:miter;stroke-miterlimit:10;stroke-opacity:1;stroke-dasharray:none;marker-mid:url(#DotS)"
         id="path26-3"
         inkscape:connector-curvature="0"
         sodipodi:nodetypes="ccccccccccccc" /><path
         d="m 2075.2584,236.59258 35.7925,207.20761 10.7492,-37.68792 15.0857,43.00003 9.9287,-42.12177 18.9193,40.41109 13.1974,-36.57941 14.8336,38.52033 9.9295,-35.47099 15.6513,41.50667 11.1549,-50.98947 16.5935,51.16694 14.0144,-47.66403"
         style="fill:none;stroke:#53b000;stroke-width:5.04849863;stroke-linecap:butt;stroke-linejoin:miter;stroke-miterlimit:10;stroke-opacity:1;stroke-dasharray:none;marker-mid:url(#DotS)"
         id="path26-3-4"
         inkscape:connector-curvature="0"
         sodipodi:nodetypes="ccccccccccccc" /><path
         d="m 2261.5281,409.51338 12.9173,40.93761 10.7492,-37.68792 15.0855,43.00004 9.9289,-42.12178 18.9192,40.4111 13.1974,-36.57941 14.8336,38.52033 9.9294,-35.47099 15.6514,41.50666 11.155,-50.98947 16.5934,51.16695 14.0143,-47.66403"
         style="fill:none;stroke:#53b000;stroke-width:5.04849863;stroke-linecap:butt;stroke-linejoin:miter;stroke-miterlimit:10;stroke-opacity:1;stroke-dasharray:none;marker-mid:url(#DotS)"
         id="path26-3-42"
         inkscape:connector-curvature="0"
         sodipodi:nodetypes="ccccccccccccc" /><path
         d="m 2424.9225,410.62184 12.9174,40.93761 10.7492,-37.68792 15.0856,43.00004 9.9287,-42.12178 18.9192,40.4111 13.1974,-36.5794 14.8336,38.52033 9.9296,-35.471 15.6512,41.50666 11.155,-50.98947 16.5935,51.16696 14.0144,-47.66403"
         style="fill:none;stroke:#53b000;stroke-width:5.04849863;stroke-linecap:butt;stroke-linejoin:miter;stroke-miterlimit:10;stroke-opacity:1;stroke-dasharray:none;marker-mid:url(#DotS)"
         id="path26-3-42-2"
         inkscape:connector-curvature="0"
         sodipodi:nodetypes="ccccccccccccc" /><path
         d="m 2588.317,412.83879 12.9174,40.93761 10.7491,-37.68793 15.0855,43.00004 9.9289,-42.12177 18.9192,40.41109 13.1974,-36.5794 14.8336,38.52033 9.9295,-35.47099 15.6513,41.50666 11.155,-50.98947 16.5933,51.16695 14.0144,-47.66403"
         style="fill:none;stroke:#53b000;stroke-width:5.04849863;stroke-linecap:butt;stroke-linejoin:miter;stroke-miterlimit:10;stroke-opacity:1;stroke-dasharray:none;marker-mid:url(#DotS)"
         id="path26-3-42-2-7"
         inkscape:connector-curvature="0"
         sodipodi:nodetypes="ccccccccccccc" /><path
         d="m 2752.5285,410.62184 12.9173,40.93761 10.7492,-37.68792 15.0856,43.00004 9.9288,-42.12178 18.9192,40.4111 13.1974,-36.5794"
         style="fill:none;stroke:#53b000;stroke-width:5.04849863;stroke-linecap:butt;stroke-linejoin:miter;stroke-miterlimit:10;stroke-opacity:1;stroke-dasharray:none;marker-mid:url(#DotS)"
         id="path26-3-42-2-7-6"
         inkscape:connector-curvature="0"
         sodipodi:nodetypes="ccccccc" /><path
         style="fill:none;stroke:#000000;stroke-width:6.33167744px;stroke-linecap:butt;stroke-linejoin:miter;stroke-opacity:1"
         d="m 1673.8396,792.91831 0,-728.60128 0,0"
         id="path6365"
         inkscape:connector-curvature="0" /><path
         inkscape:connector-curvature="0"
         d="m 1692.5711,66.23602 -36.8951,-0.21358 18.7405,-31.65759 18.1546,31.87117"
         style="fill:#000000;fill-opacity:1;fill-rule:evenodd;stroke:none"
         id="path3414-0-8" /><path
         inkscape:connector-curvature="0"
         d="m 1654.5252,791.72771 36.8957,-0.058 -18.5066,31.7949 -18.3891,-31.7365"
         style="fill:#000000;fill-opacity:1;fill-rule:evenodd;stroke:none"
         id="path3414-0-8-5"
         inkscape:transform-center-x="-1.2429611" /><path
         d="m 3264.4946,177.16924 18.2615,192.3642 10.1193,-189.12514 13.9341,192.07614 19.527,-220.10666 15.7601,221.52658 17.2119,-177.86419 13.6318,175.11128 16.0639,-205.66523 24.3113,177.30666 9.9132,-135.97783 18.5133,165.06058 18.1915,-189.69383 21.6723,119.20535 17.6697,-122.00824"
         style="fill:none;stroke:#53b000;stroke-width:7.66709805;stroke-linecap:butt;stroke-linejoin:miter;stroke-miterlimit:10;stroke-opacity:1;stroke-dasharray:none;marker-mid:url(#DotS)"
         id="path26-0"
         inkscape:connector-curvature="0"
         sodipodi:nodetypes="ccccccccccccccc" /><path
         d="m 3671.4249,182.17138 32.0938,329.84534 8.2463,-246.64991 18.2498,207.33519 17.082,-172.79729 12.5749,227.451 20.5109,-286.24885"
         style="fill:none;stroke:#53b000;stroke-width:7.17825842;stroke-linecap:butt;stroke-linejoin:miter;stroke-miterlimit:10;stroke-opacity:1;stroke-dasharray:none;marker-mid:url(#DotS)"
         id="path26-3-4-0"
         inkscape:connector-curvature="0"
         sodipodi:nodetypes="ccccccc" /><path
         d="m 4076.8011,291.8039 31.8127,281.5865 26.7339,-271.74361 26.7784,215.47574 c 7.7782,-47.99898 9.6964,-209.60923 14.5094,-231.87362 4.5825,-21.19781 7.2503,282.80244 11.3011,284.93975 6.4251,3.39008 13.5738,-283.94649 16.4596,-278.07846 l 7.1784,269.5452 19.8033,-267.60675 c 6.0698,-31.50619 15.0869,263.55705 18.277,219.85788 l 23.4833,-189.10424 11.3219,263.30577 19.8314,-311.33841 21.3679,282.74173"
         style="fill:none;stroke:#53b000;stroke-width:7.17825842;stroke-linecap:butt;stroke-linejoin:miter;stroke-miterlimit:10;stroke-opacity:1;stroke-dasharray:none;marker-mid:url(#DotS)"
         id="path26-3-42-25"
         inkscape:connector-curvature="0"
         sodipodi:nodetypes="ccccsscccccccc" /><path
         style="fill:none;stroke:#000000;stroke-width:6.33167744px;stroke-linecap:butt;stroke-linejoin:miter;stroke-opacity:1"
         d="m 3246.3597,794.00156 0,-728.601323 0,0"
         id="path6365-0"
         inkscape:connector-curvature="0" /><path
         inkscape:connector-curvature="0"
         d="m 3265.0912,67.319227 -36.8952,-0.2136 18.7406,-31.65759 18.1546,31.87118"
         style="fill:#000000;fill-opacity:1;fill-rule:evenodd;stroke:none"
         id="path3414-0-8-3" /><path
         inkscape:connector-curvature="0"
         d="m 3227.0453,792.81096 36.8957,-0.058 -18.5067,31.7949 -18.389,-31.7365"
         style="fill:#000000;fill-opacity:1;fill-rule:evenodd;stroke:none"
         id="path3414-0-8-5-52"
         inkscape:transform-center-x="-9.9436888" /><path
         d="m 3501.0016,178.91197 14.1569,170.83182 10.6705,-167.58625 11.5834,229.25378 16.476,-203.32676 19.2411,121.77179 12.6327,-142.99484 10.107,186.42215 15.8707,-183.37669 15.207,188.62198 12.3081,-223.92542 15.5893,213.1433 15.9138,-190.07462"
         style="fill:none;stroke:#53b000;stroke-width:7.17825842;stroke-linecap:butt;stroke-linejoin:miter;stroke-miterlimit:10;stroke-opacity:1;stroke-dasharray:none;marker-mid:url(#DotS)"
         id="path26-0-1"
         inkscape:connector-curvature="0"
         sodipodi:nodetypes="ccccccccccccc" /><path
         d="m 3784.7382,293.8294 37.1857,287.47023 4.3106,-229.98638 43.9332,233.83525 21.8857,-276.44048 10.4158,222.52102 c 7.7781,-47.99896 9.0904,-82.01147 13.9034,-104.2758 11.8509,-54.82075 16.3893,-131.86974 21.0944,-122.30219 l 7.1783,269.54525 19.8034,-267.6068 c 6.0698,-31.50612 4.8024,239.20184 7.9924,195.50264 l 20.0551,-163.6419 25.0347,262.19872 19.8314,-311.33846 7.3722,266.84827 32.7824,-265.91762"
         style="fill:none;stroke:#53b000;stroke-width:7.17825842;stroke-linecap:butt;stroke-linejoin:miter;stroke-miterlimit:10;stroke-opacity:1;stroke-dasharray:none;marker-mid:url(#DotS)"
         id="path26-3-42-25-0"
         inkscape:connector-curvature="0"
         sodipodi:nodetypes="ccccccsccccccccc" /><path
         d="m 4325.99,558.41111 19.8033,-267.60678 c 6.0698,-31.50623 15.0869,263.55702 18.2769,219.85792 l 23.4833,-189.1043 11.322,263.30583 19.8314,-311.33845 21.368,282.74172"
         style="fill:none;stroke:#53b000;stroke-width:7.17825842;stroke-linecap:butt;stroke-linejoin:miter;stroke-miterlimit:10;stroke-opacity:1;stroke-dasharray:none;marker-mid:url(#DotS)"
         id="path26-3-42-25-2"
         inkscape:connector-curvature="0"
         sodipodi:nodetypes="ccccccc" /><text
         xml:space="preserve"
         style="font-size:129.48164368px;font-style:normal;font-variant:normal;font-weight:normal;font-stretch:normal;text-align:center;line-height:125%;letter-spacing:0px;word-spacing:0px;writing-mode:lr-tb;text-anchor:middle;fill:#000000;fill-opacity:1;stroke:none;font-family:Sans;-inkscape-font-specification:Sans"
         x="777.1073"
         y="45.39362"
         id="text3113"
         sodipodi:linespacing="125%"
         transform="scale(1.026934,-0.97377241)"><tspan
           sodipodi:role="line"
           id="tspan3115"
           x="777.1073"
           y="45.39362">(a)</tspan></text>
<text
         xml:space="preserve"
         style="font-size:125.55194092px;font-style:normal;font-variant:normal;font-weight:normal;font-stretch:normal;text-align:center;line-height:125%;letter-spacing:0px;word-spacing:0px;writing-mode:lr-tb;text-anchor:middle;fill:#000000;fill-opacity:1;stroke:none;font-family:Sans;-inkscape-font-specification:Sans"
         x="3885.7112"
         y="27.676939"
         id="text3113-7"
         sodipodi:linespacing="125%"
         transform="scale(1.034266,-0.96686926)"><tspan
           sodipodi:role="line"
           id="tspan3115-8"
           x="3885.7112"
           y="27.676939">(c)</tspan></text>
<path
         style="fill:none;stroke:#000000;stroke-width:6.33167696px;stroke-linecap:butt;stroke-linejoin:miter;stroke-opacity:1"
         d="m 208.58859,777.20449 0,-728.601329 0,0"
         id="path6365-1"
         inkscape:connector-curvature="0" /><path
         style="fill:none;stroke:#000000;stroke-width:4.60833549px;stroke-linecap:butt;stroke-linejoin:miter;stroke-opacity:1"
         d="m 119.39216,106.36221 1314.78614,8.37485"
         id="path6367-4"
         inkscape:connector-curvature="0" /><path
         inkscape:connector-curvature="0"
         d="m 121.23559,87.222421 -0.046,36.895709 -31.742296,-18.59661 31.788396,-18.299099"
         style="fill:#000000;fill-opacity:1;fill-rule:evenodd;stroke:none"
         id="path3414-0-3" /><path
         inkscape:connector-curvature="0"
         d="m 227.32009,50.522141 -36.8951,-0.21355 18.7405,-31.65759 18.1546,31.87116"
         style="fill:#000000;fill-opacity:1;fill-rule:evenodd;stroke:none"
         id="path3414-0-8-7" /><path
         inkscape:connector-curvature="0"
         d="m 189.27419,776.01389 36.8957,-0.058 -18.5066,31.7949 -18.3891,-31.7365"
         style="fill:#000000;fill-opacity:1;fill-rule:evenodd;stroke:none"
         id="path3414-0-8-5-2"
         inkscape:transform-center-x="-14.956051" /><path
         inkscape:connector-curvature="0"
         d="m 1429.2074,135.17939 -0.4254,-37.677001 23.5132,18.439991 -23.0877,19.23704"
         style="fill:#000000;fill-opacity:1;fill-rule:evenodd;stroke:none"
         id="path3414-0-8-5-5-0"
         inkscape:transform-center-x="1.3840698"
         inkscape:transform-center-y="-109.4336" /><path
         style="fill:none;stroke:#000000;stroke-width:7.54174232px;stroke-linecap:butt;stroke-linejoin:miter;stroke-opacity:1"
         d="m 631.67976,606.34731 178.45408,0.0534 0,0"
         id="path6365-9-0-4-1-9"
         inkscape:connector-curvature="0" /><path
         style="fill:none;stroke:#000000;stroke-width:7.55150509px;stroke-linecap:butt;stroke-linejoin:miter;stroke-opacity:1"
         d="m 1055.5771,609.67478 216.3797,0.0442 0,0"
         id="path6365-9-0-4-1-6-9"
         inkscape:connector-curvature="0" /><path
         inkscape:connector-curvature="0"
         d="m 632.99348,606.0409 16.36145,25.86779 -54.79962,-28.54635 63.74114,-25.87533"
         style="fill:#000000;fill-opacity:1;fill-rule:evenodd;stroke:none"
         id="path3414-0-8-5-52-3-13"
         inkscape:transform-center-x="-1033.4388"
         inkscape:transform-center-y="8.6004491"
         sodipodi:nodetypes="cccc" /><path
         inkscape:connector-curvature="0"
         d="m 1318.1507,611.02004 -73.178,26.92802 26.32,-27.00686 -17.0942,-27.35439"
         style="fill:#000000;fill-opacity:1;fill-rule:evenodd;stroke:none"
         id="path3414-0-8-5-52-3-4-0"
         inkscape:transform-center-x="-12435.297"
         inkscape:transform-center-y="-10.021764"
         sodipodi:nodetypes="cccc" /><text
         xml:space="preserve"
         style="font-size:52.58837509px;font-style:normal;font-variant:normal;font-weight:normal;font-stretch:normal;text-align:center;line-height:125%;letter-spacing:0px;word-spacing:0px;writing-mode:lr-tb;text-anchor:middle;fill:#000000;fill-opacity:1;stroke:none;font-family:Sans;-inkscape-font-specification:Sans"
         x="928.72229"
         y="-600.15735"
         id="text3203-6"
         sodipodi:linespacing="125%"
         transform="scale(1.0063282,-0.9937116)"><tspan
           sodipodi:role="line"
           id="tspan3205-5"
           x="928.72229"
           y="-600.15735">phase 2</tspan></text>
<path
         style="fill:none;stroke:#000000;stroke-width:8.20367146px;stroke-linecap:butt;stroke-linejoin:miter;stroke-opacity:1"
         d="m 254.98586,479.6756 73.76023,0.15275 0,0"
         id="path6365-9-0-4-1-1-3"
         inkscape:connector-curvature="0" /><path
         style="fill:none;stroke:#000000;stroke-width:7.91208601px;stroke-linecap:butt;stroke-linejoin:miter;stroke-opacity:1"
         d="m 501.88578,482.32123 61.75896,0.16966 0,0"
         id="path6365-9-0-4-1-6-5-7"
         inkscape:connector-curvature="0" /><path
         inkscape:connector-curvature="0"
         d="m 256.71584,482.41534 11.9998,21.11208 -40.19122,-23.2982 46.74919,-21.11828"
         style="fill:#000000;fill-opacity:1;fill-rule:evenodd;stroke:none"
         id="path3414-0-8-5-52-3-7-1"
         inkscape:transform-center-x="-9120.0626"
         inkscape:transform-center-y="-75.859937"
         sodipodi:nodetypes="cccc" /><path
         inkscape:connector-curvature="0"
         d="m 599.06089,482.34334 -51.41276,23.11583 18.49176,-23.18351 -12.00999,-23.48179"
         style="fill:#000000;fill-opacity:1;fill-rule:evenodd;stroke:none"
         id="path3414-0-8-5-52-3-4-1-1"
         inkscape:transform-center-x="-105125.16"
         inkscape:transform-center-y="92.975255"
         sodipodi:nodetypes="cccc" /><text
         xml:space="preserve"
         style="font-size:44.90446091px;font-style:normal;font-variant:normal;font-weight:normal;font-stretch:normal;text-align:center;line-height:125%;letter-spacing:0px;word-spacing:0px;writing-mode:lr-tb;text-anchor:middle;fill:#000000;fill-opacity:1;stroke:none;font-family:Sans;-inkscape-font-specification:Sans"
         x="421.46478"
         y="-470.13345"
         id="text3203-4-9"
         sodipodi:linespacing="125%"
         transform="scale(0.99910701,-1.0008938)"><tspan
           sodipodi:role="line"
           id="tspan3205-1-9"
           x="421.46478"
           y="-470.13345">phase 1</tspan></text>
<path
         style="fill:none;stroke:#000000;stroke-width:4.60833549px;stroke-linecap:butt;stroke-linejoin:miter;stroke-opacity:1"
         d="m 1576.9321,112.84894 1314.7861,8.3748"
         id="path6367-4-2"
         inkscape:connector-curvature="0" /><path
         inkscape:connector-curvature="0"
         d="m 1578.7756,93.709136 -0.046,36.895704 -31.7423,-18.5966 31.7884,-18.299104"
         style="fill:#000000;fill-opacity:1;fill-rule:evenodd;stroke:none"
         id="path3414-0-3-6" /><path
         inkscape:connector-curvature="0"
         d="m 2886.7473,141.66604 -0.4254,-37.677 23.5132,18.44 -23.0876,19.2371"
         style="fill:#000000;fill-opacity:1;fill-rule:evenodd;stroke:none"
         id="path3414-0-8-5-5-0-5"
         inkscape:transform-center-x="16.653954"
         inkscape:transform-center-y="1182.6864" /><path
         style="fill:none;stroke:#000000;stroke-width:7.54174232px;stroke-linecap:butt;stroke-linejoin:miter;stroke-opacity:1"
         d="m 2135.1347,622.84919 178.4541,0.053 0,0"
         id="path6365-9-0-4-1-9-7"
         inkscape:connector-curvature="0" /><path
         style="fill:none;stroke:#000000;stroke-width:7.55150461px;stroke-linecap:butt;stroke-linejoin:miter;stroke-opacity:1"
         d="m 2559.032,626.17669 216.3798,0.044 0,0"
         id="path6365-9-0-4-1-6-9-6"
         inkscape:connector-curvature="0" /><path
         inkscape:connector-curvature="0"
         d="m 2136.4485,622.54279 16.3614,25.8678 -54.7996,-28.5464 63.7411,-25.8753"
         style="fill:#000000;fill-opacity:1;fill-rule:evenodd;stroke:none"
         id="path3414-0-8-5-52-3-13-4"
         inkscape:transform-center-x="-12434.953"
         inkscape:transform-center-y="-92.947996"
         sodipodi:nodetypes="cccc" /><path
         inkscape:connector-curvature="0"
         d="m 2821.6057,627.52189 -73.1781,26.9281 26.3201,-27.0069 -17.0943,-27.3544"
         style="fill:#000000;fill-opacity:1;fill-rule:evenodd;stroke:none"
         id="path3414-0-8-5-52-3-4-0-5"
         inkscape:transform-center-x="-149628.92"
         inkscape:transform-center-y="108.30863"
         sodipodi:nodetypes="cccc" /><text
         xml:space="preserve"
         style="font-size:52.58837128px;font-style:normal;font-variant:normal;font-weight:normal;font-stretch:normal;text-align:center;line-height:125%;letter-spacing:0px;word-spacing:0px;writing-mode:lr-tb;text-anchor:middle;fill:#000000;fill-opacity:1;stroke:none;font-family:Sans;-inkscape-font-specification:Sans"
         x="2422.7229"
         y="-616.76367"
         id="text3203-6-1"
         sodipodi:linespacing="125%"
         transform="scale(1.0063283,-0.99371151)"><tspan
           sodipodi:role="line"
           id="tspan3205-5-7"
           x="2422.7229"
           y="-616.76367">phase 2</tspan></text>
<path
         style="fill:none;stroke:#000000;stroke-width:8.20367146px;stroke-linecap:butt;stroke-linejoin:miter;stroke-opacity:1"
         d="m 1734.3756,496.17749 73.7603,0.1527 0,0"
         id="path6365-9-0-4-1-1-3-3"
         inkscape:connector-curvature="0" /><path
         style="fill:none;stroke:#000000;stroke-width:7.91208601px;stroke-linecap:butt;stroke-linejoin:miter;stroke-opacity:1"
         d="m 1981.2756,498.82309 61.7589,0.1697 0,0"
         id="path6365-9-0-4-1-6-5-7-8"
         inkscape:connector-curvature="0" /><path
         inkscape:connector-curvature="0"
         d="m 1736.1056,498.91719 11.9998,21.1121 -40.1912,-23.2982 46.7492,-21.1183"
         style="fill:#000000;fill-opacity:1;fill-rule:evenodd;stroke:none"
         id="path3414-0-8-5-52-3-7-1-9"
         inkscape:transform-center-x="-109738.04"
         inkscape:transform-center-y="819.8443"
         sodipodi:nodetypes="cccc" /><path
         inkscape:connector-curvature="0"
         d="m 2078.4507,498.84519 -51.4128,23.1159 18.4918,-23.1835 -12.01,-23.4818"
         style="fill:#000000;fill-opacity:1;fill-rule:evenodd;stroke:none"
         id="path3414-0-8-5-52-3-4-1-1-7"
         inkscape:transform-center-x="-1264928.7"
         inkscape:transform-center-y="-1004.8154"
         sodipodi:nodetypes="cccc" /><text
         xml:space="preserve"
         style="font-size:44.90446091px;font-style:normal;font-variant:normal;font-weight:normal;font-stretch:normal;text-align:center;line-height:125%;letter-spacing:0px;word-spacing:0px;writing-mode:lr-tb;text-anchor:middle;fill:#000000;fill-opacity:1;stroke:none;font-family:Sans;-inkscape-font-specification:Sans"
         x="1902.1769"
         y="-486.62061"
         id="text3203-4-9-3"
         sodipodi:linespacing="125%"
         transform="scale(0.99910699,-1.0008938)"><tspan
           sodipodi:role="line"
           id="tspan3205-1-9-8"
           x="1902.1769"
           y="-486.62061">phase 1</tspan></text>
<text
         xml:space="preserve"
         style="font-size:88.35353851px;font-style:normal;font-variant:normal;font-weight:normal;font-stretch:normal;text-align:center;line-height:125%;letter-spacing:0px;word-spacing:0px;writing-mode:lr-tb;text-anchor:middle;fill:#000000;fill-opacity:1;stroke:none;font-family:Sans;-inkscape-font-specification:Sans"
         x="2369.7671"
         y="-955.27014"
         id="text3470-9"
         sodipodi:linespacing="125%"
         transform="scale(0.98086681,-1.0195064)"><tspan
           sodipodi:role="line"
           x="2369.7671"
           y="-955.27014"
           id="tspan6672-4" /><tspan
           sodipodi:role="line"
           x="2369.7671"
           y="-844.82825"
           id="tspan3317">Co-located Execution</tspan><tspan
           sodipodi:role="line"
           x="2369.7671"
           y="-734.38629"
           id="tspan6339-7" /></text>
<text
         xml:space="preserve"
         style="font-size:129.48164368px;font-style:normal;font-variant:normal;font-weight:normal;font-stretch:normal;text-align:center;line-height:125%;letter-spacing:0px;word-spacing:0px;writing-mode:lr-tb;text-anchor:middle;fill:#000000;fill-opacity:1;stroke:none;font-family:Sans;-inkscape-font-specification:Sans"
         x="2175.0364"
         y="30.692059"
         id="text3113-0"
         sodipodi:linespacing="125%"
         transform="scale(1.026934,-0.97377243)"><tspan
           sodipodi:role="line"
           x="2175.0364"
           y="30.692059"
           id="tspan3340">(b)</tspan></text>
<path
         style="fill:none;stroke:#000000;stroke-width:4.60833549px;stroke-linecap:butt;stroke-linejoin:miter;stroke-opacity:1"
         d="m 3177.4192,115.2491 1314.7861,8.3748"
         id="path6367-4-2-8"
         inkscape:connector-curvature="0" /><path
         inkscape:connector-curvature="0"
         d="m 3179.2627,96.109305 -0.046,36.895695 -31.7423,-18.5966 31.7884,-18.299095"
         style="fill:#000000;fill-opacity:1;fill-rule:evenodd;stroke:none"
         id="path3414-0-3-6-3" /><path
         inkscape:connector-curvature="0"
         d="m 4487.2344,144.06621 -0.4255,-37.67701 23.5133,18.44 -23.0877,19.23711"
         style="fill:#000000;fill-opacity:1;fill-rule:evenodd;stroke:none"
         id="path3414-0-8-5-5-0-5-9"
         inkscape:transform-center-x="200.39033"
         inkscape:transform-center-y="-12781.697" /><path
         style="fill:none;stroke:#000000;stroke-width:7.54174232px;stroke-linecap:butt;stroke-linejoin:miter;stroke-opacity:1"
         d="m 3703.8582,682.55188 178.4541,0.053 0,0"
         id="path6365-9-0-4-1-9-7-9"
         inkscape:connector-curvature="0" /><path
         style="fill:none;stroke:#000000;stroke-width:7.55150414px;stroke-linecap:butt;stroke-linejoin:miter;stroke-opacity:1"
         d="m 4127.7555,685.87938 216.3798,0.044 0,0"
         id="path6365-9-0-4-1-6-9-6-2"
         inkscape:connector-curvature="0" /><path
         inkscape:connector-curvature="0"
         d="m 3705.172,682.24548 16.3614,25.8678 -54.7996,-28.5464 63.7411,-25.8753"
         style="fill:#000000;fill-opacity:1;fill-rule:evenodd;stroke:none"
         id="path3414-0-8-5-52-3-13-4-0"
         inkscape:transform-center-x="-149624.78"
         inkscape:transform-center-y="1004.5208"
         sodipodi:nodetypes="cccc" /><path
         inkscape:connector-curvature="0"
         d="m 4390.3292,687.22458 -73.1781,26.9281 26.3201,-27.0069 -17.0943,-27.3544"
         style="fill:#000000;fill-opacity:1;fill-rule:evenodd;stroke:none"
         id="path3414-0-8-5-52-3-4-0-5-9"
         inkscape:transform-center-x="-1800424.6"
         inkscape:transform-center-y="-1170.5284"
         sodipodi:nodetypes="cccc" /><text
         xml:space="preserve"
         style="font-size:52.58837128px;font-style:normal;font-variant:normal;font-weight:normal;font-stretch:normal;text-align:center;line-height:125%;letter-spacing:0px;word-spacing:0px;writing-mode:lr-tb;text-anchor:middle;fill:#000000;fill-opacity:1;stroke:none;font-family:Sans;-inkscape-font-specification:Sans"
         x="3981.5818"
         y="-676.84418"
         id="text3203-6-1-6"
         sodipodi:linespacing="125%"
         transform="scale(1.0063283,-0.99371151)"><tspan
           sodipodi:role="line"
           id="tspan3205-5-7-6"
           x="3981.5818"
           y="-676.84418">phase 2</tspan></text>
<path
         style="fill:none;stroke:#000000;stroke-width:8.20367146px;stroke-linecap:butt;stroke-linejoin:miter;stroke-opacity:1"
         d="m 3327.1643,555.88018 73.7603,0.1527 0,0"
         id="path6365-9-0-4-1-1-3-3-4"
         inkscape:connector-curvature="0" /><path
         style="fill:none;stroke:#000000;stroke-width:7.91208601px;stroke-linecap:butt;stroke-linejoin:miter;stroke-opacity:1"
         d="m 3574.0643,558.52578 61.7589,0.1696 0,0"
         id="path6365-9-0-4-1-6-5-7-8-3"
         inkscape:connector-curvature="0" /><path
         inkscape:connector-curvature="0"
         d="m 3328.8943,558.61988 11.9998,21.1121 -40.1912,-23.2982 46.7492,-21.1183"
         style="fill:#000000;fill-opacity:1;fill-rule:evenodd;stroke:none"
         id="path3414-0-8-5-52-3-7-1-9-2"
         inkscape:transform-center-x="-1320433.7"
         inkscape:transform-center-y="-8860.3379"
         sodipodi:nodetypes="cccc" /><path
         inkscape:connector-curvature="0"
         d="m 3671.2394,558.54788 -51.4128,23.1159 18.4918,-23.1835 -12.01,-23.4818"
         style="fill:#000000;fill-opacity:1;fill-rule:evenodd;stroke:none"
         id="path3414-0-8-5-52-3-4-1-1-7-8"
         inkscape:transform-center-x="-15220378"
         inkscape:transform-center-y="10859.384"
         sodipodi:nodetypes="cccc" /><text
         xml:space="preserve"
         style="font-size:44.90446091px;font-style:normal;font-variant:normal;font-weight:normal;font-stretch:normal;text-align:center;line-height:125%;letter-spacing:0px;word-spacing:0px;writing-mode:lr-tb;text-anchor:middle;fill:#000000;fill-opacity:1;stroke:none;font-family:Sans;-inkscape-font-specification:Sans"
         x="3496.3894"
         y="-546.26984"
         id="text3203-4-9-3-0"
         sodipodi:linespacing="125%"
         transform="scale(0.99910699,-1.0008938)"><tspan
           sodipodi:role="line"
           id="tspan3205-1-9-8-5"
           x="3496.3894"
           y="-546.26984">phase 1</tspan></text>
<text
         xml:space="preserve"
         style="font-size:88.35353851px;font-style:normal;font-variant:normal;font-weight:normal;font-stretch:normal;text-align:center;line-height:125%;letter-spacing:0px;word-spacing:0px;writing-mode:lr-tb;text-anchor:middle;fill:#000000;fill-opacity:1;stroke:none;font-family:Sans;-inkscape-font-specification:Sans"
         x="3957.2666"
         y="-950.71393"
         id="text3470-9-1"
         sodipodi:linespacing="125%"
         transform="scale(0.98086681,-1.0195064)"><tspan
           sodipodi:role="line"
           x="3957.2666"
           y="-950.71393"
           id="tspan6672-4-5" /><tspan
           sodipodi:role="line"
           x="3957.2666"
           y="-840.27203"
           id="tspan3317-7">Co-located Execution</tspan><tspan
           sodipodi:role="line"
           x="3957.2666"
           y="-729.83008"
           id="tspan6339-7-9" /></text>
<text
         xml:space="preserve"
         style="font-size:88.35353851px;font-style:normal;font-variant:normal;font-weight:normal;font-stretch:normal;text-align:center;line-height:125%;letter-spacing:0px;word-spacing:0px;writing-mode:lr-tb;text-anchor:middle;fill:#000000;fill-opacity:1;stroke:none;font-family:Sans;-inkscape-font-specification:Sans"
         x="2529.2751"
         y="-250.91122"
         id="text3470-9-1-0"
         sodipodi:linespacing="125%"
         transform="scale(0.98086681,-1.0195064)"><tspan
           sodipodi:role="line"
           x="2529.2751"
           y="-250.91122"
           id="tspan6339-7-9-2">PMU typeX</tspan></text>
<text
         xml:space="preserve"
         style="font-size:88.35353851px;font-style:normal;font-variant:normal;font-weight:normal;font-stretch:normal;text-align:center;line-height:125%;letter-spacing:0px;word-spacing:0px;writing-mode:lr-tb;text-anchor:middle;fill:#000000;fill-opacity:1;stroke:none;font-family:Sans;-inkscape-font-specification:Sans"
         x="4307.6191"
         y="-175.23686"
         id="text3470-9-1-0-5"
         sodipodi:linespacing="125%"
         transform="scale(0.98086681,-1.0195064)"><tspan
           sodipodi:role="line"
           x="4307.6191"
           y="-175.23686"
           id="tspan6339-7-9-2-7">PMU typeY</tspan></text>
</g></g></svg>