<?xml version="1.0" encoding="UTF-8" standalone="no"?>
<!-- Created with Inkscape (http://www.inkscape.org/) -->

<svg
   xmlns:dc="http://purl.org/dc/elements/1.1/"
   xmlns:cc="http://creativecommons.org/ns#"
   xmlns:rdf="http://www.w3.org/1999/02/22-rdf-syntax-ns#"
   xmlns:svg="http://www.w3.org/2000/svg"
   xmlns="http://www.w3.org/2000/svg"
   xmlns:sodipodi="http://sodipodi.sourceforge.net/DTD/sodipodi-0.dtd"
   xmlns:inkscape="http://www.inkscape.org/namespaces/inkscape"
   id="svg2"
   version="1.1"
   inkscape:version="0.48.4 r9939"
   width="300"
   height="136.25"
   xml:space="preserve"
   sodipodi:docname="type2.pdf"><metadata
     id="metadata8"><rdf:RDF><cc:Work
         rdf:about=""><dc:format>image/svg+xml</dc:format><dc:type
           rdf:resource="http://purl.org/dc/dcmitype/StillImage" /><dc:title></dc:title></cc:Work></rdf:RDF></metadata><defs
     id="defs6"><marker
       inkscape:stockid="DotM"
       orient="auto"
       refY="0"
       refX="0"
       id="DotM"
       style="overflow:visible"><path
         id="path4147"
         d="m -2.5,-1 c 0,2.76 -2.24,5 -5,5 -2.76,0 -5,-2.24 -5,-5 0,-2.76 2.24,-5 5,-5 2.76,0 5,2.24 5,5 z"
         style="fill-rule:evenodd;stroke:#000000;stroke-width:1pt"
         transform="matrix(0.4,0,0,0.4,2.96,0.4)"
         inkscape:connector-curvature="0" /></marker><marker
       inkscape:stockid="StopL"
       orient="auto"
       refY="0"
       refX="0"
       id="StopL"
       style="overflow:visible"><path
         id="path4252"
         d="M 0,5.65 0,-5.65"
         style="fill:none;stroke:#000000;stroke-width:1pt"
         transform="scale(0.8,0.8)"
         inkscape:connector-curvature="0" /></marker><marker
       inkscape:stockid="SquareS"
       orient="auto"
       refY="0"
       refX="0"
       id="SquareS"
       style="overflow:visible"><path
         id="path4159"
         d="M -5,-5 -5,5 5,5 5,-5 -5,-5 z"
         style="fill-rule:evenodd;stroke:#000000;stroke-width:1pt"
         transform="scale(0.2,0.2)"
         inkscape:connector-curvature="0" /></marker><marker
       inkscape:stockid="SemiCircleOut"
       orient="auto"
       refY="0"
       refX="0"
       id="SemiCircleOut"
       style="overflow:visible"><path
         id="path4264"
         d="m -2.5,-0.80913858 c 0,2.75999998 -2.24,4.99999998 -5,4.99999998 l 0,-10 c 2.76,0 5,2.24 5,5.00000002 z"
         style="fill-rule:evenodd;stroke:#000000;stroke-width:1pt"
         transform="matrix(0.6,0,0,0.6,4.2752958,0.4580676)"
         inkscape:connector-curvature="0" /></marker><marker
       inkscape:stockid="EmptyTriangleInM"
       orient="auto"
       refY="0"
       refX="0"
       id="EmptyTriangleInM"
       style="overflow:visible"><path
         id="path4237"
         d="m 5.77,0 -8.65,5 0,-10 8.65,5 z"
         style="fill:#ffffff;fill-rule:evenodd;stroke:#000000;stroke-width:1pt"
         transform="matrix(-0.4,0,0,-0.4,1.8,0)"
         inkscape:connector-curvature="0" /></marker><marker
       inkscape:stockid="CurvyCross"
       orient="auto"
       refY="0"
       refX="0"
       id="CurvyCross"
       style="overflow:visible"><g
         id="g4273"
         transform="scale(0.6,0.6)"><path
           id="path4275"
           d="m 4.625493,-5.0456926 c -2.76,0 -5.00000002,2.24 -5.00000002,5.00000002 0,2.75999998 2.24000002,4.99999998 5.00000002,4.99999998"
           style="fill:none;stroke:#000000;stroke-width:1pt"
           inkscape:connector-curvature="0" /><path
           id="path4277"
           d="m -5.4129913,-5.0456926 c 2.76,0 4.99999999,2.24 4.99999999,5.00000002 0,2.75999998 -2.23999999,4.99999998 -4.99999999,4.99999998"
           style="fill:none;stroke:#000000;stroke-width:1pt"
           inkscape:connector-curvature="0" /></g></marker><marker
       inkscape:stockid="StopM"
       orient="auto"
       refY="0"
       refX="0"
       id="StopM"
       style="overflow:visible"><path
         id="path4255"
         d="M 0,5.65 0,-5.65"
         style="fill:none;stroke:#000000;stroke-width:1pt"
         transform="scale(0.4,0.4)"
         inkscape:connector-curvature="0" /></marker><marker
       inkscape:stockid="EmptyDiamondMstart"
       orient="auto"
       refY="0"
       refX="0"
       id="EmptyDiamondMstart"
       style="overflow:visible"><path
         id="path4201"
         d="M 0,-7.0710768 -7.0710894,0 0,7.0710589 7.0710462,0 0,-7.0710768 z"
         style="fill:#ffffff;fill-rule:evenodd;stroke:#000000;stroke-width:1pt"
         transform="matrix(0.4,0,0,0.4,2.6,0)"
         inkscape:connector-curvature="0" /></marker><marker
       inkscape:stockid="EmptyDiamondM"
       orient="auto"
       refY="0"
       refX="0"
       id="EmptyDiamondM"
       style="overflow:visible"><path
         id="path4192"
         d="M 0,-7.0710768 -7.0710894,0 0,7.0710589 7.0710462,0 0,-7.0710768 z"
         style="fill:#ffffff;fill-rule:evenodd;stroke:#000000;stroke-width:1pt"
         transform="scale(0.4,0.4)"
         inkscape:connector-curvature="0" /></marker><marker
       inkscape:stockid="DiamondMend"
       orient="auto"
       refY="0"
       refX="0"
       id="DiamondMend"
       style="overflow:visible"><path
         id="path4183"
         d="M 0,-7.0710768 -7.0710894,0 0,7.0710589 7.0710462,0 0,-7.0710768 z"
         style="fill-rule:evenodd;stroke:#000000;stroke-width:1pt"
         transform="matrix(0.4,0,0,0.4,-2.6,0)"
         inkscape:connector-curvature="0" /></marker><marker
       inkscape:stockid="DotS"
       orient="auto"
       refY="0"
       refX="0"
       id="DotS"
       style="overflow:visible"><path
         id="path4150"
         d="m -2.5,-1 c 0,2.76 -2.24,5 -5,5 -2.76,0 -5,-2.24 -5,-5 0,-2.76 2.24,-5 5,-5 2.76,0 5,2.24 5,5 z"
         style="fill-rule:evenodd;stroke:#000000;stroke-width:1pt"
         transform="matrix(0.2,0,0,0.2,1.48,0.2)"
         inkscape:connector-curvature="0" /></marker><clipPath
       clipPathUnits="userSpaceOnUse"
       id="clipPath72"><path
         d="M 0,1530 0,0 l 5400,0 0,1530 -5400,0 z m 1166.24,-1114.961 -43.46,-29.605 21.42,-31.496 43.46,29.605 0,0 -41.57,-5.668 20.15,37.164 z"
         clip-rule="evenodd"
         id="path74"
         inkscape:connector-curvature="0" /></clipPath><clipPath
       clipPathUnits="userSpaceOnUse"
       id="clipPath110"><path
         d="M 0,1530 0,0 l 5400,0 0,1530 -5400,0 z m 2866.34,-1315.898 42.21,0 0,37.793 -42.21,0 0,0 28.35,-18.899 -28.35,-18.894 z"
         clip-rule="evenodd"
         id="path112"
         inkscape:connector-curvature="0" /></clipPath><clipPath
       clipPathUnits="userSpaceOnUse"
       id="clipPath148"><path
         d="M 0,1530 0,0 l 5400,0 0,1530 -5400,0 z m 4680.46,-1315.898 42.2,0 0,37.793 -42.2,0 0,0 28.34,-18.899 -28.34,-18.894 z"
         clip-rule="evenodd"
         id="path150"
         inkscape:connector-curvature="0" /></clipPath><marker
       inkscape:stockid="EmptyDiamondMstart"
       orient="auto"
       refY="0"
       refX="0"
       id="EmptyDiamondMstart-4"
       style="overflow:visible"><path
         inkscape:connector-curvature="0"
         id="path4201-3"
         d="M 0,-7.0710768 -7.0710894,0 0,7.0710589 7.0710462,0 0,-7.0710768 z"
         style="fill:#ffffff;fill-rule:evenodd;stroke:#000000;stroke-width:1pt"
         transform="matrix(0.4,0,0,0.4,2.6,0)" /></marker><marker
       inkscape:stockid="EmptyDiamondMstart"
       orient="auto"
       refY="0"
       refX="0"
       id="EmptyDiamondMstart-6"
       style="overflow:visible"><path
         inkscape:connector-curvature="0"
         id="path4201-4"
         d="M 0,-7.0710768 -7.0710894,0 0,7.0710589 7.0710462,0 0,-7.0710768 z"
         style="fill:#ffffff;fill-rule:evenodd;stroke:#000000;stroke-width:1pt"
         transform="matrix(0.4,0,0,0.4,2.6,0)" /></marker><marker
       inkscape:stockid="EmptyDiamondMstart"
       orient="auto"
       refY="0"
       refX="0"
       id="EmptyDiamondMstart-5"
       style="overflow:visible"><path
         inkscape:connector-curvature="0"
         id="path4201-40"
         d="M 0,-7.0710768 -7.0710894,0 0,7.0710589 7.0710462,0 0,-7.0710768 z"
         style="fill:#ffffff;fill-rule:evenodd;stroke:#000000;stroke-width:1pt"
         transform="matrix(0.4,0,0,0.4,2.6,0)" /></marker><marker
       inkscape:stockid="EmptyDiamondMstart"
       orient="auto"
       refY="0"
       refX="0"
       id="EmptyDiamondMstart-8"
       style="overflow:visible"><path
         inkscape:connector-curvature="0"
         id="path4201-33"
         d="M 0,-7.0710768 -7.0710894,0 0,7.0710589 7.0710462,0 0,-7.0710768 z"
         style="fill:#ffffff;fill-rule:evenodd;stroke:#000000;stroke-width:1pt"
         transform="matrix(0.4,0,0,0.4,2.6,0)" /></marker><marker
       inkscape:stockid="EmptyDiamondMstart"
       orient="auto"
       refY="0"
       refX="0"
       id="EmptyDiamondMstart-58"
       style="overflow:visible"><path
         inkscape:connector-curvature="0"
         id="path4201-9"
         d="M 0,-7.0710768 -7.0710894,0 0,7.0710589 7.0710462,0 0,-7.0710768 z"
         style="fill:#ffffff;fill-rule:evenodd;stroke:#000000;stroke-width:1pt"
         transform="matrix(0.4,0,0,0.4,2.6,0)" /></marker><marker
       inkscape:stockid="EmptyDiamondMstart"
       orient="auto"
       refY="0"
       refX="0"
       id="EmptyDiamondMstart-63"
       style="overflow:visible"><path
         inkscape:connector-curvature="0"
         id="path4201-0"
         d="M 0,-7.0710768 -7.0710894,0 0,7.0710589 7.0710462,0 0,-7.0710768 z"
         style="fill:#ffffff;fill-rule:evenodd;stroke:#000000;stroke-width:1pt"
         transform="matrix(0.4,0,0,0.4,2.6,0)" /></marker><marker
       inkscape:stockid="DotS"
       orient="auto"
       refY="0"
       refX="0"
       id="DotS-3"
       style="overflow:visible"><path
         inkscape:connector-curvature="0"
         id="path4150-3"
         d="m -2.5,-1 c 0,2.76 -2.24,5 -5,5 -2.76,0 -5,-2.24 -5,-5 0,-2.76 2.24,-5 5,-5 2.76,0 5,2.24 5,5 z"
         style="fill-rule:evenodd;stroke:#000000;stroke-width:1pt"
         transform="matrix(0.2,0,0,0.2,1.48,0.2)" /></marker><marker
       inkscape:stockid="DotS"
       orient="auto"
       refY="0"
       refX="0"
       id="DotS-1"
       style="overflow:visible"><path
         inkscape:connector-curvature="0"
         id="path4150-4"
         d="m -2.5,-1 c 0,2.76 -2.24,5 -5,5 -2.76,0 -5,-2.24 -5,-5 0,-2.76 2.24,-5 5,-5 2.76,0 5,2.24 5,5 z"
         style="fill-rule:evenodd;stroke:#000000;stroke-width:1pt"
         transform="matrix(0.2,0,0,0.2,1.48,0.2)" /></marker><marker
       inkscape:stockid="DotS"
       orient="auto"
       refY="0"
       refX="0"
       id="marker6453"
       style="overflow:visible"><path
         inkscape:connector-curvature="0"
         id="path6455"
         d="m -2.5,-1 c 0,2.76 -2.24,5 -5,5 -2.76,0 -5,-2.24 -5,-5 0,-2.76 2.24,-5 5,-5 2.76,0 5,2.24 5,5 z"
         style="fill-rule:evenodd;stroke:#000000;stroke-width:1pt"
         transform="matrix(0.2,0,0,0.2,1.48,0.2)" /></marker><marker
       inkscape:stockid="DotS"
       orient="auto"
       refY="0"
       refX="0"
       id="marker6457"
       style="overflow:visible"><path
         inkscape:connector-curvature="0"
         id="path6459"
         d="m -2.5,-1 c 0,2.76 -2.24,5 -5,5 -2.76,0 -5,-2.24 -5,-5 0,-2.76 2.24,-5 5,-5 2.76,0 5,2.24 5,5 z"
         style="fill-rule:evenodd;stroke:#000000;stroke-width:1pt"
         transform="matrix(0.2,0,0,0.2,1.48,0.2)" /></marker><marker
       inkscape:stockid="DotS"
       orient="auto"
       refY="0"
       refX="0"
       id="marker6461"
       style="overflow:visible"><path
         inkscape:connector-curvature="0"
         id="path6463"
         d="m -2.5,-1 c 0,2.76 -2.24,5 -5,5 -2.76,0 -5,-2.24 -5,-5 0,-2.76 2.24,-5 5,-5 2.76,0 5,2.24 5,5 z"
         style="fill-rule:evenodd;stroke:#000000;stroke-width:1pt"
         transform="matrix(0.2,0,0,0.2,1.48,0.2)" /></marker><marker
       inkscape:stockid="DotS"
       orient="auto"
       refY="0"
       refX="0"
       id="marker6465"
       style="overflow:visible"><path
         inkscape:connector-curvature="0"
         id="path6467"
         d="m -2.5,-1 c 0,2.76 -2.24,5 -5,5 -2.76,0 -5,-2.24 -5,-5 0,-2.76 2.24,-5 5,-5 2.76,0 5,2.24 5,5 z"
         style="fill-rule:evenodd;stroke:#000000;stroke-width:1pt"
         transform="matrix(0.2,0,0,0.2,1.48,0.2)" /></marker><marker
       inkscape:stockid="DotS"
       orient="auto"
       refY="0"
       refX="0"
       id="marker6469"
       style="overflow:visible"><path
         inkscape:connector-curvature="0"
         id="path6471"
         d="m -2.5,-1 c 0,2.76 -2.24,5 -5,5 -2.76,0 -5,-2.24 -5,-5 0,-2.76 2.24,-5 5,-5 2.76,0 5,2.24 5,5 z"
         style="fill-rule:evenodd;stroke:#000000;stroke-width:1pt"
         transform="matrix(0.2,0,0,0.2,1.48,0.2)" /></marker><clipPath
       clipPathUnits="userSpaceOnUse"
       id="clipPath72-9"><path
         inkscape:connector-curvature="0"
         d="M 0,1530 0,0 l 5400,0 0,1530 -5400,0 z m 1166.24,-1114.961 -43.46,-29.605 21.42,-31.496 43.46,29.605 0,0 -41.57,-5.668 20.15,37.164 z"
         clip-rule="evenodd"
         id="path74-7" /></clipPath><marker
       inkscape:stockid="DotS"
       orient="auto"
       refY="0"
       refX="0"
       id="marker6475"
       style="overflow:visible"><path
         inkscape:connector-curvature="0"
         id="path6477"
         d="m -2.5,-1 c 0,2.76 -2.24,5 -5,5 -2.76,0 -5,-2.24 -5,-5 0,-2.76 2.24,-5 5,-5 2.76,0 5,2.24 5,5 z"
         style="fill-rule:evenodd;stroke:#000000;stroke-width:1pt"
         transform="matrix(0.2,0,0,0.2,1.48,0.2)" /></marker><marker
       inkscape:stockid="DotS"
       orient="auto"
       refY="0"
       refX="0"
       id="DotS-6"
       style="overflow:visible"><path
         inkscape:connector-curvature="0"
         id="path4150-6"
         d="m -2.5,-1 c 0,2.76 -2.24,5 -5,5 -2.76,0 -5,-2.24 -5,-5 0,-2.76 2.24,-5 5,-5 2.76,0 5,2.24 5,5 z"
         style="fill-rule:evenodd;stroke:#000000;stroke-width:1pt"
         transform="matrix(0.2,0,0,0.2,1.48,0.2)" /></marker><marker
       inkscape:stockid="DotS"
       orient="auto"
       refY="0"
       refX="0"
       id="DotS-4"
       style="overflow:visible"><path
         inkscape:connector-curvature="0"
         id="path4150-2"
         d="m -2.5,-1 c 0,2.76 -2.24,5 -5,5 -2.76,0 -5,-2.24 -5,-5 0,-2.76 2.24,-5 5,-5 2.76,0 5,2.24 5,5 z"
         style="fill-rule:evenodd;stroke:#000000;stroke-width:1pt"
         transform="matrix(0.2,0,0,0.2,1.48,0.2)" /></marker><marker
       inkscape:stockid="DotS"
       orient="auto"
       refY="0"
       refX="0"
       id="DotS-9"
       style="overflow:visible"><path
         inkscape:connector-curvature="0"
         id="path4150-7"
         d="m -2.5,-1 c 0,2.76 -2.24,5 -5,5 -2.76,0 -5,-2.24 -5,-5 0,-2.76 2.24,-5 5,-5 2.76,0 5,2.24 5,5 z"
         style="fill-rule:evenodd;stroke:#000000;stroke-width:1pt"
         transform="matrix(0.2,0,0,0.2,1.48,0.2)" /></marker><marker
       inkscape:stockid="DotS"
       orient="auto"
       refY="0"
       refX="0"
       id="DotS-12"
       style="overflow:visible"><path
         inkscape:connector-curvature="0"
         id="path4150-27"
         d="m -2.5,-1 c 0,2.76 -2.24,5 -5,5 -2.76,0 -5,-2.24 -5,-5 0,-2.76 2.24,-5 5,-5 2.76,0 5,2.24 5,5 z"
         style="fill-rule:evenodd;stroke:#000000;stroke-width:1pt"
         transform="matrix(0.2,0,0,0.2,1.48,0.2)" /></marker><marker
       inkscape:stockid="DotM"
       orient="auto"
       refY="0"
       refX="0"
       id="DotM-2"
       style="overflow:visible"><path
         inkscape:connector-curvature="0"
         id="path4147-2"
         d="m -2.5,-1 c 0,2.76 -2.24,5 -5,5 -2.76,0 -5,-2.24 -5,-5 0,-2.76 2.24,-5 5,-5 2.76,0 5,2.24 5,5 z"
         style="fill-rule:evenodd;stroke:#000000;stroke-width:1pt"
         transform="matrix(0.4,0,0,0.4,2.96,0.4)" /></marker><marker
       inkscape:stockid="DotM"
       orient="auto"
       refY="0"
       refX="0"
       id="marker5303"
       style="overflow:visible"><path
         inkscape:connector-curvature="0"
         id="path5305"
         d="m -2.5,-1 c 0,2.76 -2.24,5 -5,5 -2.76,0 -5,-2.24 -5,-5 0,-2.76 2.24,-5 5,-5 2.76,0 5,2.24 5,5 z"
         style="fill-rule:evenodd;stroke:#000000;stroke-width:1pt"
         transform="matrix(0.4,0,0,0.4,2.96,0.4)" /></marker><marker
       inkscape:stockid="DotM"
       orient="auto"
       refY="0"
       refX="0"
       id="marker5307"
       style="overflow:visible"><path
         inkscape:connector-curvature="0"
         id="path5309"
         d="m -2.5,-1 c 0,2.76 -2.24,5 -5,5 -2.76,0 -5,-2.24 -5,-5 0,-2.76 2.24,-5 5,-5 2.76,0 5,2.24 5,5 z"
         style="fill-rule:evenodd;stroke:#000000;stroke-width:1pt"
         transform="matrix(0.4,0,0,0.4,2.96,0.4)" /></marker><marker
       inkscape:stockid="DotS"
       orient="auto"
       refY="0"
       refX="0"
       id="DotS-18"
       style="overflow:visible"><path
         inkscape:connector-curvature="0"
         id="path4150-1"
         d="m -2.5,-1 c 0,2.76 -2.24,5 -5,5 -2.76,0 -5,-2.24 -5,-5 0,-2.76 2.24,-5 5,-5 2.76,0 5,2.24 5,5 z"
         style="fill-rule:evenodd;stroke:#000000;stroke-width:1pt"
         transform="matrix(0.2,0,0,0.2,1.48,0.2)" /></marker><marker
       inkscape:stockid="DotS"
       orient="auto"
       refY="0"
       refX="0"
       id="marker3152"
       style="overflow:visible"><path
         inkscape:connector-curvature="0"
         id="path3154"
         d="m -2.5,-1 c 0,2.76 -2.24,5 -5,5 -2.76,0 -5,-2.24 -5,-5 0,-2.76 2.24,-5 5,-5 2.76,0 5,2.24 5,5 z"
         style="fill-rule:evenodd;stroke:#000000;stroke-width:1pt"
         transform="matrix(0.2,0,0,0.2,1.48,0.2)" /></marker><marker
       inkscape:stockid="DotS"
       orient="auto"
       refY="0"
       refX="0"
       id="DotS-95"
       style="overflow:visible"><path
         id="path4150-49"
         d="m -2.5,-1 c 0,2.76 -2.24,5 -5,5 -2.76,0 -5,-2.24 -5,-5 0,-2.76 2.24,-5 5,-5 2.76,0 5,2.24 5,5 z"
         style="fill-rule:evenodd;stroke:#000000;stroke-width:1pt"
         transform="matrix(0.2,0,0,0.2,1.48,0.2)"
         inkscape:connector-curvature="0" /></marker><marker
       inkscape:stockid="DotS"
       orient="auto"
       refY="0"
       refX="0"
       id="marker3152-4"
       style="overflow:visible"><path
         id="path3154-1"
         d="m -2.5,-1 c 0,2.76 -2.24,5 -5,5 -2.76,0 -5,-2.24 -5,-5 0,-2.76 2.24,-5 5,-5 2.76,0 5,2.24 5,5 z"
         style="fill-rule:evenodd;stroke:#000000;stroke-width:1pt"
         transform="matrix(0.2,0,0,0.2,1.48,0.2)"
         inkscape:connector-curvature="0" /></marker><marker
       inkscape:stockid="DotS"
       orient="auto"
       refY="0"
       refX="0"
       id="marker3156"
       style="overflow:visible"><path
         id="path3158"
         d="m -2.5,-1 c 0,2.76 -2.24,5 -5,5 -2.76,0 -5,-2.24 -5,-5 0,-2.76 2.24,-5 5,-5 2.76,0 5,2.24 5,5 z"
         style="fill-rule:evenodd;stroke:#000000;stroke-width:1pt"
         transform="matrix(0.2,0,0,0.2,1.48,0.2)"
         inkscape:connector-curvature="0" /></marker><marker
       inkscape:stockid="DotS"
       orient="auto"
       refY="0"
       refX="0"
       id="marker3160"
       style="overflow:visible"><path
         id="path3162"
         d="m -2.5,-1 c 0,2.76 -2.24,5 -5,5 -2.76,0 -5,-2.24 -5,-5 0,-2.76 2.24,-5 5,-5 2.76,0 5,2.24 5,5 z"
         style="fill-rule:evenodd;stroke:#000000;stroke-width:1pt"
         transform="matrix(0.2,0,0,0.2,1.48,0.2)"
         inkscape:connector-curvature="0" /></marker><marker
       inkscape:stockid="DotS"
       orient="auto"
       refY="0"
       refX="0"
       id="marker3164"
       style="overflow:visible"><path
         id="path3166"
         d="m -2.5,-1 c 0,2.76 -2.24,5 -5,5 -2.76,0 -5,-2.24 -5,-5 0,-2.76 2.24,-5 5,-5 2.76,0 5,2.24 5,5 z"
         style="fill-rule:evenodd;stroke:#000000;stroke-width:1pt"
         transform="matrix(0.2,0,0,0.2,1.48,0.2)"
         inkscape:connector-curvature="0" /></marker><marker
       inkscape:stockid="DotS"
       orient="auto"
       refY="0"
       refX="0"
       id="marker3168"
       style="overflow:visible"><path
         id="path3170"
         d="m -2.5,-1 c 0,2.76 -2.24,5 -5,5 -2.76,0 -5,-2.24 -5,-5 0,-2.76 2.24,-5 5,-5 2.76,0 5,2.24 5,5 z"
         style="fill-rule:evenodd;stroke:#000000;stroke-width:1pt"
         transform="matrix(0.2,0,0,0.2,1.48,0.2)"
         inkscape:connector-curvature="0" /></marker><marker
       inkscape:stockid="DotS"
       orient="auto"
       refY="0"
       refX="0"
       id="marker3172"
       style="overflow:visible"><path
         id="path3174"
         d="m -2.5,-1 c 0,2.76 -2.24,5 -5,5 -2.76,0 -5,-2.24 -5,-5 0,-2.76 2.24,-5 5,-5 2.76,0 5,2.24 5,5 z"
         style="fill-rule:evenodd;stroke:#000000;stroke-width:1pt"
         transform="matrix(0.2,0,0,0.2,1.48,0.2)"
         inkscape:connector-curvature="0" /></marker><marker
       inkscape:stockid="DotS"
       orient="auto"
       refY="0"
       refX="0"
       id="DotS-7"
       style="overflow:visible"><path
         id="path4150-39"
         d="m -2.5,-1 c 0,2.76 -2.24,5 -5,5 -2.76,0 -5,-2.24 -5,-5 0,-2.76 2.24,-5 5,-5 2.76,0 5,2.24 5,5 z"
         style="fill-rule:evenodd;stroke:#000000;stroke-width:1pt"
         transform="matrix(0.2,0,0,0.2,1.48,0.2)"
         inkscape:connector-curvature="0" /></marker><marker
       inkscape:stockid="DotS"
       orient="auto"
       refY="0"
       refX="0"
       id="marker3126"
       style="overflow:visible"><path
         id="path3128"
         d="m -2.5,-1 c 0,2.76 -2.24,5 -5,5 -2.76,0 -5,-2.24 -5,-5 0,-2.76 2.24,-5 5,-5 2.76,0 5,2.24 5,5 z"
         style="fill-rule:evenodd;stroke:#000000;stroke-width:1pt"
         transform="matrix(0.2,0,0,0.2,1.48,0.2)"
         inkscape:connector-curvature="0" /></marker><marker
       inkscape:stockid="DotS"
       orient="auto"
       refY="0"
       refX="0"
       id="marker3130"
       style="overflow:visible"><path
         id="path3132"
         d="m -2.5,-1 c 0,2.76 -2.24,5 -5,5 -2.76,0 -5,-2.24 -5,-5 0,-2.76 2.24,-5 5,-5 2.76,0 5,2.24 5,5 z"
         style="fill-rule:evenodd;stroke:#000000;stroke-width:1pt"
         transform="matrix(0.2,0,0,0.2,1.48,0.2)"
         inkscape:connector-curvature="0" /></marker><marker
       inkscape:stockid="DotS"
       orient="auto"
       refY="0"
       refX="0"
       id="marker3134"
       style="overflow:visible"><path
         id="path3136"
         d="m -2.5,-1 c 0,2.76 -2.24,5 -5,5 -2.76,0 -5,-2.24 -5,-5 0,-2.76 2.24,-5 5,-5 2.76,0 5,2.24 5,5 z"
         style="fill-rule:evenodd;stroke:#000000;stroke-width:1pt"
         transform="matrix(0.2,0,0,0.2,1.48,0.2)"
         inkscape:connector-curvature="0" /></marker><marker
       inkscape:stockid="DotS"
       orient="auto"
       refY="0"
       refX="0"
       id="marker3138"
       style="overflow:visible"><path
         id="path3140"
         d="m -2.5,-1 c 0,2.76 -2.24,5 -5,5 -2.76,0 -5,-2.24 -5,-5 0,-2.76 2.24,-5 5,-5 2.76,0 5,2.24 5,5 z"
         style="fill-rule:evenodd;stroke:#000000;stroke-width:1pt"
         transform="matrix(0.2,0,0,0.2,1.48,0.2)"
         inkscape:connector-curvature="0" /></marker><marker
       inkscape:stockid="DotS"
       orient="auto"
       refY="0"
       refX="0"
       id="marker3142"
       style="overflow:visible"><path
         id="path3144"
         d="m -2.5,-1 c 0,2.76 -2.24,5 -5,5 -2.76,0 -5,-2.24 -5,-5 0,-2.76 2.24,-5 5,-5 2.76,0 5,2.24 5,5 z"
         style="fill-rule:evenodd;stroke:#000000;stroke-width:1pt"
         transform="matrix(0.2,0,0,0.2,1.48,0.2)"
         inkscape:connector-curvature="0" /></marker><marker
       inkscape:stockid="DotS"
       orient="auto"
       refY="0"
       refX="0"
       id="marker3146"
       style="overflow:visible"><path
         id="path3148"
         d="m -2.5,-1 c 0,2.76 -2.24,5 -5,5 -2.76,0 -5,-2.24 -5,-5 0,-2.76 2.24,-5 5,-5 2.76,0 5,2.24 5,5 z"
         style="fill-rule:evenodd;stroke:#000000;stroke-width:1pt"
         transform="matrix(0.2,0,0,0.2,1.48,0.2)"
         inkscape:connector-curvature="0" /></marker><marker
       inkscape:stockid="DotS"
       orient="auto"
       refY="0"
       refX="0"
       id="DotS-8"
       style="overflow:visible"><path
         id="path4150-22"
         d="m -2.5,-1 c 0,2.76 -2.24,5 -5,5 -2.76,0 -5,-2.24 -5,-5 0,-2.76 2.24,-5 5,-5 2.76,0 5,2.24 5,5 z"
         style="fill-rule:evenodd;stroke:#000000;stroke-width:1pt"
         transform="matrix(0.2,0,0,0.2,1.48,0.2)"
         inkscape:connector-curvature="0" /></marker><marker
       inkscape:stockid="DotS"
       orient="auto"
       refY="0"
       refX="0"
       id="marker3217"
       style="overflow:visible"><path
         id="path3219"
         d="m -2.5,-1 c 0,2.76 -2.24,5 -5,5 -2.76,0 -5,-2.24 -5,-5 0,-2.76 2.24,-5 5,-5 2.76,0 5,2.24 5,5 z"
         style="fill-rule:evenodd;stroke:#000000;stroke-width:1pt"
         transform="matrix(0.2,0,0,0.2,1.48,0.2)"
         inkscape:connector-curvature="0" /></marker><marker
       inkscape:stockid="DotS"
       orient="auto"
       refY="0"
       refX="0"
       id="DotS-82"
       style="overflow:visible"><path
         id="path4150-68"
         d="m -2.5,-1 c 0,2.76 -2.24,5 -5,5 -2.76,0 -5,-2.24 -5,-5 0,-2.76 2.24,-5 5,-5 2.76,0 5,2.24 5,5 z"
         style="fill-rule:evenodd;stroke:#000000;stroke-width:1pt"
         transform="matrix(0.2,0,0,0.2,1.48,0.2)"
         inkscape:connector-curvature="0" /></marker><marker
       inkscape:stockid="DotS"
       orient="auto"
       refY="0"
       refX="0"
       id="marker3183"
       style="overflow:visible"><path
         id="path3185"
         d="m -2.5,-1 c 0,2.76 -2.24,5 -5,5 -2.76,0 -5,-2.24 -5,-5 0,-2.76 2.24,-5 5,-5 2.76,0 5,2.24 5,5 z"
         style="fill-rule:evenodd;stroke:#000000;stroke-width:1pt"
         transform="matrix(0.2,0,0,0.2,1.48,0.2)"
         inkscape:connector-curvature="0" /></marker><marker
       inkscape:stockid="DotS"
       orient="auto"
       refY="0"
       refX="0"
       id="marker3187"
       style="overflow:visible"><path
         id="path3189"
         d="m -2.5,-1 c 0,2.76 -2.24,5 -5,5 -2.76,0 -5,-2.24 -5,-5 0,-2.76 2.24,-5 5,-5 2.76,0 5,2.24 5,5 z"
         style="fill-rule:evenodd;stroke:#000000;stroke-width:1pt"
         transform="matrix(0.2,0,0,0.2,1.48,0.2)"
         inkscape:connector-curvature="0" /></marker><marker
       inkscape:stockid="DotS"
       orient="auto"
       refY="0"
       refX="0"
       id="marker3191"
       style="overflow:visible"><path
         id="path3193"
         d="m -2.5,-1 c 0,2.76 -2.24,5 -5,5 -2.76,0 -5,-2.24 -5,-5 0,-2.76 2.24,-5 5,-5 2.76,0 5,2.24 5,5 z"
         style="fill-rule:evenodd;stroke:#000000;stroke-width:1pt"
         transform="matrix(0.2,0,0,0.2,1.48,0.2)"
         inkscape:connector-curvature="0" /></marker><marker
       inkscape:stockid="DotS"
       orient="auto"
       refY="0"
       refX="0"
       id="marker3195"
       style="overflow:visible"><path
         id="path3197"
         d="m -2.5,-1 c 0,2.76 -2.24,5 -5,5 -2.76,0 -5,-2.24 -5,-5 0,-2.76 2.24,-5 5,-5 2.76,0 5,2.24 5,5 z"
         style="fill-rule:evenodd;stroke:#000000;stroke-width:1pt"
         transform="matrix(0.2,0,0,0.2,1.48,0.2)"
         inkscape:connector-curvature="0" /></marker><marker
       inkscape:stockid="DotS"
       orient="auto"
       refY="0"
       refX="0"
       id="marker3199"
       style="overflow:visible"><path
         id="path3201"
         d="m -2.5,-1 c 0,2.76 -2.24,5 -5,5 -2.76,0 -5,-2.24 -5,-5 0,-2.76 2.24,-5 5,-5 2.76,0 5,2.24 5,5 z"
         style="fill-rule:evenodd;stroke:#000000;stroke-width:1pt"
         transform="matrix(0.2,0,0,0.2,1.48,0.2)"
         inkscape:connector-curvature="0" /></marker><marker
       inkscape:stockid="DotS"
       orient="auto"
       refY="0"
       refX="0"
       id="marker3203"
       style="overflow:visible"><path
         id="path3205"
         d="m -2.5,-1 c 0,2.76 -2.24,5 -5,5 -2.76,0 -5,-2.24 -5,-5 0,-2.76 2.24,-5 5,-5 2.76,0 5,2.24 5,5 z"
         style="fill-rule:evenodd;stroke:#000000;stroke-width:1pt"
         transform="matrix(0.2,0,0,0.2,1.48,0.2)"
         inkscape:connector-curvature="0" /></marker></defs><sodipodi:namedview
     pagecolor="#ffffff"
     bordercolor="#666666"
     borderopacity="1"
     objecttolerance="10"
     gridtolerance="10"
     guidetolerance="10"
     inkscape:pageopacity="0"
     inkscape:pageshadow="2"
     inkscape:window-width="1855"
     inkscape:window-height="1056"
     id="namedview4"
     showgrid="false"
     inkscape:zoom="2.5244444"
     inkscape:cx="206.32403"
     inkscape:cy="31.470441"
     inkscape:window-x="1985"
     inkscape:window-y="24"
     inkscape:window-maximized="1"
     inkscape:current-layer="g12"
     showguides="true"
     inkscape:guide-bbox="true"
     inkscape:snap-bbox="true"
     inkscape:snap-global="true"
     inkscape:snap-page="true" /><g
     id="g10"
     inkscape:groupmode="layer"
     inkscape:label="ink_ext_XXXXXX"
     transform="matrix(1.25,0,0,-1.25,0,136.25)"><g
       id="g12"
       transform="matrix(0.06648606,0,0,0.07402375,-2.1272815,-21.843815)"><path
         style="fill:none;stroke:#000000;stroke-width:6.95188046px;stroke-linecap:butt;stroke-linejoin:miter;stroke-opacity:1"
         d="m 1923.484,1358.03 0,-897.04512 0,0"
         id="path6365-0"
         inkscape:connector-curvature="0" /><path
         style="fill:none;stroke:#000000;stroke-width:5.15199804px;stroke-linecap:butt;stroke-linejoin:miter;stroke-opacity:1"
         d="m 1832.7318,512.41021 1671.897,8.23163"
         id="path6367-9"
         inkscape:connector-curvature="0" /><path
         inkscape:connector-curvature="0"
         d="m 1834.0992,492.98806 -0.043,37.03725 -29.6096,-18.66795 29.6526,-18.3693"
         style="fill:#000000;fill-opacity:1;fill-rule:evenodd;stroke:none"
         id="path3414-0-1" /><path
         inkscape:connector-curvature="0"
         d="m 1941.8247,463.34752 -36.1254,-0.26298 18.3496,-38.97644 17.7758,39.23941"
         style="fill:#000000;fill-opacity:1;fill-rule:evenodd;stroke:none"
         id="path3414-0-8-3" /><path
         inkscape:connector-curvature="0"
         d="m 1904.5726,1356.5641 36.1259,-0.071 -18.1206,39.1455 -18.0053,-39.0736"
         style="fill:#000000;fill-opacity:1;fill-rule:evenodd;stroke:none"
         id="path3414-0-8-5-52"
         inkscape:transform-center-x="-9.7362179"
         inkscape:transform-center-y="-3.7772076e-05" /><path
         inkscape:connector-curvature="0"
         d="m 3498.3077,540.73458 -0.541,-37.03268 29.8997,18.12464 -29.3587,18.90808"
         style="fill:#000000;fill-opacity:1;fill-rule:evenodd;stroke:none"
         id="path3414-0-8-5-5-3"
         inkscape:transform-center-x="1.1701492"
         inkscape:transform-center-y="-79.621566" /><path
         d="m 1966.9347,1205.8027 800.1454,6.2005 0.9056,170.4736 194.1418,-0.3804 0.3396,-167.4308 407.5116,0.092"
         style="fill:none;stroke:#ff2222;stroke-width:4.37895393;stroke-linecap:butt;stroke-linejoin:miter;stroke-miterlimit:10;stroke-opacity:1;stroke-dasharray:35.03163085, 8.75790777, 4.37895377, 8.75790777;stroke-dashoffset:0;marker-start:url(#DotM);marker-mid:url(#DotM);marker-end:url(#DotM)"
         id="path30-9-5"
         inkscape:connector-curvature="0"
         sodipodi:nodetypes="cccccc" /><flowRoot
         xml:space="preserve"
         id="flowRoot3128"
         style="font-size:20px;font-style:normal;font-variant:normal;font-weight:normal;font-stretch:normal;text-align:center;line-height:125%;letter-spacing:0px;word-spacing:0px;writing-mode:lr-tb;text-anchor:middle;fill:#000000;fill-opacity:1;stroke:none;font-family:Sans;-inkscape-font-specification:Sans"
         transform="matrix(12.032598,0,0,-10.807342,-39.73363,1948.1812)"><flowRegion
           id="flowRegion3130"><rect
             id="rect3132"
             width="326.17188"
             height="153.125"
             x="4.6875"
             y="6.484375" /></flowRegion><flowPara
           id="flowPara3134" /></flowRoot><flowRoot
         xml:space="preserve"
         id="flowRoot3136"
         style="font-size:20px;font-style:normal;font-variant:normal;font-weight:normal;font-stretch:normal;text-align:center;line-height:125%;letter-spacing:0px;word-spacing:0px;writing-mode:lr-tb;text-anchor:middle;fill:#000000;fill-opacity:1;stroke:none;font-family:Sans;-inkscape-font-specification:Sans"><flowRegion
           id="flowRegion3138"><rect
             id="rect3140"
             width="344.53125"
             height="156.25"
             x="3.125"
             y="5.3125" /></flowRegion><flowPara
           id="flowPara3142" /></flowRoot><path
         d="m 1950.8004,629.02856 17.4691,40.8041 14.5369,-37.565 20.4015,42.8598 13.4275,-41.9844 25.5859,40.2794 17.8478,-36.4602 20.0606,38.3947 13.4285,-35.3553 21.1664,41.3714 15.0858,-50.8233 22.4405,51.0002 18.9527,-47.5088 28.347,47.3319 16.0204,-50.1348"
         style="fill:none;stroke:#53b000;stroke-width:4.72424984;stroke-linecap:butt;stroke-linejoin:miter;stroke-miterlimit:10;stroke-opacity:1;stroke-dasharray:none;marker-mid:url(#DotS)"
         id="path26-9"
         inkscape:connector-curvature="0"
         sodipodi:nodetypes="ccccccccccccccc" /><path
         d="m 2207.0383,635.18676 17.4691,40.8042 14.5369,-37.5651 20.4015,42.8599 13.4275,-41.9845 25.5858,40.2795 17.8479,-36.4602 20.0606,38.3947 13.4285,-35.3554 21.1664,41.3714 15.0858,-50.8233 22.4405,51.0003 18.9528,-47.5088"
         style="fill:none;stroke:#53b000;stroke-width:4.72424984;stroke-linecap:butt;stroke-linejoin:miter;stroke-miterlimit:10;stroke-opacity:1;stroke-dasharray:none;marker-mid:url(#DotS)"
         id="path26-3-0"
         inkscape:connector-curvature="0"
         sodipodi:nodetypes="ccccccccccccc" /><path
         d="m 2427.0079,642.78676 48.405,206.5323 14.537,-37.5651 20.4015,42.8599 13.4274,-41.9845 25.5859,40.2794 17.8479,-36.4602 20.0606,38.3948 13.4284,-35.3554 21.1665,41.3714 15.0858,-50.8233 22.4405,51.0002 18.9527,-47.5087"
         style="fill:none;stroke:#53b000;stroke-width:4.72424984;stroke-linecap:butt;stroke-linejoin:miter;stroke-miterlimit:10;stroke-opacity:1;stroke-dasharray:none;marker-mid:url(#DotS)"
         id="path26-3-4-0"
         inkscape:connector-curvature="0"
         sodipodi:nodetypes="ccccccccccccc" /><path
         d="m 2678.9147,815.14406 17.4691,40.8042 14.537,-37.5651 20.4014,42.8599 13.4274,-41.9845 25.5859,40.2794 17.8479,-36.4602 20.0605,38.3948 13.4285,-35.3554"
         style="fill:none;stroke:#53b000;stroke-width:4.72424984;stroke-linecap:butt;stroke-linejoin:miter;stroke-miterlimit:10;stroke-opacity:1;stroke-dasharray:none;marker-mid:url(#DotS)"
         id="path26-3-42-25"
         inkscape:connector-curvature="0"
         sodipodi:nodetypes="ccccccccc" /><path
         d="m 2980.3771,941.74729 25.0524,94.50971 10.6723,-47.99429 16.0336,52.51809 27.5898,-224.63904 25.5859,40.2794 17.8478,-36.4602 20.0606,38.3948 13.4285,-35.3554 21.1664,41.3714 15.0857,-50.8233 22.4406,51.0002 18.9527,-47.5087"
         style="fill:none;stroke:#53b000;stroke-width:4.72424984;stroke-linecap:butt;stroke-linejoin:miter;stroke-miterlimit:10;stroke-opacity:1;stroke-dasharray:none;marker-mid:url(#DotS)"
         id="path26-3-42-2-6"
         inkscape:connector-curvature="0"
         sodipodi:nodetypes="ccccccccccccc" /><path
         d="m 3214.8611,814.23696 17.4691,40.8042 14.5368,-37.5651 20.4014,42.8599 13.4276,-41.9845 25.5858,40.2794 17.8479,-36.4602 20.0606,38.3948 13.4285,-35.3554 21.1664,41.3714 15.0858,-50.8233 22.4405,51.0002 18.9527,-47.5087"
         style="fill:none;stroke:#53b000;stroke-width:4.72424984;stroke-linecap:butt;stroke-linejoin:miter;stroke-miterlimit:10;stroke-opacity:1;stroke-dasharray:none;marker-mid:url(#DotS)"
         id="path26-3-42-2-7-3"
         inkscape:connector-curvature="0"
         sodipodi:nodetypes="ccccccccccccc" /><path
         d="m 2823.4994,831.12033 22.0633,214.84207 c 4.3727,-29.7641 25.4976,-85.18053 26.6088,-65.62605 l 14.2523,71.27635 22.9929,-98.4516 18.8952,88.8569 13.1743,-48.08446 24.0738,39.90766 14.4016,-89.41374"
         style="fill:none;stroke:#53b000;stroke-width:5.04035854;stroke-linecap:butt;stroke-linejoin:miter;stroke-miterlimit:10;stroke-opacity:1;stroke-dasharray:none;marker-mid:url(#DotS)"
         id="path26-3-42-1-5"
         inkscape:connector-curvature="0"
         sodipodi:nodetypes="ccccccccc" /><path
         d="m 235.65575,675.45155 469.99744,0 0,179.97478 895.22791,0"
         style="fill:none;stroke:#01008f;stroke-width:10.92364597;stroke-linecap:butt;stroke-linejoin:miter;stroke-miterlimit:10;stroke-opacity:1;stroke-dasharray:43.6945865, 21.84729331;stroke-dashoffset:0"
         id="path30-5"
         inkscape:connector-curvature="0" /><path
         style="fill:none;stroke:#000000;stroke-width:9.12145805px;stroke-linecap:butt;stroke-linejoin:miter;stroke-opacity:1"
         d="m 2523.3759,1095.879 303.2577,0.046 0,0"
         id="path6365-9-0-4-1-2"
         inkscape:connector-curvature="0" /><path
         style="fill:none;stroke:#000000;stroke-width:8.51059723px;stroke-linecap:butt;stroke-linejoin:miter;stroke-opacity:1"
         d="m 3101.4855,1099.5658 261.0871,0.047 0,0"
         id="path6365-9-0-4-1-6-9"
         inkscape:connector-curvature="0" /><path
         inkscape:connector-curvature="0"
         d="m 2522.9115,1096.3621 21.4188,28.8069 -71.7385,-31.7898 83.4439,-28.8153"
         style="fill:#000000;fill-opacity:1;fill-rule:evenodd;stroke:none"
         id="path3414-0-8-5-52-3-9"
         inkscape:transform-center-x="-16278.691"
         inkscape:transform-center-y="-103.5088"
         sodipodi:nodetypes="cccc" /><path
         inkscape:connector-curvature="0"
         d="m 3414.6376,1101.079 -82.4761,30.3222 29.6645,-30.4109 -19.2665,-30.8024"
         style="fill:#000000;fill-opacity:1;fill-rule:evenodd;stroke:none"
         id="path3414-0-8-5-52-3-4-5"
         inkscape:transform-center-x="-168641.4"
         inkscape:transform-center-y="121.96025"
         sodipodi:nodetypes="cccc" /><text
         xml:space="preserve"
         style="font-size:59.66804886px;font-style:normal;font-variant:normal;font-weight:normal;font-stretch:normal;text-align:center;line-height:125%;letter-spacing:0px;word-spacing:0px;writing-mode:lr-tb;text-anchor:middle;fill:#000000;fill-opacity:1;stroke:none;font-family:Sans;-inkscape-font-specification:Sans"
         x="2954.3828"
         y="-1087.3866"
         id="text3203-1"
         sodipodi:linespacing="125%"
         transform="scale(1.0043488,-0.99567004)"><tspan
           sodipodi:role="line"
           id="tspan3205-2"
           x="2954.3828"
           y="-1087.3866">phase 2</tspan></text>
<path
         style="fill:none;stroke:#000000;stroke-width:9.34033966px;stroke-linecap:butt;stroke-linejoin:miter;stroke-opacity:1"
         d="m 1984.9473,842.68972 112.1615,0.1302 0,0"
         id="path6365-9-0-4-1-1-9"
         inkscape:connector-curvature="0" /><path
         style="fill:none;stroke:#000000;stroke-width:9.05161095px;stroke-linecap:butt;stroke-linejoin:miter;stroke-opacity:1"
         d="m 2308.9085,845.30752 122.3725,0.112 0,0"
         id="path6365-9-0-4-1-6-5-4"
         inkscape:connector-curvature="0" /><path
         inkscape:connector-curvature="0"
         d="m 2005.1105,843.68931 21.3403,29.8162 -71.4756,-32.9037 83.1382,-29.8249"
         style="fill:#000000;fill-opacity:1;fill-rule:evenodd;stroke:none"
         id="path3414-0-8-5-52-3-7-4"
         inkscape:transform-center-x="-195156.87"
         inkscape:transform-center-y="1157.8517"
         sodipodi:nodetypes="cccc" /><path
         inkscape:connector-curvature="0"
         d="m 2454.6905,846.83712 -78.9459,29.9876 28.3946,-30.0754 -18.4417,-30.4624"
         style="fill:#000000;fill-opacity:1;fill-rule:evenodd;stroke:none"
         id="path3414-0-8-5-52-3-4-1-9"
         inkscape:transform-center-x="-1942336"
         inkscape:transform-center-y="-1303.5245"
         sodipodi:nodetypes="cccc" /><text
         xml:space="preserve"
         style="font-size:53.75015259px;font-style:normal;font-variant:normal;font-weight:normal;font-stretch:normal;text-align:center;line-height:125%;letter-spacing:0px;word-spacing:0px;writing-mode:lr-tb;text-anchor:middle;fill:#000000;fill-opacity:1;stroke:none;font-family:Sans;-inkscape-font-specification:Sans"
         x="2258.1179"
         y="-816.27319"
         id="text3203-4-3"
         sodipodi:linespacing="125%"
         transform="scale(0.97643254,-1.0241363)"><tspan
           sodipodi:role="line"
           id="tspan3205-1-9"
           x="2258.1179"
           y="-816.27319">phase 1</tspan></text>
<path
         style="fill:none;stroke:#000000;stroke-width:6.99954844px;stroke-linecap:butt;stroke-linejoin:miter;stroke-opacity:1"
         d="m 213.94671,1410.6419 0,-965.68345 0,0"
         id="path6365-1"
         inkscape:connector-curvature="0" /><path
         style="fill:none;stroke:#000000;stroke-width:4.92918634px;stroke-linecap:butt;stroke-linejoin:miter;stroke-opacity:1"
         d="m 130.06303,501.94657 1529.21357,8.23808"
         id="path6367-1"
         inkscape:connector-curvature="0" /><path
         inkscape:connector-curvature="0"
         d="m 131.3138,482.50919 -0.0396,37.06629 -27.08266,-18.68257 27.12194,-18.38372"
         style="fill:#000000;fill-opacity:1;fill-rule:evenodd;stroke:none"
         id="path3414-0-18" /><path
         inkscape:connector-curvature="0"
         d="m 231.21822,445.90229 -34.01938,-0.2136 17.27981,-31.66487 16.73957,31.87849"
         style="fill:#000000;fill-opacity:1;fill-rule:evenodd;stroke:none"
         id="path3414-0-8-1" /><path
         inkscape:connector-curvature="0"
         d="m 196.84947,1403.0527 34.01994,-0.058 -17.06423,31.8022 -16.95571,-31.7438"
         style="fill:#000000;fill-opacity:1;fill-rule:evenodd;stroke:none"
         id="path3414-0-8-5-7"
         inkscape:transform-center-x="-13.790331" /><path
         inkscape:connector-curvature="0"
         d="m 1659.1241,529.0646 -0.4947,-37.06169 27.3481,18.13879 -26.8532,18.923"
         style="fill:#000000;fill-opacity:1;fill-rule:evenodd;stroke:none"
         id="path3414-0-8-5-5-3-4-0"
         inkscape:transform-center-x="154.95993"
         inkscape:transform-center-y="-9306.9854" /><path
         style="fill:none;stroke:#000000;stroke-width:9.12145805px;stroke-linecap:butt;stroke-linejoin:miter;stroke-opacity:1"
         d="m 777.66952,1125.2147 303.25768,0.046 0,0"
         id="path6365-9-0-4-1-2-8"
         inkscape:connector-curvature="0" /><path
         style="fill:none;stroke:#000000;stroke-width:7.69694662px;stroke-linecap:butt;stroke-linejoin:miter;stroke-opacity:1"
         d="m 1355.3498,1128.8837 210.4973,0.048 0,0"
         id="path6365-9-0-4-1-6-9-8"
         inkscape:connector-curvature="0" /><path
         inkscape:connector-curvature="0"
         d="m 777.20512,1125.6978 21.4188,28.8069 -71.7385,-31.7898 83.4439,-28.8153"
         style="fill:#000000;fill-opacity:1;fill-rule:evenodd;stroke:none"
         id="path3414-0-8-5-52-3-9-2"
         inkscape:transform-center-x="-195874.94"
         inkscape:transform-center-y="1118.655"
         sodipodi:nodetypes="cccc" /><path
         inkscape:connector-curvature="0"
         d="m 1607.8237,1130.4188 -66.495,30.7622 23.9165,-30.8522 -15.5333,-31.2493"
         style="fill:#000000;fill-opacity:1;fill-rule:evenodd;stroke:none"
         id="path3414-0-8-5-52-3-4-5-0"
         inkscape:transform-center-x="-1636005.1"
         inkscape:transform-center-y="-1337.1899"
         sodipodi:nodetypes="cccc" /><text
         xml:space="preserve"
         style="font-size:59.66804886px;font-style:normal;font-variant:normal;font-weight:normal;font-stretch:normal;text-align:center;line-height:125%;letter-spacing:0px;word-spacing:0px;writing-mode:lr-tb;text-anchor:middle;fill:#000000;fill-opacity:1;stroke:none;font-family:Sans;-inkscape-font-specification:Sans"
         x="1216.2356"
         y="-1116.8496"
         id="text3203-1-9"
         sodipodi:linespacing="125%"
         transform="scale(1.0043488,-0.99567004)"><tspan
           sodipodi:role="line"
           id="tspan3205-2-4"
           x="1216.2356"
           y="-1116.8496">phase 2</tspan></text>
<path
         style="fill:none;stroke:#000000;stroke-width:9.34033966px;stroke-linecap:butt;stroke-linejoin:miter;stroke-opacity:1"
         d="m 239.24102,872.02528 112.1614,0.1303 0,0"
         id="path6365-9-0-4-1-1-9-7"
         inkscape:connector-curvature="0" /><path
         style="fill:none;stroke:#000000;stroke-width:9.05161095px;stroke-linecap:butt;stroke-linejoin:miter;stroke-opacity:1"
         d="m 563.20212,874.64308 122.3725,0.112 0,0"
         id="path6365-9-0-4-1-6-5-4-5"
         inkscape:connector-curvature="0" /><path
         inkscape:connector-curvature="0"
         d="m 259.40422,873.02488 21.3403,29.81618 -71.4756,-32.90368 83.1382,-29.8249"
         style="fill:#000000;fill-opacity:1;fill-rule:evenodd;stroke:none"
         id="path3414-0-8-5-52-3-7-4-7"
         inkscape:transform-center-x="-2348244.1"
         inkscape:transform-center-y="-12513.3"
         sodipodi:nodetypes="cccc" /><path
         inkscape:connector-curvature="0"
         d="m 708.98412,876.17268 -78.9459,29.98758 28.3946,-30.07538 -18.4417,-30.4624"
         style="fill:#000000;fill-opacity:1;fill-rule:evenodd;stroke:none"
         id="path3414-0-8-5-52-3-4-1-9-9"
         inkscape:transform-center-x="-23371347"
         inkscape:transform-center-y="14087.635"
         sodipodi:nodetypes="cccc" /><text
         xml:space="preserve"
         style="font-size:53.75015259px;font-style:normal;font-variant:normal;font-weight:normal;font-stretch:normal;text-align:center;line-height:125%;letter-spacing:0px;word-spacing:0px;writing-mode:lr-tb;text-anchor:middle;fill:#000000;fill-opacity:1;stroke:none;font-family:Sans;-inkscape-font-specification:Sans"
         x="470.27695"
         y="-844.91736"
         id="text3203-4-3-1"
         sodipodi:linespacing="125%"
         transform="scale(0.97643254,-1.0241363)"><tspan
           sodipodi:role="line"
           id="tspan3205-1-9-1"
           x="470.27695"
           y="-844.91736">phase 1</tspan></text>
<text
         xml:space="preserve"
         style="font-size:129.48164368px;font-style:normal;font-variant:normal;font-weight:normal;font-stretch:normal;text-align:center;line-height:125%;letter-spacing:0px;word-spacing:0px;writing-mode:lr-tb;text-anchor:middle;fill:#000000;fill-opacity:1;stroke:none;font-family:Sans;-inkscape-font-specification:Sans"
         x="954.1189"
         y="-375.55194"
         id="text3113"
         sodipodi:linespacing="125%"
         transform="scale(1.026934,-0.97377242)"><tspan
           sodipodi:role="line"
           id="tspan3115"
           x="954.1189"
           y="-375.55194">(a)</tspan></text>
<text
         xml:space="preserve"
         style="font-size:125.55194092px;font-style:normal;font-variant:normal;font-weight:normal;font-stretch:normal;text-align:center;line-height:125%;letter-spacing:0px;word-spacing:0px;writing-mode:lr-tb;text-anchor:middle;fill:#000000;fill-opacity:1;stroke:none;font-family:Sans;-inkscape-font-specification:Sans"
         x="2572.3733"
         y="-390.5495"
         id="text3113-7-5"
         sodipodi:linespacing="125%"
         transform="scale(1.034266,-0.96686926)"><tspan
           sodipodi:role="line"
           x="2572.3733"
           y="-390.5495"
           id="tspan3207">(b)</tspan></text>
<text
         xml:space="preserve"
         style="font-size:88.35353851px;font-style:normal;font-variant:normal;font-weight:normal;font-stretch:normal;text-align:center;line-height:125%;letter-spacing:0px;word-spacing:0px;writing-mode:lr-tb;text-anchor:middle;fill:#000000;fill-opacity:1;stroke:none;font-family:Sans;-inkscape-font-specification:Sans"
         x="1003.326"
         y="-1420.8313"
         id="text3470"
         sodipodi:linespacing="125%"
         transform="scale(0.98086681,-1.0195064)"><tspan
           sodipodi:role="line"
           x="1003.326"
           y="-1420.8313"
           id="tspan6672">Solo Execution</tspan><tspan
           sodipodi:role="line"
           x="1003.326"
           y="-1310.3894"
           id="tspan6339" /></text>
<text
         xml:space="preserve"
         style="font-size:88.35353851px;font-style:normal;font-variant:normal;font-weight:normal;font-stretch:normal;text-align:center;line-height:125%;letter-spacing:0px;word-spacing:0px;writing-mode:lr-tb;text-anchor:middle;fill:#000000;fill-opacity:1;stroke:none;font-family:Sans;-inkscape-font-specification:Sans"
         x="2833.2725"
         y="-1592.1511"
         id="text3470-9-3"
         sodipodi:linespacing="125%"
         transform="scale(0.98086681,-1.0195064)"><tspan
           sodipodi:role="line"
           x="2833.2725"
           y="-1592.1511"
           id="tspan6672-4-2" /><tspan
           sodipodi:role="line"
           x="2833.2725"
           y="-1481.7092"
           id="tspan3317-4">Co-location</tspan><tspan
           sodipodi:role="line"
           x="2833.2725"
           y="-1371.2673"
           id="tspan6339-7-8" /></text>
</g></g></svg>